<?xml version="1.0" encoding="UTF-8"?>
<svg version="1.1" xmlns="http://www.w3.org/2000/svg" width="256" height="256">
<path d="M0 0 C0.92167969 0.42667969 1.84335938 0.85335938 2.79296875 1.29296875 C29.22414557 14.60616121 51.02468508 39.18253629 60.49609375 67.2578125 C61.61849505 70.80690751 62.5937874 74.38226773 63.49609375 77.99316406 C63.95822571 79.83363145 64.46150195 81.66364011 64.96875 83.4921875 C71.75452537 111.20077025 66.22758756 143.21780853 51.75 167.6875 C34.39067677 195.80564334 9.11936725 215.72561483 -23 224 C-24.20398438 224.3196875 -25.40796875 224.639375 -26.6484375 224.96875 C-57.02224172 231.84583775 -89.88584604 225.63761916 -116.14501953 209.203125 C-142.32332437 192.22409286 -160.02830902 167.05605581 -168 137 C-168.47953125 135.33904297 -168.47953125 135.33904297 -168.96875 133.64453125 C-175.31889726 108.09694808 -171.15211001 79.60097699 -160 56 C-159.57332031 55.07832031 -159.14664063 54.15664062 -158.70703125 53.20703125 C-145.29590497 26.58142277 -120.789702 5.15876687 -92.75 -4.75 C-90.17021443 -5.53538364 -87.59872519 -6.28631459 -85 -7 C-84.3208252 -7.19609863 -83.64165039 -7.39219727 -82.94189453 -7.59423828 C-55.57943806 -15.28187537 -25.58767311 -12.0908785 0 0 Z " fill="#A1C0AD" transform="translate(180,20)"/>
<path d="M0 0 C0.92167969 0.42667969 1.84335938 0.85335938 2.79296875 1.29296875 C29.22414557 14.60616121 51.02468508 39.18253629 60.49609375 67.2578125 C61.61849505 70.80690751 62.5937874 74.38226773 63.49609375 77.99316406 C63.95822571 79.83363145 64.46150195 81.66364011 64.96875 83.4921875 C71.75452537 111.20077025 66.22758756 143.21780853 51.75 167.6875 C34.39067677 195.80564334 9.11936725 215.72561483 -23 224 C-24.20398438 224.3196875 -25.40796875 224.639375 -26.6484375 224.96875 C-57.02224172 231.84583775 -89.88584604 225.63761916 -116.14501953 209.203125 C-142.32332437 192.22409286 -160.02830902 167.05605581 -168 137 C-168.47953125 135.33904297 -168.47953125 135.33904297 -168.96875 133.64453125 C-175.31889726 108.09694808 -171.15211001 79.60097699 -160 56 C-159.57332031 55.07832031 -159.14664063 54.15664062 -158.70703125 53.20703125 C-145.29590497 26.58142277 -120.789702 5.15876687 -92.75 -4.75 C-90.17021443 -5.53538364 -87.59872519 -6.28631459 -85 -7 C-84.3208252 -7.19609863 -83.64165039 -7.39219727 -82.94189453 -7.59423828 C-55.57943806 -15.28187537 -25.58767311 -12.0908785 0 0 Z M-97 12 C-98.03382812 12.49113281 -99.06765625 12.98226562 -100.1328125 13.48828125 C-124.94303185 26.01295825 -143.83178385 47.90244065 -152.75439453 74.22558594 C-154.04478741 78.43978039 -155.08745477 82.6871374 -156 87 C-156.17362061 87.74685059 -156.34724121 88.49370117 -156.52612305 89.26318359 C-159.29079241 105.2301818 -158.68092351 125.85595425 -153 141 C-152.73155273 141.72251953 -152.46310547 142.44503906 -152.18652344 143.18945312 C-145.06038214 161.73478209 -133.83560927 178.74730791 -118 191 C-117.34 191 -116.68 191 -116 191 C-116 191.66 -116 192.32 -116 193 C-111.89164375 196.01371833 -107.43494288 198.5007076 -103 201 C-102.02232666 201.55518311 -102.02232666 201.55518311 -101.02490234 202.12158203 C-99.07651919 203.20401712 -97.108521 204.23362355 -95.125 205.25 C-94.51970459 205.58604248 -93.91440918 205.92208496 -93.29077148 206.26831055 C-91.28844669 207.3264354 -91.28844669 207.3264354 -88 208 C-85.26420165 207.00929118 -83.40566284 205.71042013 -81 204 C-81 202.35 -81 200.7 -81 199 C-62.85 199 -44.7 199 -26 199 C-28 204 -28 204 -30 206 C-29.67958603 208.60280568 -29.67958603 208.60280568 -29 211 C0.61306425 203.94927042 23.64362355 187.08434275 39.75 161.25 C42.46431758 156.35639859 44.67102043 151.31256992 46.75 146.125 C47.17297363 145.08327637 47.17297363 145.08327637 47.60449219 144.02050781 C52.13832916 132.16319703 53.53733874 120.31670719 53.4375 107.6875 C53.43243942 106.67210648 53.43243942 106.67210648 53.42727661 105.63619995 C53.24338748 80.10419054 44.46872874 58.44098549 28 39 C27.31035156 38.16339844 26.62070313 37.32679687 25.91015625 36.46484375 C10.49340883 18.42752806 -12.70675095 6.6650217 -36 3 C-41.27465245 2.58713425 -46.52487082 2.51425176 -51.8125 2.5625 C-52.86141418 2.56656357 -52.86141418 2.56656357 -53.93151855 2.57070923 C-69.51877726 2.66216077 -82.85402749 5.15702956 -97 12 Z " fill="#F6F9F9" transform="translate(180,20)"/>
<path d="M0 0 C0.85940186 -0.01283524 1.71880371 -0.02567047 2.60424805 -0.03889465 C3.535354 -0.04628159 4.46645996 -0.05366852 5.42578125 -0.0612793 C6.39749268 -0.06935104 7.3692041 -0.07742279 8.37036133 -0.08573914 C10.43829567 -0.09958802 12.50625296 -0.11030656 14.57421875 -0.11816406 C16.65501775 -0.1295635 18.73579041 -0.14981825 20.81640625 -0.1796875 C37.18758861 -0.41449853 52.61718401 0.46742667 67.73828125 7.17700195 C70.2062533 7.76758143 72.68712144 8.30577371 75.17578125 8.80200195 C86.78109331 11.28989653 97.72652408 15.83292702 108.73828125 20.17700195 C108.73828125 20.83700195 108.73828125 21.49700195 108.73828125 22.17700195 C102.22553588 27.46654134 96.07104807 31.06596638 87.73828125 32.17700195 C88.72828125 31.68200195 88.72828125 31.68200195 89.73828125 31.17700195 C89.40828125 30.18700195 89.07828125 29.19700195 88.73828125 28.17700195 C91.37828125 28.17700195 94.01828125 28.17700195 96.73828125 28.17700195 C96.73828125 27.51700195 96.73828125 26.85700195 96.73828125 26.17700195 C96.18140625 26.20020508 95.62453125 26.2234082 95.05078125 26.24731445 C89.5621911 26.37711219 85.00894615 25.71028629 79.73828125 24.17700195 C79.73828125 24.83700195 79.73828125 25.49700195 79.73828125 26.17700195 C78.27812834 25.89458555 76.82018332 25.60073582 75.36328125 25.30200195 C74.55117187 25.13958008 73.7390625 24.9771582 72.90234375 24.80981445 C70.73828125 24.17700195 70.73828125 24.17700195 68.73828125 22.17700195 C76.33587605 22.02381606 83.79873012 22.49683575 91.36328125 23.17700195 C92.46285156 23.27239258 93.56242188 23.3677832 94.6953125 23.46606445 C97.37666107 23.6992252 100.05760346 23.93627235 102.73828125 24.17700195 C102.73828125 23.51700195 102.73828125 22.85700195 102.73828125 22.17700195 C102.07828125 22.17700195 101.41828125 22.17700195 100.73828125 22.17700195 C100.73828125 21.51700195 100.73828125 20.85700195 100.73828125 20.17700195 C99.45630859 20.30268555 99.45630859 20.30268555 98.1484375 20.4309082 C97.04371094 20.53274414 95.93898437 20.63458008 94.80078125 20.73950195 C93.69863281 20.84391602 92.59648437 20.94833008 91.4609375 21.0559082 C90.56246094 21.09586914 89.66398438 21.13583008 88.73828125 21.17700195 C88.40828125 20.84700195 88.07828125 20.51700195 87.73828125 20.17700195 C85.06769274 20.03585034 82.41395887 20.13453088 79.73828125 20.17700195 C79.73828125 20.50700195 79.73828125 20.83700195 79.73828125 21.17700195 C78.61808594 21.23758789 77.49789062 21.29817383 76.34375 21.3605957 C74.87108141 21.4450162 73.39842581 21.52966344 71.92578125 21.61450195 C70.81879883 21.67347656 70.81879883 21.67347656 69.68945312 21.73364258 C66.50756783 21.9208123 63.77665747 22.16420988 60.73828125 23.17700195 C57.30980472 23.3712703 53.88779069 23.52215476 50.45507812 23.60668945 C48.07690448 23.68032077 48.07690448 23.68032077 44.73828125 24.17700195 C43.74828125 25.66200195 43.74828125 25.66200195 42.73828125 27.17700195 C43.31578125 27.42450195 43.89328125 27.67200195 44.48828125 27.92700195 C47.03858095 29.34383512 48.75613826 31.05327732 50.73828125 33.17700195 C49.25328125 33.67200195 49.25328125 33.67200195 47.73828125 34.17700195 C48.70765625 34.77512695 49.67703125 35.37325195 50.67578125 35.98950195 C53.73828125 38.17700195 53.73828125 38.17700195 54.73828125 41.17700195 C52.49023123 41.85021479 50.23975901 42.51534318 47.98828125 43.17700195 C46.7353125 43.54825195 45.48234375 43.91950195 44.19140625 44.30200195 C40.73828125 45.17700195 40.73828125 45.17700195 36.73828125 45.17700195 C37.05152344 45.75192383 37.36476563 46.3268457 37.6875 46.91918945 C38.71275717 49.12215839 39.15074748 50.91938325 39.55078125 53.30200195 C40.66712877 58.67833162 42.85071896 63.51247826 45.73828125 68.17700195 C46.39828125 68.50700195 47.05828125 68.83700195 47.73828125 69.17700195 C47.86328125 72.05200195 47.86328125 72.05200195 47.73828125 75.17700195 C47.07828125 75.83700195 46.41828125 76.49700195 45.73828125 77.17700195 C42.39688982 76.9963862 40.90584273 76.31448829 38.30078125 74.17700195 C35.21584588 71.76924752 33.63848163 71.32700966 29.73828125 71.17700195 C27.41731527 71.65817783 25.15929348 72.22585973 22.88671875 72.8996582 C20.18226629 73.24877843 19.10424212 72.44348689 16.73828125 71.17700195 C14.60540752 70.9377924 14.60540752 70.9377924 12.48828125 71.05200195 C11.25078125 71.09325195 10.01328125 71.13450195 8.73828125 71.17700195 C9.31835938 71.23758789 9.8984375 71.29817383 10.49609375 71.3605957 C11.66785156 71.4862793 11.66785156 71.4862793 12.86328125 71.61450195 C13.68828125 71.7021582 14.51328125 71.78981445 15.36328125 71.88012695 C17.73828125 72.17700195 17.73828125 72.17700195 20.86328125 72.86450195 C23.8831255 73.3828859 23.8831255 73.3828859 27.23828125 72.11450195 C31.39548158 71.00096615 32.94754494 71.19922649 36.73828125 73.17700195 C38.64143178 75.0701359 40.13332457 77.00558997 41.73828125 79.17700195 C39.75828125 80.16700195 37.77828125 81.15700195 35.73828125 82.17700195 C34.62241487 98.17772876 34.63049304 114.14309182 34.73828125 130.17700195 C36.38828125 130.83700195 38.03828125 131.49700195 39.73828125 132.17700195 C39.73828125 132.50700195 39.73828125 132.83700195 39.73828125 133.17700195 C22.90828125 133.17700195 6.07828125 133.17700195 -11.26171875 133.17700195 C-11.26171875 132.84700195 -11.26171875 132.51700195 -11.26171875 132.17700195 C-9.28171875 131.84700195 -7.30171875 131.51700195 -5.26171875 131.17700195 C-5.12894531 130.32235352 -4.99617188 129.46770508 -4.859375 128.5871582 C-4.68277344 127.48243164 -4.50617188 126.37770508 -4.32421875 125.23950195 C-4.15019531 124.13735352 -3.97617188 123.03520508 -3.796875 121.8996582 C-3.26171875 119.17700195 -3.26171875 119.17700195 -2.26171875 118.17700195 C-2.11544782 116.24927929 -2.03428888 114.31654794 -1.98046875 112.3840332 C-1.94308594 111.19616211 -1.90570313 110.00829102 -1.8671875 108.78442383 C-1.83238281 107.53209961 -1.79757813 106.27977539 -1.76171875 104.98950195 C-1.69250587 102.53757169 -1.61970861 100.08573944 -1.54296875 97.6340332 C-1.51267578 96.5406665 -1.48238281 95.4472998 -1.45117188 94.32080078 C-1.26374806 91.21067654 -0.80689029 88.2420166 -0.26171875 85.17700195 C-0.19100283 82.38372301 -0.417573 79.84827898 -1.26171875 77.17700195 C-2.12796875 76.31075195 -2.99421875 75.44450195 -3.88671875 74.55200195 C-4.67046875 73.76825195 -5.45421875 72.98450195 -6.26171875 72.17700195 C-5.93521838 67.08967053 -4.0637318 62.42416227 -2.32421875 57.67700195 C-1.79382343 56.20841346 -1.26386736 54.73966624 -0.734375 53.27075195 C-0.48316895 52.57723633 -0.23196289 51.8837207 0.02685547 51.16918945 C0.97325068 48.51902305 1.86239872 45.85119403 2.73828125 43.17700195 C2.16384277 43.15718262 1.5894043 43.13736328 0.99755859 43.11694336 C-1.63095708 43.02108172 -4.25874366 42.91165321 -6.88671875 42.80200195 C-7.79035156 42.77106445 -8.69398437 42.74012695 -9.625 42.70825195 C-14.55574786 42.49230679 -18.60277472 41.93095735 -23.26171875 40.17700195 C-24.87891504 39.91488757 -26.50514664 39.70032669 -28.13671875 39.55200195 C-28.91789062 39.47723633 -29.6990625 39.4024707 -30.50390625 39.32543945 C-31.08398438 39.27645508 -31.6640625 39.2274707 -32.26171875 39.17700195 C-28.48810173 36.31635679 -24.62489257 33.59838247 -20.734375 30.8996582 C-19.27284074 29.88143291 -17.81884472 28.85198213 -16.3828125 27.7980957 C-14.82421875 26.67700195 -14.82421875 26.67700195 -12.26171875 25.17700195 C-11.27171875 25.50700195 -10.28171875 25.83700195 -9.26171875 26.17700195 C-7.22474258 24.55573521 -5.22357291 22.88840665 -3.26171875 21.17700195 C-2.60171875 21.17700195 -1.94171875 21.17700195 -1.26171875 21.17700195 C-1.26171875 20.51700195 -1.26171875 19.85700195 -1.26171875 19.17700195 C-4.56171875 19.83700195 -7.86171875 20.49700195 -11.26171875 21.17700195 C-10.27171875 20.18700195 -9.28171875 19.19700195 -8.26171875 18.17700195 C-8.59171875 16.52700195 -8.92171875 14.87700195 -9.26171875 13.17700195 C-15.20171875 11.69200195 -15.20171875 11.69200195 -21.26171875 10.17700195 C-20.60171875 10.50700195 -19.94171875 10.83700195 -19.26171875 11.17700195 C-19.26171875 11.50700195 -19.26171875 11.83700195 -19.26171875 12.17700195 C-21.90171875 12.17700195 -24.54171875 12.17700195 -27.26171875 12.17700195 C-23.63171875 12.83700195 -20.00171875 13.49700195 -16.26171875 14.17700195 C-15.93171875 13.51700195 -15.60171875 12.85700195 -15.26171875 12.17700195 C-13.94171875 12.83700195 -12.62171875 13.49700195 -11.26171875 14.17700195 C-11.26171875 14.50700195 -11.26171875 14.83700195 -11.26171875 15.17700195 C-15.84984276 16.34005934 -20.25371986 16.2912759 -24.94921875 16.23950195 C-25.72072266 16.23499023 -26.49222656 16.23047852 -27.28710938 16.22583008 C-29.27867512 16.21365457 -31.27020385 16.19573093 -33.26171875 16.17700195 C-33.92171875 16.17700195 -34.58171875 16.17700195 -35.26171875 16.17700195 C-24.37171875 16.67200195 -24.37171875 16.67200195 -13.26171875 17.17700195 C-13.26171875 17.50700195 -13.26171875 17.83700195 -13.26171875 18.17700195 C-17.28249027 18.23543687 -21.30315134 18.27074435 -25.32421875 18.30200195 C-27.02481445 18.32713867 -27.02481445 18.32713867 -28.75976562 18.3527832 C-34.66211259 18.38719922 -39.70238902 18.22645007 -45.26171875 16.17700195 C-45.59171875 16.50700195 -45.92171875 16.83700195 -46.26171875 17.17700195 C-37.25764371 18.90404055 -28.40206812 19.70250294 -19.26171875 20.17700195 C-19.26171875 20.50700195 -19.26171875 20.83700195 -19.26171875 21.17700195 C-27.40838011 22.98737114 -36.08452411 22.66376461 -44.26171875 21.17700195 C-39.97171875 21.83700195 -35.68171875 22.49700195 -31.26171875 23.17700195 C-32.58171875 24.16700195 -33.90171875 25.15700195 -35.26171875 26.17700195 C-31.96171875 25.84700195 -28.66171875 25.51700195 -25.26171875 25.17700195 C-29.16206156 28.10225906 -32.73259515 29.9633285 -37.13671875 31.92700195 C-37.83152344 32.25571289 -38.52632812 32.58442383 -39.2421875 32.9230957 C-43.65138567 34.89104291 -46.43457468 35.53889213 -51.26171875 34.17700195 C-50.93171875 33.51700195 -50.60171875 32.85700195 -50.26171875 32.17700195 C-47.57421875 31.3605957 -47.57421875 31.3605957 -44.26171875 30.61450195 C-40.45166202 30.02126411 -40.45166202 30.02126411 -37.26171875 28.17700195 C-39.24171875 27.51700195 -41.22171875 26.85700195 -43.26171875 26.17700195 C-43.26171875 26.83700195 -43.26171875 27.49700195 -43.26171875 28.17700195 C-42.60171875 28.50700195 -41.94171875 28.83700195 -41.26171875 29.17700195 C-45.13855962 30.36987607 -48.17793798 31.17700195 -52.26171875 31.17700195 C-52.26171875 31.83700195 -52.26171875 32.49700195 -52.26171875 33.17700195 C-58.94440995 32.89797518 -65.67590417 32.18504659 -71.26171875 28.17700195 C-72.0078125 26.0402832 -72.0078125 26.0402832 -72.26171875 24.17700195 C-70.11609916 23.22339325 -67.97039126 22.269991 -65.82421875 21.31762695 C-64.21830111 20.60279776 -62.61388429 19.88457668 -61.01171875 19.16137695 C-56.23684996 17.012686 -51.42641565 15.04394942 -46.5234375 13.2043457 C-44.23013702 12.26967887 -44.23013702 12.26967887 -42.40551758 10.72460938 C-38.7437487 8.08118005 -34.51883632 6.96010826 -30.26171875 5.55200195 C-29.32215332 5.23859863 -28.38258789 4.92519531 -27.41455078 4.60229492 C-21.41094692 2.67422838 -15.78309021 1.3759863 -9.44140625 1.24731445 C-6.179336 1.14208638 -3.3317317 0.04354433 0 0 Z " fill="#F0F6FA" transform="translate(111.26171875,78.822998046875)"/>
<path d="M0 0 C0 0.66 0 1.32 0 2 C0.556875 2.226875 1.11375 2.45375 1.6875 2.6875 C3.99875145 3.99929136 5.63206658 5.47439403 7.44921875 7.3984375 C8.64193036 8.63020516 9.88376589 9.81454561 11.14453125 10.9765625 C16.66263993 16.15608076 20.11884492 21.01743593 23 28 C23.31839844 28.71414062 23.63679687 29.42828125 23.96484375 30.1640625 C25.86188759 34.69248972 26.3002053 38.19671513 26 43 C25.67 42.34 25.34 41.68 25 41 C23.00016759 40.66566269 21.00012134 40.33260445 19 40 C16.08270595 39.0270817 13.23644812 37.87525195 10.375 36.75 C2.64673339 33.79330938 -5.08538268 31.53245257 -13.14892578 29.68652344 C-16.80513498 28.8417948 -20.14518737 27.94211179 -23.64453125 26.546875 C-36.68319514 21.58947463 -49.86293635 21.57992005 -63.62011719 21.71875 C-66.7859254 21.75035869 -69.9512359 21.75977837 -73.1171875 21.765625 C-75.13542279 21.77477972 -77.15365301 21.78515055 -79.171875 21.796875 C-80.11552917 21.80112488 -81.05918335 21.80537476 -82.03143311 21.80975342 C-82.90374573 21.81936096 -83.77605835 21.82896851 -84.67480469 21.83886719 C-85.82272491 21.84910919 -85.82272491 21.84910919 -86.99383545 21.85955811 C-89.20778077 21.93081296 -89.20778077 21.93081296 -92 23 C-93.62468901 23.05240932 -95.24980039 23.09202494 -96.875 23.125 C-103.20562316 23.59824511 -108.88608349 25.32449083 -114.875 27.3125 C-115.77847168 27.60850098 -116.68194336 27.90450195 -117.61279297 28.20947266 C-122.63580521 29.93604567 -126.60042435 31.97912146 -131 35 C-134.48484065 36.36225589 -138.00435987 37.50141504 -141.5625 38.65625 C-145.11161573 40.0436316 -147.84640809 41.8861482 -151 44 C-153.5546875 44.828125 -153.5546875 44.828125 -155.875 45.25 C-156.65617187 45.39953125 -157.43734375 45.5490625 -158.2421875 45.703125 C-158.82226562 45.80109375 -159.40234375 45.8990625 -160 46 C-160.48824186 39.37174682 -159.30844573 35.61978987 -155.875 30 C-155.46048584 29.29721924 -155.04597168 28.59443848 -154.61889648 27.87036133 C-151.702694 22.99112307 -148.67361579 18.34561867 -145 14 C-144.38898438 13.19949219 -143.77796875 12.39898437 -143.1484375 11.57421875 C-129.52758656 -5.05477065 -107.99803374 -16.5937021 -87 -20 C-85.71996094 -20.2165625 -84.43992187 -20.433125 -83.12109375 -20.65625 C-55.53520313 -24.94535418 -21.49488744 -18.80802651 0 0 Z " fill="#356666" transform="translate(196,58)"/>
<path d="M0 0 C0.92167969 0.42667969 1.84335938 0.85335938 2.79296875 1.29296875 C29.22414557 14.60616121 51.02468508 39.18253629 60.49609375 67.2578125 C61.61849505 70.80690751 62.5937874 74.38226773 63.49609375 77.99316406 C63.95822571 79.83363145 64.46150195 81.66364011 64.96875 83.4921875 C71.75452537 111.20077025 66.22758756 143.21780853 51.75 167.6875 C34.39067677 195.80564334 9.11936725 215.72561483 -23 224 C-24.20398438 224.3196875 -25.40796875 224.639375 -26.6484375 224.96875 C-57.02224172 231.84583775 -89.88584604 225.63761916 -116.14501953 209.203125 C-142.32332437 192.22409286 -160.02830902 167.05605581 -168 137 C-168.47953125 135.33904297 -168.47953125 135.33904297 -168.96875 133.64453125 C-175.31889726 108.09694808 -171.15211001 79.60097699 -160 56 C-159.57332031 55.07832031 -159.14664063 54.15664062 -158.70703125 53.20703125 C-145.29590497 26.58142277 -120.789702 5.15876687 -92.75 -4.75 C-90.17021443 -5.53538364 -87.59872519 -6.28631459 -85 -7 C-84.3208252 -7.19609863 -83.64165039 -7.39219727 -82.94189453 -7.59423828 C-55.57943806 -15.28187537 -25.58767311 -12.0908785 0 0 Z M-126 22 C-126.73734375 22.59167969 -127.4746875 23.18335937 -128.234375 23.79296875 C-147.92799796 40.16940344 -158.95740633 64.40765858 -164 89 C-164.1743457 89.78334717 -164.34869141 90.56669434 -164.52832031 91.3737793 C-168.87337591 115.56620324 -163.55833848 142.06368571 -151 163 C-150.65066406 163.60344238 -150.30132812 164.20688477 -149.94140625 164.82861328 C-144.644388 173.92619363 -138.33126233 181.48188391 -131 189 C-130.35675781 189.71671875 -129.71351563 190.4334375 -129.05078125 191.171875 C-113.14488892 208.42338512 -85.78246405 219.98220113 -62.53735352 221.12060547 C-49.98477118 221.48457328 -38.17196332 221.30991985 -26 218 C-24.625 217.65625 -23.25 217.3125 -21.875 216.96875 C6.96013345 209.43113919 30.89081549 190.27346124 46.02001953 164.67724609 C46.50510986 163.84700928 46.50510986 163.84700928 47 163 C47.55558594 162.05769531 48.11117187 161.11539063 48.68359375 160.14453125 C61.45735407 136.6209051 65.2799316 106.37357133 58.05371094 80.64599609 C57.39112277 78.42316401 56.6972628 76.21213353 56 74 C55.53400391 72.33130859 55.53400391 72.33130859 55.05859375 70.62890625 C47.29198711 44.40354839 26.74918258 21.68144556 2.94921875 8.75 C-4.44240354 4.88127519 -11.98554756 1.3621544 -20 -1 C-21.2065625 -1.37125 -22.413125 -1.7425 -23.65625 -2.125 C-59.60663394 -12.16434735 -98.01244218 -1.86356337 -126 22 Z " fill="#386969" transform="translate(180,20)"/>
<path d="M0 0 C0.85940186 -0.01283524 1.71880371 -0.02567047 2.60424805 -0.03889465 C3.535354 -0.04628159 4.46645996 -0.05366852 5.42578125 -0.0612793 C6.39749268 -0.06935104 7.3692041 -0.07742279 8.37036133 -0.08573914 C10.43829567 -0.09958802 12.50625296 -0.11030656 14.57421875 -0.11816406 C16.65501775 -0.1295635 18.73579041 -0.14981825 20.81640625 -0.1796875 C37.18758861 -0.41449853 52.61718401 0.46742667 67.73828125 7.17700195 C70.2062533 7.76758143 72.68712144 8.30577371 75.17578125 8.80200195 C86.78109331 11.28989653 97.72652408 15.83292702 108.73828125 20.17700195 C108.73828125 20.83700195 108.73828125 21.49700195 108.73828125 22.17700195 C102.22553588 27.46654134 96.07104807 31.06596638 87.73828125 32.17700195 C88.72828125 31.68200195 88.72828125 31.68200195 89.73828125 31.17700195 C89.40828125 30.18700195 89.07828125 29.19700195 88.73828125 28.17700195 C91.37828125 28.17700195 94.01828125 28.17700195 96.73828125 28.17700195 C96.73828125 27.51700195 96.73828125 26.85700195 96.73828125 26.17700195 C96.18140625 26.20020508 95.62453125 26.2234082 95.05078125 26.24731445 C89.5621911 26.37711219 85.00894615 25.71028629 79.73828125 24.17700195 C79.73828125 24.83700195 79.73828125 25.49700195 79.73828125 26.17700195 C78.27812834 25.89458555 76.82018332 25.60073582 75.36328125 25.30200195 C74.55117187 25.13958008 73.7390625 24.9771582 72.90234375 24.80981445 C70.73828125 24.17700195 70.73828125 24.17700195 68.73828125 22.17700195 C76.33587605 22.02381606 83.79873012 22.49683575 91.36328125 23.17700195 C92.46285156 23.27239258 93.56242188 23.3677832 94.6953125 23.46606445 C97.37666107 23.6992252 100.05760346 23.93627235 102.73828125 24.17700195 C102.73828125 23.51700195 102.73828125 22.85700195 102.73828125 22.17700195 C102.07828125 22.17700195 101.41828125 22.17700195 100.73828125 22.17700195 C100.73828125 21.51700195 100.73828125 20.85700195 100.73828125 20.17700195 C99.45630859 20.30268555 99.45630859 20.30268555 98.1484375 20.4309082 C97.04371094 20.53274414 95.93898437 20.63458008 94.80078125 20.73950195 C93.69863281 20.84391602 92.59648437 20.94833008 91.4609375 21.0559082 C90.56246094 21.09586914 89.66398438 21.13583008 88.73828125 21.17700195 C88.40828125 20.84700195 88.07828125 20.51700195 87.73828125 20.17700195 C85.06769274 20.03585034 82.41395887 20.13453088 79.73828125 20.17700195 C79.73828125 20.50700195 79.73828125 20.83700195 79.73828125 21.17700195 C78.61808594 21.23758789 77.49789062 21.29817383 76.34375 21.3605957 C74.87108141 21.4450162 73.39842581 21.52966344 71.92578125 21.61450195 C70.81879883 21.67347656 70.81879883 21.67347656 69.68945312 21.73364258 C66.50756783 21.9208123 63.77665747 22.16420988 60.73828125 23.17700195 C57.30980472 23.3712703 53.88779069 23.52215476 50.45507812 23.60668945 C48.07690448 23.68032077 48.07690448 23.68032077 44.73828125 24.17700195 C43.74828125 25.66200195 43.74828125 25.66200195 42.73828125 27.17700195 C43.31578125 27.42450195 43.89328125 27.67200195 44.48828125 27.92700195 C47.03858095 29.34383512 48.75613826 31.05327732 50.73828125 33.17700195 C49.25328125 33.67200195 49.25328125 33.67200195 47.73828125 34.17700195 C48.70765625 34.77512695 49.67703125 35.37325195 50.67578125 35.98950195 C53.73828125 38.17700195 53.73828125 38.17700195 54.73828125 41.17700195 C52.5116036 41.85193537 50.28182148 42.51663239 48.05078125 43.17700195 C46.80941406 43.54825195 45.56804687 43.91950195 44.2890625 44.30200195 C41.23727935 45.05403653 38.84929763 45.36735095 35.73828125 45.17700195 C33.96993965 34.18697813 33.74683915 24.28115353 34.73828125 13.17700195 C19.88828125 12.68200195 19.88828125 12.68200195 4.73828125 12.17700195 C5.72828125 18.61200195 5.72828125 18.61200195 6.73828125 25.17700195 C6.46968489 32.02620926 5.71996937 37.63093381 3.73828125 44.17700195 C-14.51681182 42.32589219 -14.51681182 42.32589219 -21.29296875 40.6184082 C-24.90872978 39.80773162 -28.57707139 39.52792075 -32.26171875 39.17700195 C-28.48810173 36.31635679 -24.62489257 33.59838247 -20.734375 30.8996582 C-19.27284074 29.88143291 -17.81884472 28.85198213 -16.3828125 27.7980957 C-14.82421875 26.67700195 -14.82421875 26.67700195 -12.26171875 25.17700195 C-11.27171875 25.50700195 -10.28171875 25.83700195 -9.26171875 26.17700195 C-7.22474258 24.55573521 -5.22357291 22.88840665 -3.26171875 21.17700195 C-2.60171875 21.17700195 -1.94171875 21.17700195 -1.26171875 21.17700195 C-1.26171875 20.51700195 -1.26171875 19.85700195 -1.26171875 19.17700195 C-4.56171875 19.83700195 -7.86171875 20.49700195 -11.26171875 21.17700195 C-10.27171875 20.18700195 -9.28171875 19.19700195 -8.26171875 18.17700195 C-8.59171875 16.52700195 -8.92171875 14.87700195 -9.26171875 13.17700195 C-15.20171875 11.69200195 -15.20171875 11.69200195 -21.26171875 10.17700195 C-20.60171875 10.50700195 -19.94171875 10.83700195 -19.26171875 11.17700195 C-19.26171875 11.50700195 -19.26171875 11.83700195 -19.26171875 12.17700195 C-21.90171875 12.17700195 -24.54171875 12.17700195 -27.26171875 12.17700195 C-23.63171875 12.83700195 -20.00171875 13.49700195 -16.26171875 14.17700195 C-15.93171875 13.51700195 -15.60171875 12.85700195 -15.26171875 12.17700195 C-13.94171875 12.83700195 -12.62171875 13.49700195 -11.26171875 14.17700195 C-11.26171875 14.50700195 -11.26171875 14.83700195 -11.26171875 15.17700195 C-15.84984276 16.34005934 -20.25371986 16.2912759 -24.94921875 16.23950195 C-25.72072266 16.23499023 -26.49222656 16.23047852 -27.28710938 16.22583008 C-29.27867512 16.21365457 -31.27020385 16.19573093 -33.26171875 16.17700195 C-33.92171875 16.17700195 -34.58171875 16.17700195 -35.26171875 16.17700195 C-24.37171875 16.67200195 -24.37171875 16.67200195 -13.26171875 17.17700195 C-13.26171875 17.50700195 -13.26171875 17.83700195 -13.26171875 18.17700195 C-17.28249027 18.23543687 -21.30315134 18.27074435 -25.32421875 18.30200195 C-27.02481445 18.32713867 -27.02481445 18.32713867 -28.75976562 18.3527832 C-34.66211259 18.38719922 -39.70238902 18.22645007 -45.26171875 16.17700195 C-45.59171875 16.50700195 -45.92171875 16.83700195 -46.26171875 17.17700195 C-37.25764371 18.90404055 -28.40206812 19.70250294 -19.26171875 20.17700195 C-19.26171875 20.50700195 -19.26171875 20.83700195 -19.26171875 21.17700195 C-27.40838011 22.98737114 -36.08452411 22.66376461 -44.26171875 21.17700195 C-39.97171875 21.83700195 -35.68171875 22.49700195 -31.26171875 23.17700195 C-32.58171875 24.16700195 -33.90171875 25.15700195 -35.26171875 26.17700195 C-31.96171875 25.84700195 -28.66171875 25.51700195 -25.26171875 25.17700195 C-29.16206156 28.10225906 -32.73259515 29.9633285 -37.13671875 31.92700195 C-37.83152344 32.25571289 -38.52632812 32.58442383 -39.2421875 32.9230957 C-43.65138567 34.89104291 -46.43457468 35.53889213 -51.26171875 34.17700195 C-50.93171875 33.51700195 -50.60171875 32.85700195 -50.26171875 32.17700195 C-47.57421875 31.3605957 -47.57421875 31.3605957 -44.26171875 30.61450195 C-40.45166202 30.02126411 -40.45166202 30.02126411 -37.26171875 28.17700195 C-39.24171875 27.51700195 -41.22171875 26.85700195 -43.26171875 26.17700195 C-43.26171875 26.83700195 -43.26171875 27.49700195 -43.26171875 28.17700195 C-42.60171875 28.50700195 -41.94171875 28.83700195 -41.26171875 29.17700195 C-45.13855962 30.36987607 -48.17793798 31.17700195 -52.26171875 31.17700195 C-52.26171875 31.83700195 -52.26171875 32.49700195 -52.26171875 33.17700195 C-58.94440995 32.89797518 -65.67590417 32.18504659 -71.26171875 28.17700195 C-72.0078125 26.0402832 -72.0078125 26.0402832 -72.26171875 24.17700195 C-70.11609916 23.22339325 -67.97039126 22.269991 -65.82421875 21.31762695 C-64.21830111 20.60279776 -62.61388429 19.88457668 -61.01171875 19.16137695 C-56.23684996 17.012686 -51.42641565 15.04394942 -46.5234375 13.2043457 C-44.23013702 12.26967887 -44.23013702 12.26967887 -42.40551758 10.72460938 C-38.7437487 8.08118005 -34.51883632 6.96010826 -30.26171875 5.55200195 C-29.32215332 5.23859863 -28.38258789 4.92519531 -27.41455078 4.60229492 C-21.41094692 2.67422838 -15.78309021 1.3759863 -9.44140625 1.24731445 C-6.179336 1.14208638 -3.3317317 0.04354433 0 0 Z " fill="#A8ACAE" transform="translate(111.26171875,78.822998046875)"/>
<path d="M0 0 C1.25537238 3.76611714 0.90421786 7.09593203 0.66796875 10.9921875 C0.59025242 12.60018651 0.51413013 14.20826322 0.43945312 15.81640625 C0.31786739 18.34784585 0.18735769 20.87728095 0.02954102 23.40673828 C-0.11946428 25.85137874 -0.22896944 28.29523475 -0.33203125 30.7421875 C-0.3880098 31.49442596 -0.44398834 32.24666443 -0.50166321 33.021698 C-0.63816052 37.1145294 -0.17405647 38.79011497 2.46459961 41.97192383 C6.38907829 44.7090553 10.24202448 44.72991454 14.8984375 44.70703125 C15.73339752 44.72215256 16.56835754 44.73727386 17.42861938 44.75285339 C20.07769025 44.79560836 22.72561901 44.80455619 25.375 44.8125 C27.17841552 44.83565393 28.98180407 44.86102113 30.78515625 44.88867188 C35.19020458 44.95140322 39.59454465 44.98383377 44 45 C36.89074146 52.27897311 27.97627535 56.21742166 18.625 59.875 C17.86429199 60.17317627 17.10358398 60.47135254 16.31982422 60.77856445 C12.22484737 62.32668744 8.37236765 63.45865924 4 64 C3.3125 61.6875 3.3125 61.6875 3 59 C4.375 57.4375 4.375 57.4375 6 56 C6.33 54.68 6.66 53.36 7 52 C-11.15 52 -29.3 52 -48 52 C-48 53.65 -48 55.3 -48 57 C-50.47330734 58.90560861 -52.07009662 60.10884048 -55 61 C-58.46958318 60.35120998 -61.34532679 58.78529316 -64.4375 57.125 C-65.24509766 56.72796875 -66.05269531 56.3309375 -66.88476562 55.921875 C-72.31223851 53.17533755 -77.39976381 50.00207044 -82 46 C-82 45.67 -82 45.34 -82 45 C-80.5162085 44.970271 -80.5162085 44.970271 -79.00244141 44.93994141 C-75.33827923 44.86396544 -71.67451836 44.77523648 -68.01074219 44.68261719 C-66.42390862 44.64429415 -64.83698719 44.60944712 -63.25 44.578125 C-60.97103434 44.53254569 -58.69267532 44.47454162 -56.4140625 44.4140625 C-55.70255035 44.40251129 -54.99103821 44.39096008 -54.25796509 44.37905884 C-50.17896343 44.36591761 -50.17896343 44.36591761 -47 42 C-46.01 42.33 -45.02 42.66 -44 43 C-44.99 43.495 -44.99 43.495 -46 44 C-29.83 44 -13.66 44 3 44 C1.68 43.34 0.36 42.68 -1 42 C-2.33529638 39.32940725 -2.12960471 37.27321256 -2.1328125 34.28515625 C-2.13410156 33.12306641 -2.13539063 31.96097656 -2.13671875 30.76367188 C-2.13285156 29.54228516 -2.12898438 28.32089844 -2.125 27.0625 C-2.12886719 25.87591797 -2.13273437 24.68933594 -2.13671875 23.46679688 C-2.11559232 4.23118465 -2.11559232 4.23118465 0 0 Z " fill="#416F6E" transform="translate(147,167)"/>
<path d="M0 0 C3 2.375 3 2.375 5 5 C7.16620544 6.29519995 7.16620544 6.29519995 9 7 C9 7.66 9 8.32 9 9 C3.125 7.125 3.125 7.125 2 6 C0.865625 5.855625 -0.26875 5.71125 -1.4375 5.5625 C-5 5 -5 5 -7 3 C-7.33 3.66 -7.66 4.32 -8 5 C-8.66 5 -9.32 5 -10 5 C-8.73542969 5.45439453 -8.73542969 5.45439453 -7.4453125 5.91796875 C-6.34960938 6.33691406 -5.25390625 6.75585938 -4.125 7.1875 C-3.03445312 7.59355469 -1.94390625 7.99960938 -0.8203125 8.41796875 C2.51503088 10.28890236 2.91941582 11.43407221 4 15 C4.99 15.99 4.99 15.99 6 17 C2.7 17.66 -0.6 18.32 -4 19 C-3.01 18.01 -2.02 17.02 -1 16 C-1.495 13.525 -1.495 13.525 -2 11 C-7.94 9.515 -7.94 9.515 -14 8 C-13.34 8.33 -12.68 8.66 -12 9 C-12 9.33 -12 9.66 -12 10 C-14.64 10 -17.28 10 -20 10 C-16.37 10.66 -12.74 11.32 -9 12 C-8.67 11.34 -8.34 10.68 -8 10 C-6.68 10.66 -5.36 11.32 -4 12 C-4 12.33 -4 12.66 -4 13 C-8.58812401 14.16305738 -12.99200111 14.11427395 -17.6875 14.0625 C-18.45900391 14.05798828 -19.23050781 14.05347656 -20.02539062 14.04882812 C-22.01695637 14.03665261 -24.0084851 14.01872898 -26 14 C-26.66 14 -27.32 14 -28 14 C-17.11 14.495 -17.11 14.495 -6 15 C-6 15.33 -6 15.66 -6 16 C-10.02077152 16.05843491 -14.04143259 16.0937424 -18.0625 16.125 C-19.7630957 16.15013672 -19.7630957 16.15013672 -21.49804688 16.17578125 C-27.40039384 16.21019727 -32.44067027 16.04944811 -38 14 C-38.33 14.33 -38.66 14.66 -39 15 C-29.99592496 16.7270386 -21.14034937 17.52550099 -12 18 C-12 18.33 -12 18.66 -12 19 C-20.14666136 20.81036919 -28.82280536 20.48676266 -37 19 C-32.71 19.66 -28.42 20.32 -24 21 C-25.32 21.99 -26.64 22.98 -28 24 C-24.7 23.67 -21.4 23.34 -18 23 C-21.90034281 25.92525711 -25.4708764 27.78632654 -29.875 29.75 C-30.56980469 30.07871094 -31.26460937 30.40742187 -31.98046875 30.74609375 C-36.38966692 32.71404096 -39.17285593 33.36189018 -44 32 C-43.67 31.34 -43.34 30.68 -43 30 C-40.3125 29.18359375 -40.3125 29.18359375 -37 28.4375 C-33.18994327 27.84426216 -33.18994327 27.84426216 -30 26 C-31.98 25.34 -33.96 24.68 -36 24 C-36 24.66 -36 25.32 -36 26 C-35.34 26.33 -34.68 26.66 -34 27 C-37.87684087 28.19287411 -40.91621923 29 -45 29 C-45 29.66 -45 30.32 -45 31 C-51.6826912 30.72097323 -58.41418542 30.00804463 -64 26 C-64.74609375 23.86328125 -64.74609375 23.86328125 -65 22 C-62.85438041 21.04639129 -60.70867251 20.09298905 -58.5625 19.140625 C-56.95658236 18.4257958 -55.35216554 17.70757472 -53.75 16.984375 C-48.97513121 14.83568404 -44.1646969 12.86694747 -39.26171875 11.02734375 C-36.96881098 10.09253059 -36.96881098 10.09253059 -35.14379883 8.54980469 C-26.73609637 2.47167062 -10.13787181 -2.5696689 0 0 Z " fill="#E4EAED" transform="translate(104,81)"/>
<path d="M0 0 C2.08473947 0.45189439 4.16775036 0.91176825 6.25 1.375 C7.41015625 1.63023438 8.5703125 1.88546875 9.765625 2.1484375 C12.46052401 2.85796405 14.59525832 3.63096389 17 5 C17 5.66 17 6.32 17 7 C17.99 7.33 18.98 7.66 20 8 C19.34 8 18.68 8 18 8 C18.495 9.485 18.495 9.485 19 11 C19.66 11 20.32 11 21 11 C22.32 11 23.64 11 25 11 C25 11.66 25 12.32 25 13 C23.35546875 14.54296875 23.35546875 14.54296875 21.1875 16.1875 C20.47980469 16.73792969 19.77210937 17.28835937 19.04296875 17.85546875 C18.36878906 18.23316406 17.69460937 18.61085938 17 19 C15.515 18.505 15.515 18.505 14 18 C12.13387178 18.86483606 12.13387178 18.86483606 10.27734375 20.2734375 C9.57416016 20.7684375 8.87097656 21.2634375 8.14648438 21.7734375 C7.41751953 22.30195312 6.68855469 22.83046875 5.9375 23.375 C4.48886178 24.40446322 3.03966862 25.43314613 1.58984375 26.4609375 C0.94909912 26.92290527 0.30835449 27.38487305 -0.35180664 27.86083984 C-2 29 -2 29 -4 30 C-2.45859034 30.31376521 -0.91685785 30.62594465 0.625 30.9375 C1.48351562 31.11152344 2.34203125 31.28554687 3.2265625 31.46484375 C9.08682025 32.59562588 14.94883963 33.38450708 20.875 34.0625 C21.65875 34.15337891 22.4425 34.24425781 23.25 34.33789062 C25.16651283 34.55992565 27.08323547 34.78014839 29 35 C28.03745029 42.05316601 25.89163155 48.20972426 22.94482422 54.64477539 C21.12540813 58.82699022 20.5219847 61.63455397 22 66 C23.31310227 67.02642107 24.64628803 68.02776459 26 69 C28.43470223 76.75645573 26.32124268 84.48546861 24 92 C23.67 92 23.34 92 23 92 C22.91629076 88.06566583 23.0570077 84.39575894 23.625 80.5 C24.13420178 76.22997934 23.58785677 73.04903477 22 69 C21.46375 68.34 20.9275 67.68 20.375 67 C18.1871165 63.817624 18.5155113 61.81534848 19 58 C20.11698971 55.24818243 21.38466727 52.60218011 22.6875 49.93359375 C24.69779857 45.44033713 25.8634189 40.77733683 27 36 C26.32195312 36.01160156 25.64390625 36.02320313 24.9453125 36.03515625 C8.39130435 36.19565217 8.39130435 36.19565217 4 34 C1.994318 33.9247085 -0.0116745 33.85369642 -2.01831055 33.81079102 C-10.84768774 33.5889205 -17.13791594 32.19582724 -25 28 C-28.08683116 26.88449122 -31.20545689 26.1426103 -34.4375 25.5625 C-44.06187291 23.44983278 -44.06187291 23.44983278 -46.375 19.875 C-46.58125 19.25625 -46.7875 18.6375 -47 18 C-47.66 17.67 -48.32 17.34 -49 17 C-48.01 16.67 -47.02 16.34 -46 16 C-45.835 16.598125 -45.67 17.19625 -45.5 17.8125 C-42.32872006 22.43728325 -35.71244895 23.12872131 -30.5 24.1875 C-29.0012433 24.46513114 -27.5016453 24.73844293 -26 25 C-26 24.34 -26 23.68 -26 23 C-23.03 22.01 -20.06 21.02 -17 20 C-17 19.34 -17 18.68 -17 18 C-14.69 18.33 -12.38 18.66 -10 19 C-12.5061033 22.75915495 -13.81949803 22.72563254 -18.125 23.6875 C-19.22070312 23.93886719 -20.31640625 24.19023438 -21.4453125 24.44921875 C-22.28835937 24.63097656 -23.13140625 24.81273438 -24 25 C-20.31447003 26.43367867 -18.069083 25.8276355 -14.57421875 24.34765625 C-12.93900936 23.5995645 -11.31020125 22.83734945 -9.6875 22.0625 C-8.85154297 21.67642578 -8.01558594 21.29035156 -7.15429688 20.89257812 C-5.09693158 19.9403119 -3.04621189 18.9759443 -1 18 C-2.258125 18.20625 -3.51625 18.4125 -4.8125 18.625 C-8.4014758 19.21335669 -8.75073878 19.16617415 -12 17 C-10.68 16.67 -9.36 16.34 -8 16 C-8.55985596 15.91959473 -9.11971191 15.83918945 -9.6965332 15.75634766 C-12.23640115 15.38707514 -14.77439215 15.00617432 -17.3125 14.625 C-18.19357422 14.49867187 -19.07464844 14.37234375 -19.98242188 14.2421875 C-20.82998047 14.11328125 -21.67753906 13.984375 -22.55078125 13.8515625 C-23.72120972 13.67874756 -23.72120972 13.67874756 -24.9152832 13.50244141 C-27 13 -27 13 -30 11 C-27.58299013 11.14129287 -25.16649571 11.28786487 -22.75 11.4375 C-21.72712891 11.49647461 -21.72712891 11.49647461 -20.68359375 11.55664062 C-15.44425539 11.88727848 -15.44425539 11.88727848 -12.90625 12.53125 C-10.17292415 13.20337931 -7.55782505 13.09301984 -4.75 13.0625 C-3.67234375 13.05347656 -2.5946875 13.04445313 -1.484375 13.03515625 C-0.25460938 13.01775391 -0.25460938 13.01775391 1 13 C-0.01320312 12.87882812 -1.02640625 12.75765625 -2.0703125 12.6328125 C-3.4219151 12.46386217 -4.77347542 12.29457331 -6.125 12.125 C-7.12273437 12.00705078 -7.12273437 12.00705078 -8.140625 11.88671875 C-12.30378644 11.35611974 -16.06671292 10.45813446 -20 9 C-19.67 8.34 -19.34 7.68 -19 7 C-14.05 7.99 -14.05 7.99 -9 9 C-10.32 8.34 -11.64 7.68 -13 7 C-10.45863381 5.72931691 -9.6808375 6.27923205 -7 7 C-4.15612055 7.09516919 -1.34287159 7.13947982 1.5 7.125 C2.25925781 7.12886719 3.01851562 7.13273437 3.80078125 7.13671875 C7.37014456 7.13046768 10.56731602 6.96340936 14 6 C12.68 6 11.36 6 10 6 C4.29415206 5.59490203 -1.3750789 5.06417426 -7 4 C-7 3.67 -7 3.34 -7 3 C-3.37 3 0.26 3 4 3 C2.68 2.34 1.36 1.68 0 1 C0 0.67 0 0.34 0 0 Z " fill="#959F9B" transform="translate(85,87)"/>
<path d="M0 0 C2.5625 1.6875 2.5625 1.6875 4.5625 4.6875 C4.90573612 8.3944501 4.85291516 10.97759627 3.4375 14.4375 C0.22523732 18.29221522 -2.7441456 19.4798625 -7.71875 20.08984375 C-10.95828619 20.3468939 -14.19095539 20.54781188 -17.4375 20.6875 C-16.4475 22.6675 -15.4575 24.6475 -14.4375 26.6875 C-12.85426312 26.714693 -11.27088938 26.73398306 -9.6875 26.75 C-8.80578125 26.76160156 -7.9240625 26.77320313 -7.015625 26.78515625 C-4.6556162 26.69576198 -2.69251476 26.35662821 -0.4375 25.6875 C-0.4375 27.9975 -0.4375 30.3075 -0.4375 32.6875 C-5.98012596 36.19032706 -13.15640115 35.37022814 -19.4375 34.6875 C-22.43522674 33.35289563 -23.35264968 32.32422246 -25.4375 29.6875 C-27.6535294 23.03941179 -27.63996654 15.08388439 -24.5 8.75 C-18.61289027 -0.23820697 -10.09788165 -3.85555481 0 0 Z " fill="#386A69" transform="translate(187.4375,168.3125)"/>
<path d="M0 0 C1.30066406 0.00386719 2.60132813 0.00773438 3.94140625 0.01171875 C7.08685081 0.28233242 8.82054656 0.64111243 11.4375 2.3125 C10.7775 4.2925 10.1175 6.2725 9.4375 8.3125 C5.34324741 9.36908131 1.52003611 9.361044 -2.671875 9.25 C-4.57513957 9.09735355 -4.57513957 9.09735355 -5.5625 10.3125 C-6.05402438 12.65821804 -6.05402438 12.65821804 -5.5625 15.3125 C-3.45366959 17.77129921 -3.45366959 17.77129921 -0.6875 19.9375 C6.19643651 25.68391994 6.19643651 25.68391994 6.7734375 29.58203125 C6.86195142 35.34428724 6.46531955 38.8492405 2.4375 43.3125 C-1.74558912 46.47238747 -4.94506764 46.69187102 -10.125 46.625 C-11.42566406 46.62113281 -12.72632812 46.61726563 -14.06640625 46.61328125 C-17.21185081 46.34266758 -18.94554656 45.98388757 -21.5625 44.3125 C-21.5625 41.6725 -21.5625 39.0325 -21.5625 36.3125 C-20.85609375 36.47492188 -20.1496875 36.63734375 -19.421875 36.8046875 C-16.49144105 37.32511976 -13.78602867 37.44553656 -10.8125 37.4375 C-9.84828125 37.44007813 -8.8840625 37.44265625 -7.890625 37.4453125 C-5.60199859 37.57389398 -5.60199859 37.57389398 -4.5625 36.3125 C-4.07155412 33.46579587 -4.07155412 33.46579587 -4.5625 30.3125 C-6.65058391 27.79027514 -6.65058391 27.79027514 -9.4375 25.6875 C-15.25983448 20.95996346 -15.25983448 20.95996346 -16.5625 17.3125 C-17.02475901 12.53582358 -17.06223779 10.29346677 -14.875 6 C-10.3936454 0.79193925 -6.80158457 -0.08780596 0 0 Z " fill="#386969" transform="translate(84.5625,156.6875)"/>
<path d="M0 0 C2 1 2 1 3.8125 2.875 C6.05216939 5.05067884 8.27997779 6.48887655 11 8 C10.67 9.32 10.34 10.64 10 12 C8.35 12 6.7 12 5 12 C6.18269987 15.19328965 7.20541579 16.14672556 10.0625 18.1875 C12.62483747 20.26625907 13.53673202 21.731874 14.0625 25 C14.39644795 31.16760113 12.61437079 37.09888192 11 43 C-7.25509307 41.14889024 -7.25509307 41.14889024 -14.03125 39.44140625 C-17.64701103 38.63072967 -21.31535264 38.3509188 -25 38 C-21.22638298 35.13935484 -17.36317382 32.42138052 -13.47265625 29.72265625 C-12.01112199 28.70443096 -10.55712597 27.67498018 -9.12109375 26.62109375 C-7.5625 25.5 -7.5625 25.5 -5 24 C-4.01 24.33 -3.02 24.66 -2 25 C0.03697617 23.37873325 2.03814584 21.71140469 4 20 C4.66 20 5.32 20 6 20 C6 19.01 6 18.02 6 17 C5.01 16.67 4.02 16.34 3 16 C2.9278125 15.38382813 2.855625 14.76765625 2.78125 14.1328125 C2.12686028 11.58376559 2.12686028 11.58376559 -1.34375 10.3671875 C-2.72344092 9.85412325 -4.10925443 9.35729525 -5.5 8.875 C-12.88337989 6.23324022 -12.88337989 6.23324022 -14 4 C-11.03 4.495 -11.03 4.495 -8 5 C-7.67 4.01 -7.34 3.02 -7 2 C-6.01 3.485 -6.01 3.485 -5 5 C-3.948125 5.144375 -2.89625 5.28875 -1.8125 5.4375 C2.73239399 6.10805813 5.15436622 7.56704802 9 10 C7.50011061 7.00022122 4.94840874 6.44411857 2 5 C1.34 4.34 0.68 3.68 0 3 C0 2.01 0 1.02 0 0 Z " fill="#9FA2A4" transform="translate(104,80)"/>
<path d="M0 0 C6.43823468 0.5625642 11.9559787 2.69524038 17.9375 5.0625 C19.3925293 5.62807617 19.3925293 5.62807617 20.87695312 6.20507812 C23.25397143 7.13012466 25.62811317 8.06189182 28 9 C28 9.66 28 10.32 28 11 C21.48725463 16.28953939 15.33276682 19.88896442 7 21 C7.66 20.67 8.32 20.34 9 20 C8.505 18.515 8.505 18.515 8 17 C10.64 17 13.28 17 16 17 C16 16.34 16 15.68 16 15 C15.443125 15.02320312 14.88625 15.04640625 14.3125 15.0703125 C8.82390985 15.20011024 4.2706649 14.53328434 -1 13 C-1 13.66 -1 14.32 -1 15 C-2.46015291 14.71758359 -3.91809793 14.42373386 -5.375 14.125 C-6.18710938 13.96257812 -6.99921875 13.80015625 -7.8359375 13.6328125 C-10 13 -10 13 -12 11 C-4.4024052 10.84681411 3.06044887 11.3198338 10.625 12 C11.72457031 12.09539062 12.82414062 12.19078125 13.95703125 12.2890625 C16.63837982 12.52222324 19.31932221 12.7592704 22 13 C22 12.34 22 11.68 22 11 C21.34 11 20.68 11 20 11 C20 10.34 20 9.68 20 9 C19.14535156 9.08378906 18.29070312 9.16757813 17.41015625 9.25390625 C16.30542969 9.35574219 15.20070312 9.45757812 14.0625 9.5625 C12.40927734 9.71912109 12.40927734 9.71912109 10.72265625 9.87890625 C9.37494141 9.93884766 9.37494141 9.93884766 8 10 C7.505 9.505 7.505 9.505 7 9 C4.32941149 8.85884839 1.67567762 8.95752893 -1 9 C-1 9.33 -1 9.66 -1 10 C-2.12019531 10.06058594 -3.24039063 10.12117188 -4.39453125 10.18359375 C-5.86719984 10.26801424 -7.33985544 10.35266149 -8.8125 10.4375 C-9.91948242 10.49647461 -9.91948242 10.49647461 -11.04882812 10.55664062 C-14.23071342 10.74381035 -16.96162378 10.98720793 -20 12 C-23.42847653 12.19426834 -26.85049056 12.3451528 -30.28320312 12.4296875 C-32.66137677 12.50331881 -32.66137677 12.50331881 -36 13 C-36.99 14.485 -36.99 14.485 -38 16 C-37.4225 16.2475 -36.845 16.495 -36.25 16.75 C-33.6997003 18.16683317 -31.98214299 19.87627537 -30 22 C-30.66 22.33 -31.32 22.66 -32 23 C-33.46484375 21.73046875 -34.9296875 20.4609375 -36.39453125 19.19140625 C-38.10712971 17.79128769 -38.10712971 17.79128769 -41 17 C-41.33 16.34 -41.66 15.68 -42 15 C-42.99 15 -43.98 15 -45 15 C-45 11.04 -45 7.08 -45 3 C-43.68 3.33 -42.36 3.66 -41 4 C-38.81296615 3.62092718 -38.81296615 3.62092718 -37 3 C-37 3.66 -37 4.32 -37 5 C-33.41383443 7.26122755 -30.54715149 7.15068719 -26.375 7 C-22.8984375 6.875 -22.8984375 6.875 -20 7 C-19.34 7.66 -18.68 8.32 -18 9 C-17.19304687 8.68289062 -16.38609375 8.36578125 -15.5546875 8.0390625 C-11.35299039 6.81087411 -7.4764935 6.55200991 -3.125 6.375 C-2.34125 6.33632812 -1.5575 6.29765625 -0.75 6.2578125 C1.16631367 6.16433378 3.08312319 6.08111505 5 6 C2.36 5.67 -0.28 5.34 -3 5 C-3 4.67 -3 4.34 -3 4 C-0.69 4 1.62 4 4 4 C4 3.34 4 2.68 4 2 C2.68 2 1.36 2 0 2 C0 1.34 0 0.68 0 0 Z " fill="#EAF0F4" transform="translate(192,90)"/>
<path d="M0 0 C35.97 0 71.94 0 109 0 C104.83977823 3.32817741 101.58190348 5.24046464 96.75 7.0625 C95.7585498 7.44547241 95.7585498 7.44547241 94.74707031 7.83618164 C92.83543581 8.56881907 90.91889865 9.2866432 89 10 C88.05125 10.35835937 87.1025 10.71671875 86.125 11.0859375 C80.40768621 13.1358954 80.40768621 13.1358954 77 12 C77.75 7.25 77.75 7.25 80 5 C80.33 3.68 80.66 2.36 81 1 C62.85 1 44.7 1 26 1 C26 2.65 26 4.3 26 6 C23.50814492 7.96102571 21.98622998 9.14240231 19 10 C15.36614149 9.20868989 12.31064118 7.52350978 9.0625 5.75 C8.18787109 5.30269531 7.31324219 4.85539063 6.41210938 4.39453125 C4.25949845 3.28881853 2.12499921 2.15764645 0 1 C0 0.67 0 0.34 0 0 Z " fill="#799893" transform="translate(73,218)"/>
<path d="M0 0 C0.78020508 0.00410889 1.56041016 0.00821777 2.36425781 0.01245117 C3.23477783 0.01374023 4.10529785 0.0150293 5.00219727 0.01635742 C6.39571411 0.03569336 6.39571411 0.03569336 7.81738281 0.05541992 C9.2292688 0.06508789 9.2292688 0.06508789 10.66967773 0.07495117 C18.16573557 0.15678447 25.60214642 0.54030944 33.06738281 1.24291992 C32.9537602 2.72300402 32.82615373 4.20202066 32.69238281 5.68041992 C32.58796875 6.91598633 32.58796875 6.91598633 32.48144531 8.17651367 C32.34480469 8.85842773 32.20816406 9.5403418 32.06738281 10.24291992 C31.40738281 10.57291992 30.74738281 10.90291992 30.06738281 11.24291992 C30.06738281 8.93291992 30.06738281 6.62291992 30.06738281 4.24291992 C29.73738281 6.55291992 29.40738281 8.86291992 29.06738281 11.24291992 C26.24326516 12.18429247 24.53820249 12.36017375 21.61816406 12.34057617 C20.77060547 12.33735352 19.92304688 12.33413086 19.04980469 12.33081055 C18.16873047 12.32243164 17.28765625 12.31405273 16.37988281 12.30541992 C15.48720703 12.3009082 14.59453125 12.29639648 13.67480469 12.29174805 C11.47230208 12.27996996 9.26983396 12.26203473 7.06738281 12.24291992 C7.39738281 15.54291992 7.72738281 18.84291992 8.06738281 22.24291992 C1.81738281 17.84838867 1.81738281 17.84838867 0.06738281 16.24291992 C0.06738281 15.25291992 0.06738281 14.26291992 0.06738281 13.24291992 C1.71738281 12.91291992 3.36738281 12.58291992 5.06738281 12.24291992 C5.02782384 10.3198257 5.02782384 10.3198257 4.06738281 8.24291992 C2.09322013 7.19283339 0.09155416 6.19304116 -1.93261719 5.24291992 C-2.59261719 4.25291992 -3.25261719 3.26291992 -3.93261719 2.24291992 C-1.93261719 0.24291992 -1.93261719 0.24291992 0 0 Z " fill="#ADB1B3" transform="translate(108.9326171875,78.757080078125)"/>
<path d="M0 0 C0 0.66 0 1.32 0 2 C0.78761719 1.97679688 1.57523438 1.95359375 2.38671875 1.9296875 C10.4629548 1.79588004 18.0600053 2.54455089 26 4 C24.68 4.99 23.36 5.98 22 7 C25.3 6.67 28.6 6.34 32 6 C28.09965719 8.92525711 24.5291236 10.78632654 20.125 12.75 C19.43019531 13.07871094 18.73539063 13.40742187 18.01953125 13.74609375 C13.61033308 15.71404096 10.82714407 16.36189018 6 15 C6.33 14.34 6.66 13.68 7 13 C9.6875 12.18359375 9.6875 12.18359375 13 11.4375 C16.81005673 10.84426216 16.81005673 10.84426216 20 9 C18.02 8.34 16.04 7.68 14 7 C14 7.66 14 8.32 14 9 C14.66 9.33 15.32 9.66 16 10 C12.12315913 11.19287411 9.08378077 12 5 12 C5 12.66 5 13.32 5 14 C-1.6826912 13.72097323 -8.41418542 13.00804463 -14 9 C-14.74609375 6.86328125 -14.74609375 6.86328125 -15 5 C-14.37351563 4.72285156 -13.74703125 4.44570312 -13.1015625 4.16015625 C-12.28429688 3.79792969 -11.46703125 3.43570313 -10.625 3.0625 C-9.81289063 2.70285156 -9.00078125 2.34320313 -8.1640625 1.97265625 C-3.7751004 0 -3.7751004 0 0 0 Z " fill="#EBF1F4" transform="translate(54,98)"/>
<path d="M0 0 C2.08473947 0.45189439 4.16775036 0.91176825 6.25 1.375 C7.41015625 1.63023438 8.5703125 1.88546875 9.765625 2.1484375 C12.46052401 2.85796405 14.59525832 3.63096389 17 5 C17 5.66 17 6.32 17 7 C17.99 7.33 18.98 7.66 20 8 C19.34 8 18.68 8 18 8 C18.495 9.485 18.495 9.485 19 11 C17.68 11.33 16.36 11.66 15 12 C15 13.32 15 14.64 15 16 C13.41796875 17.45703125 13.41796875 17.45703125 11.1875 18.8125 C10.37152344 19.31652344 9.55554688 19.82054688 8.71484375 20.33984375 C7.81894531 20.88769531 6.92304687 21.43554688 6 22 C5.05253906 22.64066406 4.10507813 23.28132813 3.12890625 23.94140625 C2.17886719 24.57949219 1.22882813 25.21757813 0.25 25.875 C-0.63171875 26.47054687 -1.5134375 27.06609375 -2.421875 27.6796875 C-5.22047037 29.11290755 -6.90326711 29.27848317 -10 29 C-10 29.66 -10 30.32 -10 31 C-15.75 30.125 -15.75 30.125 -18 29 C-18 28.34 -18 27.68 -18 27 C-17.23816406 26.69707031 -16.47632812 26.39414063 -15.69140625 26.08203125 C-3.31167152 21.16121614 -3.31167152 21.16121614 7 13 C6.39526855 12.9498877 5.79053711 12.89977539 5.16748047 12.84814453 C2.40261836 12.61469552 -0.36113367 12.36994583 -3.125 12.125 C-4.07632813 12.04636719 -5.02765625 11.96773437 -6.0078125 11.88671875 C-10.94633821 11.44087962 -15.35191009 10.86236599 -20 9 C-19.67 8.34 -19.34 7.68 -19 7 C-15.7 7.66 -12.4 8.32 -9 9 C-10.32 8.34 -11.64 7.68 -13 7 C-10.45863381 5.72931691 -9.6808375 6.27923205 -7 7 C-4.15612055 7.09516919 -1.34287159 7.13947982 1.5 7.125 C2.63888672 7.13080078 2.63888672 7.13080078 3.80078125 7.13671875 C7.37014456 7.13046768 10.56731602 6.96340936 14 6 C12.68 6 11.36 6 10 6 C4.29415206 5.59490203 -1.3750789 5.06417426 -7 4 C-7 3.67 -7 3.34 -7 3 C-3.37 3 0.26 3 4 3 C2.68 2.34 1.36 1.68 0 1 C0 0.67 0 0.34 0 0 Z " fill="#A6A9AB" transform="translate(85,87)"/>
<path d="M0 0 C2.64590014 -0.02684679 5.29153096 -0.04676357 7.9375 -0.0625 C8.69224609 -0.07087891 9.44699219 -0.07925781 10.22460938 -0.08789062 C12.14994313 -0.09652441 14.07535581 -0.05224333 16 0 C16.495 0.495 16.495 0.495 17 1 C19.01964199 1.07244053 21.04167124 1.08377188 23.0625 1.0625 C24.16722656 1.05347656 25.27195313 1.04445313 26.41015625 1.03515625 C27.69212891 1.01775391 27.69212891 1.01775391 29 1 C29 1.66 29 2.32 29 3 C29.66 3 30.32 3 31 3 C31 3.66 31 4.32 31 5 C25.1945627 5.10470729 19.47418842 5.00473572 13.6875 4.5 C1.7046568 3.21539116 1.7046568 3.21539116 -10 5 C-12.22574335 5.22451458 -14.45581519 5.40782878 -16.6875 5.5625 C-17.86699219 5.64628906 -19.04648438 5.73007813 -20.26171875 5.81640625 C-21.16535156 5.87699219 -22.06898438 5.93757813 -23 6 C-20.525 6.99 -20.525 6.99 -18 8 C-18 7.34 -18 6.68 -18 6 C-10.47279173 6.55757098 -3.21908599 8.24078344 2.625 13.25 C3.07875 13.8275 3.5325 14.405 4 15 C1.33333333 14.33333333 -1.33333333 13.66666667 -4 13 C-3.01 14.32 -2.02 15.64 -1 17 C-1.556875 16.690625 -2.11375 16.38125 -2.6875 16.0625 C-5.12540433 14.94238179 -7.36224186 14.43962636 -10 14 C-8.68 15.65 -7.36 17.3 -6 19 C-10.97209562 17.23570801 -15.43438061 14.6060834 -20 12 C-19.236875 12.598125 -18.47375 13.19625 -17.6875 13.8125 C-15.6516425 15.46959332 -13.8021721 17.10297674 -12 19 C-13.98 18.34 -15.96 17.68 -18 17 C-17.34 18.32 -16.68 19.64 -16 21 C-18.97 19.02 -21.94 17.04 -25 15 C-24.01 14.67 -23.02 14.34 -22 14 C-22.66229729 10.9104054 -22.66229729 10.9104054 -24.9375 9.875 C-25.9584375 9.441875 -25.9584375 9.441875 -27 9 C-27.66 8.67 -28.32 8.34 -29 8 C-28.46484375 6.0390625 -28.46484375 6.0390625 -27 4 C-24.40419579 3.57707086 -22.16642219 3.39859058 -19.5625 3.375 C-18.11570171 3.32684956 -16.66906938 3.27343387 -15.22265625 3.21484375 C-14.50867676 3.18632324 -13.79469727 3.15780273 -13.05908203 3.12841797 C-8.63906371 2.8527564 -4.31885803 1.94246266 0 1 C0 0.67 0 0.34 0 0 Z " fill="#97999B" transform="translate(183,98)"/>
<path d="M0 0 C0 0.66 0 1.32 0 2 C1.32 2.33 2.64 2.66 4 3 C3.01 3.99 2.02 4.98 1 6 C5.95 4.515 5.95 4.515 11 3 C11 3.66 11 4.32 11 5 C10.01 5.495 10.01 5.495 9 6 C13.95 4.515 13.95 4.515 19 3 C19.495 4.485 19.495 4.485 20 6 C21.32 6 22.64 6 24 6 C24.495 7.485 24.495 7.485 25 9 C27.97 9.33 30.94 9.66 34 10 C34 10.33 34 10.66 34 11 C33.24380371 11.01981934 32.48760742 11.03963867 31.70849609 11.06005859 C28.26366282 11.15564572 24.81940799 11.26518891 21.375 11.375 C20.18519531 11.4059375 18.99539062 11.436875 17.76953125 11.46875 C16.61582031 11.50742188 15.46210938 11.54609375 14.2734375 11.5859375 C13.21560059 11.6173584 12.15776367 11.6487793 11.06787109 11.68115234 C7.80234457 12.02054257 5.09619132 12.93850875 2 14 C-0.24169922 14.22705078 -0.24169922 14.22705078 -2.3046875 14.1953125 C-3.42617187 14.18564453 -3.42617187 14.18564453 -4.5703125 14.17578125 C-5.33085937 14.15902344 -6.09140625 14.14226562 -6.875 14.125 C-8.050625 14.11146484 -8.050625 14.11146484 -9.25 14.09765625 C-11.16680055 14.07428063 -13.08344191 14.03841653 -15 14 C-15 13.67 -15 13.34 -15 13 C-10.05 12.67 -5.1 12.34 0 12 C-2.083125 12.04125 -4.16625 12.0825 -6.3125 12.125 C-12.625 12.25 -12.625 12.25 -16 10 C-16.33 9.01 -16.66 8.02 -17 7 C-16.40832031 6.74605469 -15.81664062 6.49210937 -15.20703125 6.23046875 C-11.72069356 4.71194972 -8.37817646 3.23019437 -5.125 1.25 C-3 0 -3 0 0 0 Z " fill="#AFB3B5" transform="translate(172,86)"/>
<path d="M0 0 C10.79647233 -0.48342413 20.12012554 1.68878206 30 6 C33.97661837 7.10237902 37.98006241 8.06927553 42 9 C42 9.33 42 9.66 42 10 C40.43840941 10.48212214 38.87568072 10.96055873 37.3125 11.4375 C36.44238281 11.70433594 35.57226562 11.97117187 34.67578125 12.24609375 C32.12974079 12.96344529 29.5996577 13.517541 27 14 C30.625 11 30.625 11 34 11 C34 10.34 34 9.68 34 9 C30.7 10.32 27.4 11.64 24 13 C24 10 24 10 25 9 C24.34 8.67 23.68 8.34 23 8 C23 7.34 23 6.68 23 6 C22.49210937 6.25394531 21.98421875 6.50789063 21.4609375 6.76953125 C20.03124763 7.48437619 18.60018453 8.19647935 17.16796875 8.90625 C15.32181885 9.83764094 13.50149474 10.81993684 11.6875 11.8125 C9 13 9 13 6 12 C8.64 10.02 11.28 8.04 14 6 C10.76524552 7.61737724 9.29427979 8.47629223 7 11 C6.01 10.67 5.02 10.34 4 10 C4.99 8.02 5.98 6.04 7 4 C7.66 4 8.32 4 9 4 C9 3.34 9 2.68 9 2 C4.4505002 3.352554 3.31196852 4.97918518 1 9 C-0.98 9.99 -0.98 9.99 -3 11 C-2.01 7.37 -1.02 3.74 0 0 Z " fill="#E7EDF0" transform="translate(149,80)"/>
<path d="M0 0 C0 0.66 0 1.32 0 2 C-0.99 2.495 -0.99 2.495 -2 3 C-0.906875 3.28875 0.18625 3.5775 1.3125 3.875 C5 5 5 5 8 7 C9.54766142 7.5827119 11.11192222 8.12264187 12.6875 8.625 C13.49574219 8.88539062 14.30398437 9.14578125 15.13671875 9.4140625 C16.05904297 9.70410156 16.05904297 9.70410156 17 10 C14.86265125 12.13734875 13.76067516 12.55619135 10.9375 13.4375 C8.49088319 14.20722214 6.0611558 14.97761352 3.65234375 15.859375 C-0.98033122 17.54398408 -5.02398042 18.8781211 -10 18 C-12.4375 15 -12.4375 15 -14 12 C-12.68 12.33 -11.36 12.66 -10 13 C-12.31 11.35 -14.62 9.7 -17 8 C-16.34 7.67 -15.68 7.34 -15 7 C-12.3984375 8.21484375 -12.3984375 8.21484375 -9.375 9.9375 C-7.87066406 10.78634766 -7.87066406 10.78634766 -6.3359375 11.65234375 C-5.56507813 12.09707031 -4.79421875 12.54179688 -4 13 C-4.66 12.34 -5.32 11.68 -6 11 C-5.67 10.34 -5.34 9.68 -5 9 C-0.25 9.875 -0.25 9.875 2 11 C0.68 9.68 -0.64 8.36 -2 7 C0.76276177 7.52268466 3.3260876 8.10869587 6 9 C-0.19479329 6.05223604 -6.38757278 3.82221376 -13 2 C-13 2.66 -13 3.32 -13 4 C-16.37462715 3.45276317 -18.08235 2.9451 -21 1 C-18.43761495 0.83138242 -15.87511576 0.66504227 -13.3125 0.5 C-12.59126953 0.45230469 -11.87003906 0.40460938 -11.12695312 0.35546875 C-7.41171286 0.11796481 -3.72305126 -0.05874637 0 0 Z " fill="#E8EEF1" transform="translate(178,102)"/>
<path d="M0 0 C1.32 0.33 2.64 0.66 4 1 C6.18703385 0.62092718 6.18703385 0.62092718 8 0 C8 0.66 8 1.32 8 2 C11.58616557 4.26122755 14.45284851 4.15068719 18.625 4 C22.1015625 3.875 22.1015625 3.875 25 4 C25.66 4.66 26.32 5.32 27 6 C27.78375 5.67 28.5675 5.34 29.375 5 C33.99361869 3.72589829 38.24249356 3.83076064 43 4 C43.495 5.485 43.495 5.485 44 7 C42.87980469 7.06058594 41.75960937 7.12117188 40.60546875 7.18359375 C39.13280016 7.26801424 37.66014456 7.35266149 36.1875 7.4375 C35.08051758 7.49647461 35.08051758 7.49647461 33.95117188 7.55664062 C30.76928658 7.74381035 28.03837622 7.98720793 25 9 C21.57152347 9.19426834 18.14950944 9.3451528 14.71679688 9.4296875 C12.33862323 9.50331881 12.33862323 9.50331881 9 10 C8.01 11.485 8.01 11.485 7 13 C7.5775 13.2475 8.155 13.495 8.75 13.75 C11.3002997 15.16683317 13.01785701 16.87627537 15 19 C14.34 19.33 13.68 19.66 13 20 C11.53515625 18.73046875 10.0703125 17.4609375 8.60546875 16.19140625 C6.89287029 14.79128769 6.89287029 14.79128769 4 14 C3.67 13.34 3.34 12.68 3 12 C2.01 12 1.02 12 0 12 C0 8.04 0 4.08 0 0 Z " fill="#E5EAEE" transform="translate(147,93)"/>
<path d="M0 0 C8.25 0 16.5 0 25 0 C19.37081141 4.50335087 19.37081141 4.50335087 15.75 5.88671875 C14.58984375 6.3343457 14.58984375 6.3343457 13.40625 6.79101562 C12.6121875 7.08685547 11.818125 7.38269531 11 7.6875 C10.2059375 7.99494141 9.411875 8.30238281 8.59375 8.61914062 C4.7578619 10.07997468 1.07876962 11.38325056 -3 12 C-3.125 9.625 -3.125 9.625 -3 7 C-2.34 6.34 -1.68 5.68 -1 5 C-0.67 3.35 -0.34 1.7 0 0 Z " fill="#A2C1AD" transform="translate(155,219)"/>
<path d="M0 0 C5.2584002 0.67415387 10.02638346 2.24265549 15 4 C15 3.34 15 2.68 15 2 C16.7015625 2.2165625 16.7015625 2.2165625 18.4375 2.4375 C22.95353056 3.00301367 27.47547181 3.50774809 32 4 C32 4.66 32 5.32 32 6 C29.69 6.33 27.38 6.66 25 7 C24.67 8.32 24.34 9.64 24 11 C19.81224969 12.19541236 17.40284297 11.75758204 13.375 10.1875 C12.43398437 9.83042969 11.49296875 9.47335938 10.5234375 9.10546875 C8 8 8 8 5 6 C3.01200182 5.29835358 1.01301483 4.62627128 -1 4 C-0.01 3.67 0.98 3.34 2 3 C2 2.34 2 1.68 2 1 C1.34 0.67 0.68 0.34 0 0 Z " fill="#CACED2" transform="translate(176,101)"/>
<path d="M0 0 C1.70824133 -0.02735618 3.41661405 -0.04655506 5.125 -0.0625 C6.07632813 -0.07410156 7.02765625 -0.08570312 8.0078125 -0.09765625 C11.10168725 0.00331877 13.95254227 0.46221334 17 1 C19.95468141 1.38583349 22.91458682 1.72380866 25.875 2.0625 C26.65875 2.15337891 27.4425 2.24425781 28.25 2.33789062 C30.16651283 2.55992565 32.08323547 2.78014839 34 3 C33.03745029 10.05316601 30.89163155 16.20972426 27.94482422 22.64477539 C26.12540813 26.82699022 25.5219847 29.63455397 27 34 C28.31310227 35.02642107 29.64628803 36.02776459 31 37 C33.43470223 44.75645573 31.32124268 52.48546861 29 60 C28.67 60 28.34 60 28 60 C27.91629076 56.06566583 28.0570077 52.39575894 28.625 48.5 C29.13420178 44.22997934 28.58785677 41.04903477 27 37 C26.46375 36.34 25.9275 35.68 25.375 35 C23.1871165 31.817624 23.5155113 29.81534848 24 26 C25.11698971 23.24818243 26.38466727 20.60218011 27.6875 17.93359375 C29.69779857 13.44033713 30.8634189 8.77733683 32 4 C30.98292969 4.01740234 30.98292969 4.01740234 29.9453125 4.03515625 C13.39130435 4.19565217 13.39130435 4.19565217 9 2 C7.46331135 1.77532169 5.92031946 1.59203195 4.375 1.4375 C3.55773437 1.35371094 2.74046875 1.26992187 1.8984375 1.18359375 C1.27195312 1.12300781 0.64546875 1.06242187 0 1 C0 0.67 0 0.34 0 0 Z " fill="#85988D" transform="translate(80,119)"/>
<path d="M0 0 C0.66 0.33 1.32 0.66 2 1 C1.65066406 1.55429688 1.30132812 2.10859375 0.94140625 2.6796875 C0.48636719 3.40414062 0.03132812 4.12859375 -0.4375 4.875 C-0.88996094 5.59429687 -1.34242188 6.31359375 -1.80859375 7.0546875 C-4.02325584 10.67075871 -4.19203356 13.04713589 -4.25 17.3125 C-4.27578125 18.44300781 -4.3015625 19.57351562 -4.328125 20.73828125 C-3.96633911 24.33460524 -3.16729109 26.13917576 -1 29 C2.92052115 31.43943538 6.43388734 32.45641516 11 33 C11 33.33 11 33.66 11 34 C0.71904015 34.9116122 0.71904015 34.9116122 -3.3203125 32.76953125 C-7.01852564 29.63610798 -8.78677654 27.3594399 -9.23828125 22.36328125 C-9.42389933 14.73340128 -8.69217069 9.27789749 -3.62109375 3.40234375 C-2.46322266 2.21808243 -1.23789133 1.10034785 0 0 Z " fill="#F0F4F3" transform="translate(166,171)"/>
<path d="M0 0 C0.66 0 1.32 0 2 0 C0.36041242 5.23272633 -1.38952035 10.15196636 -4 15 C-3.54625 14.38125 -3.0925 13.7625 -2.625 13.125 C-1 11 -1 11 1 9 C0.67 11.64 0.34 14.28 0 17 C-2.08304538 17.05418326 -4.16649768 17.09287551 -6.25 17.125 C-7.41015625 17.14820312 -8.5703125 17.17140625 -9.765625 17.1953125 C-12.82786046 17.0103949 -14.44202751 16.60823023 -17 15 C-15.73657512 13.51450044 -14.4639897 12.03678811 -13.1875 10.5625 C-12.12595703 9.32693359 -12.12595703 9.32693359 -11.04296875 8.06640625 C-9 6 -9 6 -6 5 C-6.54723683 8.37462715 -7.0549 10.08235 -9 13 C-8.67 13 -8.34 13 -8 13 C-6.79591975 11.04336959 -5.63683558 9.05895102 -4.5 7.0625 C-1.09264305 1.09264305 -1.09264305 1.09264305 0 0 Z " fill="#EBF1F4" transform="translate(114,104)"/>
<path d="M0 0 C0.74362793 0.01047363 1.48725586 0.02094727 2.25341797 0.03173828 C3.46191406 0.04140625 3.46191406 0.04140625 4.69482422 0.05126953 C5.95746094 0.07640625 5.95746094 0.07640625 7.24560547 0.10205078 C8.51984375 0.11558594 8.51984375 0.11558594 9.81982422 0.12939453 C11.9202043 0.15299431 14.02043991 0.18886595 16.12060547 0.22705078 C16.45060547 3.52705078 16.78060547 6.82705078 17.12060547 10.22705078 C12.53022591 9.07945589 11.78391364 7.9366586 9.12060547 4.22705078 C10.11060547 5.71205078 10.11060547 5.71205078 11.12060547 7.22705078 C10.79060547 8.21705078 10.46060547 9.20705078 10.12060547 10.22705078 C8.14060547 7.58705078 6.16060547 4.94705078 4.12060547 2.22705078 C4.59498047 2.99017578 5.06935547 3.75330078 5.55810547 4.53955078 C7.12060547 7.22705078 7.12060547 7.22705078 8.12060547 10.22705078 C6.78727214 9.56038411 5.4539388 8.89371745 4.12060547 8.22705078 C2.57373047 7.51548828 2.57373047 7.51548828 0.99560547 6.78955078 C-1.87939453 5.22705078 -1.87939453 5.22705078 -3.87939453 2.22705078 C-1.87939453 0.22705078 -1.87939453 0.22705078 0 0 Z " fill="#E9EEF2" transform="translate(108.87939453125,78.77294921875)"/>
<path d="M0 0 C9.4847587 -0.34490032 18.82500601 1.00669835 28.20263672 2.30493164 C32.08534081 2.82963337 35.19795205 3.06932599 39 2 C35.38422473 5.03500308 31.39975116 6.84401004 27.125 8.75 C26.43019531 9.07871094 25.73539063 9.40742187 25.01953125 9.74609375 C20.61033308 11.71404096 17.82714407 12.36189018 13 11 C13.33 10.34 13.66 9.68 14 9 C16.6875 8.18359375 16.6875 8.18359375 20 7.4375 C23.81005673 6.84426216 23.81005673 6.84426216 27 5 C25.02 4.34 23.04 3.68 21 3 C21 3.66 21 4.32 21 5 C15.39 5.66 9.78 6.32 4 7 C4 6.34 4 5.68 4 5 C7.3 4.34 10.6 3.68 14 3 C7.07 2.505 7.07 2.505 0 2 C0 1.34 0 0.68 0 0 Z " fill="#B1B5B8" transform="translate(47,102)"/>
<path d="M0 0 C2 1 2 1 3.8125 2.875 C6.05216939 5.05067884 8.27997779 6.48887655 11 8 C10.67 9.32 10.34 10.64 10 12 C8.35 12 6.7 12 5 12 C6.5830577 16.2742558 9.50568404 18.26531794 13 21 C9.70777318 21 8.97280347 20.58504415 6.375 18.75 C5.76398438 18.33234375 5.15296875 17.9146875 4.5234375 17.484375 C3 16 3 16 2.7578125 14.0234375 C2.10607814 11.57722583 2.10607814 11.57722583 -1.34375 10.3671875 C-2.72344092 9.85412325 -4.10925443 9.35729525 -5.5 8.875 C-12.88337989 6.23324022 -12.88337989 6.23324022 -14 4 C-11.03 4.495 -11.03 4.495 -8 5 C-7.67 4.01 -7.34 3.02 -7 2 C-6.01 3.485 -6.01 3.485 -5 5 C-3.948125 5.144375 -2.89625 5.28875 -1.8125 5.4375 C2.73239399 6.10805813 5.15436622 7.56704802 9 10 C7.50011061 7.00022122 4.94840874 6.44411857 2 5 C1.34 4.34 0.68 3.68 0 3 C0 2.01 0 1.02 0 0 Z " fill="#A9ADAF" transform="translate(104,80)"/>
<path d="M0 0 C5.75 4.625 5.75 4.625 8 8 C7.67 7.01 7.34 6.02 7 5 C7.66 5 8.32 5 9 5 C9.66 6.32 10.32 7.64 11 9 C11.33 9 11.66 9 12 9 C11.34 7.35 10.68 5.7 10 4 C16.70212766 5.93617021 16.70212766 5.93617021 19 9 C19 9.66 19 10.32 19 11 C16.75376301 11.69969682 14.50283586 12.38435043 12.25 13.0625 C10.99703125 13.44535156 9.7440625 13.82820313 8.453125 14.22265625 C5.3261992 14.92656828 3.90533954 15.16653785 1 14 C1 11.69 1 9.38 1 7 C2.32 7.99 3.64 8.98 5 10 C4.6390625 9.52949219 4.278125 9.05898437 3.90625 8.57421875 C3.4421875 7.95160156 2.978125 7.32898438 2.5 6.6875 C2.0359375 6.07261719 1.571875 5.45773438 1.09375 4.82421875 C0 3 0 3 0 0 Z " fill="#E7EDF1" transform="translate(147,109)"/>
<path d="M0 0 C7.52720827 0.55757098 14.78091401 2.24078344 20.625 7.25 C21.07875 7.8275 21.5325 8.405 22 9 C19.33333333 8.33333333 16.66666667 7.66666667 14 7 C14.99 8.32 15.98 9.64 17 11 C16.443125 10.690625 15.88625 10.38125 15.3125 10.0625 C12.87459567 8.94238179 10.63775814 8.43962636 8 8 C9.32 9.65 10.64 11.3 12 13 C7.89160936 11.54997977 4.49655387 9.6020866 1 7 C1 6.34 1 5.68 1 5 C-0.32 4.34 -1.64 3.68 -3 3 C-2.01 3 -1.02 3 0 3 C0 2.01 0 1.02 0 0 Z " fill="#B1B5B7" transform="translate(165,104)"/>
<path d="M0 0 C0 0.66 0 1.32 0 2 C1.32 2.33 2.64 2.66 4 3 C2.32382616 4.92759992 1.40227852 5.90534623 -1.125 6.5 C-1.74375 6.665 -2.3625 6.83 -3 7 C-3.33 7.99 -3.66 8.98 -4 10 C-5.32 10 -6.64 10 -8 10 C-8 10.66 -8 11.32 -8 12 C-10.64 11.67 -13.28 11.34 -16 11 C-16.33 9.68 -16.66 8.36 -17 7 C-16.40832031 6.74605469 -15.81664062 6.49210937 -15.20703125 6.23046875 C-11.72069356 4.71194972 -8.37817646 3.23019437 -5.125 1.25 C-3 0 -3 0 0 0 Z " fill="#B7BABD" transform="translate(172,86)"/>
<path d="M0 0 C5.28 0 10.56 0 16 0 C15.4140625 6.93359375 15.4140625 6.93359375 15 9 C14.01 9.495 14.01 9.495 13 10 C13 7.69 13 5.38 13 3 C12.67 5.31 12.34 7.62 12 10 C9.5625 9.625 9.5625 9.625 7 9 C6.67 8.34 6.34 7.68 6 7 C5.67 7.66 5.34 8.32 5 9 C4.01 9 3.02 9 2 9 C0.50178941 5.62902617 0 3.79557881 0 0 Z " fill="#D8DDE0" transform="translate(126,80)"/>
<path d="M0 0 C7.26 0 14.52 0 22 0 C21 5 21 5 19.5 7 C15.94697981 8.42120808 13.88097434 7.36888325 10.39453125 6.0390625 C6.84532817 4.49895154 3.42276421 2.80473022 0 1 C0 0.67 0 0.34 0 0 Z " fill="#A3C2AF" transform="translate(75,219)"/>
<path d="M0 0 C2.50696229 0.95091673 3.94401245 1.93801378 5.75 3.9375 C7.65587019 8.60688196 7.65879185 13.02911605 7 18 C4.96209411 21.91277931 2.34772965 23.89806701 -1.78515625 25.5078125 C-6.44901791 26.5442262 -11.25423419 26.21040341 -16 26 C-16 25.67 -16 25.34 -16 25 C-14.91332031 24.85304687 -14.91332031 24.85304687 -13.8046875 24.703125 C-7.88960723 23.78825925 -3.55800458 22.97364502 1 19 C3.74553754 14.57873782 3.56308046 10.05140297 3 5 C1.68772566 1.96534298 1.68772566 1.96534298 0 0 Z " fill="#EEF3F1" transform="translate(87,179)"/>
<path d="M0 0 C-12.58252427 9 -12.58252427 9 -20 9 C-20 9.66 -20 10.32 -20 11 C-17.78821316 10.0910465 -15.58084776 9.1731717 -13.375 8.25 C-12.75753906 7.99734375 -12.14007813 7.7446875 -11.50390625 7.484375 C-7.31059392 5.71876981 -3.71525772 3.62925931 0 1 C0.66 1.33 1.32 1.66 2 2 C0.58680023 3.12935196 -0.83071405 4.25330626 -2.25 5.375 C-3.03890625 6.00148438 -3.8278125 6.62796875 -4.640625 7.2734375 C-8.57792461 10.15470642 -11.08559926 11.27302226 -16 11 C-16 11.66 -16 12.32 -16 13 C-21.75 12.125 -21.75 12.125 -24 11 C-24 10.34 -24 9.68 -24 9 C-23.23816406 8.69707031 -22.47632812 8.39414063 -21.69140625 8.08203125 C-15.79613975 5.69006919 -10.24709233 3.18348014 -4.83984375 -0.1796875 C-3 -1 -3 -1 0 0 Z " fill="#E6ECEF" transform="translate(91,105)"/>
<path d="M0 0 C0 0.33 0 0.66 0 1 C-2.24886238 1.50509208 -4.49913869 2.00389179 -6.75 2.5 C-8.62945312 2.91765625 -8.62945312 2.91765625 -10.546875 3.34375 C-14 4 -14 4 -18 4 C-17.85295666 12.82260034 -14.29818649 20.70181351 -8 27 C-7.5 29.8125 -7.5 29.8125 -8 33 C-9.83395941 35.05254178 -11.72902444 36.39139231 -14 38 C-14.33 37.34 -14.66 36.68 -15 36 C-14.360625 35.62875 -13.72125 35.2575 -13.0625 34.875 C-10.36141928 32.41947207 -10.31592995 30.55421195 -10 27 C-10.61746094 26.74863281 -11.23492187 26.49726563 -11.87109375 26.23828125 C-15.70509051 24.00823176 -16.62429812 20.05350841 -18 16 C-19.13491202 11.69216374 -20.10956313 7.3644898 -21 3 C-13.84224277 0.71387222 -7.51806849 -0.44032071 0 0 Z " fill="#899A90" transform="translate(169,121)"/>
<path d="M0 0 C0.495 1.485 0.495 1.485 1 3 C-9.74712242 11.52576838 -20.28831274 15.65616214 -33.375 19.3125 C-34.32673096 19.57949707 -35.27846191 19.84649414 -36.2590332 20.12158203 C-40.94085703 21.37773153 -45.10491959 22.35198739 -50 22 C-50 21.67 -50 21.34 -50 21 C-49.08476562 20.80664062 -48.16953125 20.61328125 -47.2265625 20.4140625 C-46.03804687 20.15367188 -44.84953125 19.89328125 -43.625 19.625 C-41.84996094 19.24214844 -41.84996094 19.24214844 -40.0390625 18.8515625 C-36.91803033 18.24476035 -36.91803033 18.24476035 -35 16 C-32.52126222 15.26470814 -30.07264115 14.60451188 -27.5625 14 C-22.02833801 12.66011657 -22.02833801 12.66011657 -17 10 C-16.13375 9.7525 -15.2675 9.505 -14.375 9.25 C-10.4172677 7.78417322 -7.37737686 5.67643457 -3.953125 3.2421875 C-2 2 -2 2 0 2 C0 1.34 0 0.68 0 0 Z " fill="#8B9C93" transform="translate(220,99)"/>
<path d="M0 0 C7.26 0 14.52 0 22 0 C22.33 1.65 22.66 3.3 23 5 C19.77776902 7.05051062 16.54883159 8.66003993 13.01953125 10.11328125 C10.62438907 11.16492008 8.32310912 12.3604056 6 13.5625 C2.03726581 15.57416323 -1.6841861 16.96795755 -6 18 C-6 17.34 -6 16.68 -6 16 C-5.13117188 15.68546875 -4.26234375 15.3709375 -3.3671875 15.046875 C5.34571555 11.98305758 5.34571555 11.98305758 13 7 C13 6.01 13 5.02 13 4 C13.66 3.34 14.32 2.68 15 2 C10.05 1.67 5.1 1.34 0 1 C0 0.67 0 0.34 0 0 Z " fill="#BBBFC2" transform="translate(77,98)"/>
<path d="M0 0 C2.64590014 -0.02684679 5.29153096 -0.04676357 7.9375 -0.0625 C8.69224609 -0.07087891 9.44699219 -0.07925781 10.22460938 -0.08789062 C12.14994313 -0.09652441 14.07535581 -0.05224333 16 0 C16.33 0.33 16.66 0.66 17 1 C19.01964199 1.07244053 21.04167124 1.08377188 23.0625 1.0625 C24.16722656 1.05347656 25.27195313 1.04445313 26.41015625 1.03515625 C27.26480469 1.02355469 28.11945313 1.01195313 29 1 C29 1.66 29 2.32 29 3 C29.66 3 30.32 3 31 3 C31 3.66 31 4.32 31 5 C22.94641862 5.14525497 15.02124152 4.71413279 7 4 C7 3.34 7 2.68 7 2 C4.69 1.67 2.38 1.34 0 1 C0 0.67 0 0.34 0 0 Z " fill="#A7ABAD" transform="translate(183,98)"/>
<path d="M0 0 C0 0.66 0 1.32 0 2 C-1.64453125 3.54296875 -1.64453125 3.54296875 -3.8125 5.1875 C-4.52019531 5.73792969 -5.22789063 6.28835937 -5.95703125 6.85546875 C-6.63121094 7.23316406 -7.30539063 7.61085938 -8 8 C-8.99 7.67 -9.98 7.34 -11 7 C-12.83339702 7.84847565 -12.83339702 7.84847565 -14.65234375 9.23828125 C-15.34650391 9.72876953 -16.04066406 10.21925781 -16.75585938 10.72460938 C-17.47580078 11.24861328 -18.19574219 11.77261719 -18.9375 12.3125 C-20.36171108 13.33162494 -21.78744571 14.34862481 -23.21484375 15.36328125 C-23.84511475 15.82001221 -24.47538574 16.27674316 -25.12475586 16.74731445 C-28.73661741 19.16008123 -30.5241353 20 -35 20 C-35 19.34 -35 18.68 -35 18 C-33.80375 17.71125 -32.6075 17.4225 -31.375 17.125 C-24.03323576 14.74039498 -18.07878124 9.60880569 -12 5 C-12.33 4.34 -12.66 3.68 -13 3 C-11.58603098 2.49242138 -10.16868271 1.99425075 -8.75 1.5 C-7.96109375 1.2215625 -7.1721875 0.943125 -6.359375 0.65625 C-4 0 -4 0 0 0 Z " fill="#AAAEB0" transform="translate(110,98)"/>
<path d="M0 0 C0.66 0.33 1.32 0.66 2 1 C1.01 1.33 0.02 1.66 -1 2 C-1.70151152 3.3153341 -2.36525925 4.65117592 -3 6 C-4.88964785 8.13612366 -6.58360724 9.38907149 -9 11 C-7.35 10.67 -5.7 10.34 -4 10 C-4 10.66 -4 11.32 -4 12 C-5.32 12.33 -6.64 12.66 -8 13 C-8 13.66 -8 14.32 -8 15 C-11.96 14.67 -15.92 14.34 -20 14 C-13.48676755 9.11507566 -6.80138307 4.47459412 0 0 Z " fill="#E8EDF1" transform="translate(99,104)"/>
<path d="M0 0 C1.43793392 0.31049726 2.8753318 0.6234776 4.3125 0.9375 C5.11300781 1.11152344 5.91351563 1.28554687 6.73828125 1.46484375 C9 2 9 2 12 3 C12 2.34 12 1.68 12 1 C13.134375 1.144375 14.26875 1.28875 15.4375 1.4375 C19.95353056 2.00301367 24.47547181 2.50774809 29 3 C29 3.66 29 4.32 29 5 C26.36 5 23.72 5 21 5 C21 5.66 21 6.32 21 7 C13.65313537 5.78880323 6.92810652 3.71328887 0 1 C0 0.67 0 0.34 0 0 Z " fill="#B0B4B7" transform="translate(179,102)"/>
<path d="M0 0 C0.33 0.99 0.66 1.98 1 3 C2.32796291 3.35412344 3.66216607 3.68521554 5 4 C7.66528217 5.87556893 7.97278656 6.84881421 8.5625 10.125 C8.706875 11.07375 8.85125 12.0225 9 13 C9.66 13.33 10.32 13.66 11 14 C10.67 14.66 10.34 15.32 10 16 C8.68 14.68 7.36 13.36 6 12 C6.33 13.65 6.66 15.3 7 17 C3.0189869 13.41708821 0.23130716 8.83449886 -2 4 C-1.34 4 -0.68 4 0 4 C-0.99 3.01 -1.98 2.02 -3 1 C-2.01 0.67 -1.02 0.34 0 0 Z " fill="#A6A9AB" transform="translate(150,104)"/>
<path d="M0 0 C1.30892449 4.402746 1.30892449 4.402746 0.0625 6.8125 C-3.23218112 8.70943762 -6.24238464 8.18480076 -10 8 C-9.16513153 2.15592068 -5.85032849 -0.6500365 0 0 Z " fill="#A2C0AF" transform="translate(182,174)"/>
<path d="M0 0 C0.66 0.33 1.32 0.66 2 1 C1.67 5.29 1.34 9.58 1 14 C2.32 14.66 3.64 15.32 5 16 C4.67 16.66 4.34 17.32 4 18 C3.34 17.67 2.68 17.34 2 17 C2.61454696 20.99455527 4.70646737 23.74466336 7 27 C6.67 27.66 6.34 28.32 6 29 C5.01 27.68 4.02 26.36 3 25 C3 27.31 3 29.62 3 32 C2.34 32 1.68 32 1 32 C-0.75523606 21.09142546 -1.08207557 10.99622738 0 0 Z " fill="#BCC3C3" transform="translate(146,92)"/>
<path d="M0 0 C6.16356805 1.6658292 11.48259656 4.87805286 17 8 C17 8.66 17 9.32 17 10 C13.3435672 11.21881093 10.83710078 11.4712229 7 11 C4.5625 8 4.5625 8 3 5 C4.32 5.33 5.64 5.66 7 6 C6.4946875 5.65066406 5.989375 5.30132812 5.46875 4.94140625 C4.49421875 4.25884766 4.49421875 4.25884766 3.5 3.5625 C2.8503125 3.11003906 2.200625 2.65757813 1.53125 2.19140625 C1.0259375 1.79824219 0.520625 1.40507813 0 1 C0 0.67 0 0.34 0 0 Z " fill="#E1E7EA" transform="translate(161,109)"/>
<path d="M0 0 C0.33 0 0.66 0 1 0 C1.02684312 2.81256281 1.04676188 5.62487241 1.0625 8.4375 C1.07087891 9.23994141 1.07925781 10.04238281 1.08789062 10.86914062 C1.0965143 12.91295221 1.0522815 14.95683902 1 17 C0.67 17.33 0.34 17.66 0 18 C-0.39569108 20.01311449 -0.74252191 22.03597208 -1.0625 24.0625 C-1.23910156 25.16722656 -1.41570312 26.27195313 -1.59765625 27.41015625 C-1.73042969 28.26480469 -1.86320312 29.11945313 -2 30 C-2.99 30 -3.98 30 -5 30 C-4.79503906 29.05640625 -4.59007813 28.1128125 -4.37890625 27.140625 C-2.8534686 19.87107525 -1.63755309 12.82592525 -1.2109375 5.390625 C-1 3 -1 3 0 0 Z " fill="#90A098" transform="translate(109,180)"/>
<path d="M0 0 C2 2 2 2 2.046875 4.57421875 C1.50294695 10.27830635 0.85183982 15.56793652 -1 21 C-2.98 20.67 -4.96 20.34 -7 20 C-7 19.67 -7 19.34 -7 19 C-5.35 19 -3.7 19 -2 19 C-2 17.02 -2 15.04 -2 13 C-3.485 15.475 -3.485 15.475 -5 18 C-5.66 17.67 -6.32 17.34 -7 17 C-6.66226563 16.35933594 -6.32453125 15.71867187 -5.9765625 15.05859375 C-3.41356739 10.08816104 -1.30136816 5.44208502 0 0 Z " fill="#B3BABA" transform="translate(116,102)"/>
<path d="M0 0 C4.875 2.625 4.875 2.625 6 6 C5.40316406 6.55300781 4.80632812 7.10601562 4.19140625 7.67578125 C1.28992913 10.75310547 -0.50156041 14.17126196 -2.53515625 17.85546875 C-4 20 -4 20 -7 21 C-7 20.34 -7 19.68 -7 19 C-5.9790625 18.1028125 -5.9790625 18.1028125 -4.9375 17.1875 C-4.298125 16.465625 -3.65875 15.74375 -3 15 C-3.29299023 13.32577014 -3.62690101 11.65821773 -4 10 C-2.6875 7.6875 -2.6875 7.6875 -1 6 C-0.34 6 0.32 6 1 6 C1.33 5.01 1.66 4.02 2 3 C1.34 2.67 0.68 2.34 0 2 C0 1.34 0 0.68 0 0 Z " fill="#C8CDD0" transform="translate(110,98)"/>
<path d="M0 0 C1.0415625 0.31710938 2.083125 0.63421875 3.15625 0.9609375 C9.19208752 2.46989688 15.3089654 2.46171997 21.5 2.625 C22.70398438 2.66367188 23.90796875 2.70234375 25.1484375 2.7421875 C28.09881119 2.83585016 31.04918856 2.92157524 34 3 C34 2.34 34 1.68 34 1 C35.98 0.67 37.96 0.34 40 0 C39.34 0.33 38.68 0.66 38 1 C38.495 2.485 38.495 2.485 39 4 C37.1875 5.0625 37.1875 5.0625 35 6 C34.01 5.67 33.02 5.34 32 5 C30.07924668 4.87332756 28.15488065 4.79838141 26.23046875 4.75390625 C25.09416016 4.72103516 23.95785156 4.68816406 22.78710938 4.65429688 C20.39917776 4.59340008 18.01115229 4.53607246 15.62304688 4.48242188 C14.48287109 4.44826172 13.34269531 4.41410156 12.16796875 4.37890625 C11.12922607 4.3538501 10.0904834 4.32879395 9.02026367 4.30297852 C5.77513462 3.97744257 3.04735606 3.13795657 0 2 C0 1.34 0 0.68 0 0 Z " fill="#949698" transform="translate(65,94)"/>
<path d="M0 0 C0.66 0.33 1.32 0.66 2 1 C1.33613281 1.59167969 0.67226562 2.18335937 -0.01171875 2.79296875 C-1.33623047 3.97826172 -1.33623047 3.97826172 -2.6875 5.1875 C-3.60789062 6.00734375 -4.52828125 6.8271875 -5.4765625 7.671875 C-8.10134191 10.00933508 -8.10134191 10.00933508 -10.5625 12.9375 C-14.01865707 15.8619406 -17.59703879 16.35730196 -22 17 C-19.91407971 14.70237437 -19.02353924 14.00720589 -15.9375 13.0625 C-12.91071508 12.29965473 -12.91071508 12.29965473 -11.6875 10 C-11.460625 9.34 -11.23375 8.68 -11 8 C-10 6 -10 6 -6.625 4.5625 C-3.56642783 3.24414993 -2.03127817 2.50922597 0 0 Z " fill="#C2C6C9" transform="translate(108,100)"/>
<path d="M0 0 C-3.1966487 1.54631716 -6.40881593 3.05729007 -9.625 4.5625 C-10.52863281 5.00013672 -11.43226562 5.43777344 -12.36328125 5.88867188 C-20.69902013 9.75231727 -20.69902013 9.75231727 -26 8 C-25.67 7.34 -25.34 6.68 -25 6 C-22.62890625 5.2890625 -22.62890625 5.2890625 -19.5625 4.625 C-14.4472473 3.44080069 -9.8352085 1.83664622 -5.05859375 -0.328125 C-3 -1 -3 -1 0 0 Z " fill="#E1E7EA" transform="translate(86,105)"/>
<path d="M0 0 C2.475 0.99 2.475 0.99 5 2 C5.25 8.625 5.25 8.625 3 12 C2.01 12 1.02 12 0 12 C0 8.04 0 4.08 0 0 Z " fill="#ECF2F5" transform="translate(147,93)"/>
<path d="M0 0 C0.350625 0.474375 0.70125 0.94875 1.0625 1.4375 C3.04419417 3.32409061 3.04419417 3.32409061 6.5 3.375 C10 4 10 4 11.9375 6.5625 C12.288125 7.366875 12.63875 8.17125 13 9 C5.58783319 8.64134677 0.43520528 6.64079463 -6 3 C-3.50907189 1.75453595 -2.58919267 2.2232422 0 3 C0 2.01 0 1.02 0 0 Z " fill="#C4C9CC" transform="translate(96,82)"/>
<path d="M0 0 C2.97 0.33 5.94 0.66 9 1 C7.02 1.99 7.02 1.99 5 3 C4.01 4.485 4.01 4.485 3 6 C1 9 1 9 -3 11 C-2.01 7.37 -1.02 3.74 0 0 Z " fill="#EEF4F8" transform="translate(149,80)"/>
<path d="M0 0 C0.66 0.33 1.32 0.66 2 1 C3.29411765 8.41176471 3.29411765 8.41176471 2 11 C2.5775 11.2475 3.155 11.495 3.75 11.75 C6.3002997 13.16683317 8.01785701 14.87627537 10 17 C9.34 17.33 8.68 17.66 8 18 C6.53515625 16.73046875 5.0703125 15.4609375 3.60546875 14.19140625 C1.89287029 12.79128769 1.89287029 12.79128769 -1 12 C-0.67 8.04 -0.34 4.08 0 0 Z " fill="#CCD0D3" transform="translate(152,95)"/>
<path d="M0 0 C-2.90092502 1.93395001 -3.89674737 2.30131941 -7.1875 2.625 C-8.445625 2.74875 -9.70375 2.8725 -11 3 C-11 3.66 -11 4.32 -11 5 C-14.3 4.67 -17.6 4.34 -21 4 C-14.63240933 -0.775693 -7.69050549 -0.16021886 0 0 Z " fill="#E1E7EA" transform="translate(70,107)"/>
<path d="M0 0 C0 0.66 0 1.32 0 2 C-1.65 2.66 -3.3 3.32 -5 4 C-4.67 4.66 -4.34 5.32 -4 6 C-9.24385089 7.7479503 -13.47322267 8.19392201 -19 8 C-18.360625 7.71125 -17.72125 7.4225 -17.0625 7.125 C-14.84793921 6.17176549 -14.84793921 6.17176549 -14 4 C-11.78515625 3.18359375 -11.78515625 3.18359375 -9.0625 2.4375 C-0.28497409 0 -0.28497409 0 0 0 Z " fill="#A8ABAE" transform="translate(183,89)"/>
<path d="M0 0 C1.98 0 3.96 0 6 0 C6.33 2.97 6.66 5.94 7 9 C3 8 3 8 1.25 6.1875 C0 4 0 4 0 0 Z " fill="#EFF5F9" transform="translate(119,80)"/>
<path d="M0 0 C2.5 2.5 2.5 2.5 5 5 C7.16620544 6.29519995 7.16620544 6.29519995 9 7 C9 7.66 9 8.32 9 9 C3.125 7.125 3.125 7.125 2 6 C-0.32817964 5.63239269 -2.6618385 5.29758419 -5 5 C-5.33 3.68 -5.66 2.36 -6 1 C-3.92446352 0.4465236 -2.15634036 0 0 0 Z " fill="#EBF1F5" transform="translate(104,81)"/>
<path d="M0 0 C0.90105469 0.00902344 1.80210937 0.01804687 2.73046875 0.02734375 C3.41753906 0.03894531 4.10460937 0.05054687 4.8125 0.0625 C5.1425 1.0525 5.4725 2.0425 5.8125 3.0625 C4.70390625 3.12308594 3.5953125 3.18367188 2.453125 3.24609375 C0.9895718 3.33052951 -0.47396925 3.41517599 -1.9375 3.5 C-3.03191406 3.55897461 -3.03191406 3.55897461 -4.1484375 3.61914062 C-8.26212995 3.84182633 -8.26212995 3.84182633 -12.29003906 4.64086914 C-14.84297977 5.2081528 -16.00787814 4.38584184 -18.1875 3.0625 C-17.50042969 2.92972656 -16.81335938 2.79695313 -16.10546875 2.66015625 C-14.75388672 2.39525391 -14.75388672 2.39525391 -13.375 2.125 C-12.03501953 1.86396484 -12.03501953 1.86396484 -10.66796875 1.59765625 C-3.07752146 -0.03996781 -3.07752146 -0.03996781 0 0 Z " fill="#D1D5D8" transform="translate(185.1875,96.9375)"/>
<path d="M0 0 C1.4391134 0.28359887 2.87625518 0.57721399 4.3125 0.875 C5.11300781 1.03742188 5.91351563 1.19984375 6.73828125 1.3671875 C9 2 9 2 12 4 C11.67 4.66 11.34 5.32 11 6 C12.32 7.32 13.64 8.64 15 10 C10.89160936 8.54997977 7.49655387 6.6020866 4 4 C4 3.34 4 2.68 4 2 C2.68 1.34 1.36 0.68 0 0 Z " fill="#C0C5C7" transform="translate(162,107)"/>
<path d="M0 0 C2.25 0.25 2.25 0.25 4 1 C3.0925 1.598125 2.185 2.19625 1.25 2.8125 C-1.87747356 4.85281774 -1.87747356 4.85281774 -4.1875 6.75 C-6 8 -6 8 -9 8 C-9.33 8.66 -9.66 9.32 -10 10 C-10.66 9.67 -11.32 9.34 -12 9 C-11.625 7.0625 -11.625 7.0625 -11 5 C-10.34 4.67 -9.68 4.34 -9 4 C-9 4.66 -9 5.32 -9 6 C-5.938604 4.97953467 -4.17828874 4.18909411 -1.9375 1.8125 C-1.298125 1.214375 -0.65875 0.61625 0 0 Z " fill="#B3B6B9" transform="translate(161,85)"/>
<path d="M0 0 C0.33 2.97 0.66 5.94 1 9 C-4.46875 5.38671875 -4.46875 5.38671875 -6 4 C-6 3.01 -6 2.02 -6 1 C-1.125 0 -1.125 0 0 0 Z " fill="#EEF4F8" transform="translate(115,91)"/>
<path d="M0 0 C1.98 0 3.96 0 6 0 C6 0.66 6 1.32 6 2 C8.64 2.66 11.28 3.32 14 4 C14 4.33 14 4.66 14 5 C8.5814234 5.22577402 4.22512279 4.46670113 -1 3 C-0.67 2.01 -0.34 1.02 0 0 Z " fill="#EAEFF3" transform="translate(78,86)"/>
<path d="M0 0 C0.99 0 1.98 0 3 0 C2.01 3.63 1.02 7.26 0 11 C-0.99 10.67 -1.98 10.34 -3 10 C-2.67 7.36 -2.34 4.72 -2 2 C-1.34 2 -0.68 2 0 2 C0 1.34 0 0.68 0 0 Z " fill="#ECF1F5" transform="translate(145,79)"/>
<path d="M0 0 C1.670625 0.061875 1.670625 0.061875 3.375 0.125 C2.570625 0.681875 1.76625 1.23875 0.9375 1.8125 C-1.86728216 4.34364487 -2.31881595 5.45079134 -2.625 9.125 C-3.615 8.465 -4.605 7.805 -5.625 7.125 C-5.9375 4.625 -5.9375 4.625 -5.625 2.125 C-3.625 0.125 -3.625 0.125 0 0 Z " fill="#ECF1F0" transform="translate(83.625,164.875)"/>
<path d="M0 0 C2.31 0.33 4.62 0.66 7 1 C4.50616468 4.74075298 3.2824802 4.68820746 -1 5.625 C-5.1180841 6.48064214 -5.1180841 6.48064214 -9 8 C-9 7.01 -9 6.02 -9 5 C-6.03 4.01 -3.06 3.02 0 2 C0 1.34 0 0.68 0 0 Z " fill="#9FA2A4" transform="translate(68,105)"/>
<path d="M0 0 C1.32 0 2.64 0 4 0 C4.33 2.97 4.66 5.94 5 9 C4.01 9 3.02 9 2 9 C0.50178941 5.62902617 0 3.79557881 0 0 Z " fill="#EDF2F6" transform="translate(126,80)"/>
<path d="M0 0 C1.65 0 3.3 0 5 0 C5.33 1.65 5.66 3.3 6 5 C4.02 5.99 4.02 5.99 2 7 C1.34 4.69 0.68 2.38 0 0 Z " fill="#E2EAE9" transform="translate(177,174)"/>
<path d="M0 0 C3.75519057 0.51207144 6.66688525 1.2175082 10 3 C8.43840941 3.48212214 6.87568072 3.96055873 5.3125 4.4375 C4.44238281 4.70433594 3.57226562 4.97117187 2.67578125 5.24609375 C0.12974079 5.96344529 -2.4003423 6.517541 -5 7 C-1.375 4 -1.375 4 2 4 C2 3.01 2 2.02 2 1 C1.34 0.67 0.68 0.34 0 0 Z " fill="#E2E8EB" transform="translate(181,87)"/>
<path d="M0 0 C0 3.74016583 -0.9341591 4.45276193 -3.375 7.1875 C-4.00148438 7.90292969 -4.62796875 8.61835937 -5.2734375 9.35546875 C-7 11 -7 11 -9 11 C-9 11.66 -9 12.32 -9 13 C-9.99 12.67 -10.98 12.34 -12 12 C-11.55269531 11.63648437 -11.10539062 11.27296875 -10.64453125 10.8984375 C-6.61206348 7.5452127 -3.23995546 4.12357967 0 0 Z " fill="#E5EBEF" transform="translate(104,107)"/>
<path d="M0 0 C3.95820859 0.56545837 6.6659053 1.80902348 10 4 C9.34 5.32 8.68 6.64 8 8 C7.01 7.67 6.02 7.34 5 7 C5.66 7 6.32 7 7 7 C7 6.34 7 5.68 7 5 C6.401875 4.731875 5.80375 4.46375 5.1875 4.1875 C3.02775192 3.01506533 1.64209744 1.80630718 0 0 Z " fill="#EDF2F6" transform="translate(176,109)"/>
<path d="M0 0 C3.3 0 6.6 0 10 0 C10.33 1.32 10.66 2.64 11 4 C9.53984709 3.71758359 8.08190207 3.42373386 6.625 3.125 C5.81289062 2.96257812 5.00078125 2.80015625 4.1640625 2.6328125 C2 2 2 2 0 0 Z " fill="#E9EFF2" transform="translate(180,101)"/>
<path d="M0 0 C0 0.66 0 1.32 0 2 C-1.62626404 3.38232443 -3.2925002 4.71937515 -5 6 C-7.13093906 4.93453047 -8.36587557 3.70840281 -10 2 C-6.38026598 0.68373308 -3.90432869 0 0 0 Z " fill="#A1A3A6" transform="translate(110,98)"/>
<path d="M0 0 C0.99 0.33 1.98 0.66 3 1 C2.25 3.9375 2.25 3.9375 1 7 C-1.125 7.875 -1.125 7.875 -3 8 C-1.125 1.125 -1.125 1.125 0 0 Z " fill="#EEF2F1" transform="translate(96,160)"/>
<path d="M0 0 C0 0.66 0 1.32 0 2 C-2.75924185 3.80411967 -3.88972103 4.0127245 -7.25 3.625 C-8.1575 3.41875 -9.065 3.2125 -10 3 C-9 1 -9 1 -7.25 0.375 C-4.79549443 -0.03408426 -2.4840589 -0.06900164 0 0 Z " fill="#ECF2F6" transform="translate(70,110)"/>
<path d="M0 0 C0.99 0 1.98 0 3 0 C3.33 2.64 3.66 5.28 4 8 C3.01 8 2.02 8 1 8 C-0.35439668 5.29120665 -0.06501451 2.99066732 0 0 Z " fill="#EDF3F7" transform="translate(132,81)"/>
<path d="M0 0 C1.32 0.33 2.64 0.66 4 1 C4.28875 2.134375 4.5775 3.26875 4.875 4.4375 C5.24625 5.613125 5.6175 6.78875 6 8 C6.66 8.33 7.32 8.66 8 9 C7.67 9.66 7.34 10.32 7 11 C4.0444623 8.24829249 1.88436685 5.58029701 0 2 C0 1.34 0 0.68 0 0 Z " fill="#B8BCBF" transform="translate(153,109)"/>
<path d="M0 0 C-1.38552202 1.01423834 -2.78394288 2.01087002 -4.1875 3 C-4.96480469 3.556875 -5.74210938 4.11375 -6.54296875 4.6875 C-9.28336637 6.151369 -10.94100837 6.26080213 -14 6 C-13.01 5.34 -12.02 4.68 -11 4 C-10.360625 3.56300781 -9.72125 3.12601562 -9.0625 2.67578125 C-8.0415625 2.00095703 -8.0415625 2.00095703 -7 1.3125 C-6.319375 0.85488281 -5.63875 0.39726563 -4.9375 -0.07421875 C-3 -1 -3 -1 0 0 Z " fill="#E8EEF2" transform="translate(171,89)"/>
<path d="M0 0 C1.65 1.65 3.3 3.3 5 5 C4.67 5.66 4.34 6.32 4 7 C2.51800098 6.55090939 1.03944764 6.09043436 -0.4375 5.625 C-1.26121094 5.36976562 -2.08492188 5.11453125 -2.93359375 4.8515625 C-5 4 -5 4 -6 2 C-3.03 2.495 -3.03 2.495 0 3 C0 2.01 0 1.02 0 0 Z " fill="#A8ABAE" transform="translate(96,82)"/>
<path d="M0 0 C-1 1.5625 -1 1.5625 -3 3 C-5.76614782 2.96726452 -8.26030547 2.49404328 -11 2 C-7.36576791 -0.32590854 -4.22911669 -0.16265833 0 0 Z " fill="#A2A6A8" transform="translate(84,103)"/>
<path d="M0 0 C7.48291572 6.15034169 7.48291572 6.15034169 10 10 C6.40486061 8.3407049 3.13593666 6.42322378 0 4 C0 2.68 0 1.36 0 0 Z " fill="#9EA2A4" transform="translate(107,92)"/>
<path d="M0 0 C-0.66 0 -1.32 0 -2 0 C-1.67 0.99 -1.34 1.98 -1 3 C-2.8125 4.0625 -2.8125 4.0625 -5 5 C-5.99 4.67 -6.98 4.34 -8 4 C-7.34 4 -6.68 4 -6 4 C-6 2.68 -6 1.36 -6 0 C-3 -1 -3 -1 0 0 Z " fill="#9A9C9E" transform="translate(105,95)"/>
<path d="M0 0 C0.66 0.33 1.32 0.66 2 1 C0.35 3.64 -1.3 6.28 -3 9 C-3.99 8.67 -4.98 8.34 -6 8 C-4.55746343 4.63408134 -2.66735273 2.48952921 0 0 Z " fill="#E7EEEC" transform="translate(166,171)"/>
<path d="M0 0 C4.29 0 8.58 0 13 0 C13 0.33 13 0.66 13 1 C11.35 1 9.7 1 8 1 C8 1.66 8 2.32 8 3 C4.62537285 2.45276317 2.91765 1.9451 0 0 Z " fill="#D5DADD" transform="translate(157,103)"/>
<path d="M0 0 C2.64 0 5.28 0 8 0 C8 0.66 8 1.32 8 2 C5.03 2.66 2.06 3.32 -1 4 C-0.34 3.67 0.32 3.34 1 3 C0.67 2.01 0.34 1.02 0 0 Z " fill="#F1F7FB" transform="translate(200,107)"/>
<path d="M0 0 C1.5 1.3125 1.5 1.3125 3 3 C3 3.99 3 4.98 3 6 C3.3062434 7.33981486 3.63451555 8.67511887 4 10 C1.03134491 7.45543849 -0.3619751 4.51005335 -2 1 C-1.34 0.67 -0.68 0.34 0 0 Z " fill="#9A9D9F" transform="translate(153,111)"/>
<path d="M0 0 C1.65 0 3.3 0 5 0 C4.01 0.495 4.01 0.495 3 1 C3 3.97 3 6.94 3 10 C2.67 10 2.34 10 2 10 C1.34 6.7 0.68 3.4 0 0 Z " fill="#809187" transform="translate(148,124)"/>
<path d="M0 0 C2.5 1.3125 2.5 1.3125 5 3 C5 3.99 5 4.98 5 6 C3 5 1 4 -1 3 C-0.67 2.01 -0.34 1.02 0 0 Z " fill="#ACAFB1" transform="translate(155,103)"/>
<path d="M0 0 C4.67692308 1.47692308 4.67692308 1.47692308 6.3125 4.125 C6.539375 4.74375 6.76625 5.3625 7 6 C2.32307692 4.52307692 2.32307692 4.52307692 0.6875 1.875 C0.460625 1.25625 0.23375 0.6375 0 0 Z " fill="#E3E9ED" transform="translate(155,107)"/>
<path d="M0 0 C0.99 0.33 1.98 0.66 3 1 C2.01 1.495 2.01 1.495 1 2 C1 2.66 1 3.32 1 4 C-0.98 4.99 -0.98 4.99 -3 6 C-3 3 -3 3 -1.5 1.3125 C-0.7575 0.6628125 -0.7575 0.6628125 0 0 Z " fill="#888A8C" transform="translate(110,100)"/>
</svg>
