<?xml version="1.0" encoding="UTF-8"?>
<!DOCTYPE svg PUBLIC "-//W3C//DTD SVG 1.1//EN" "http://www.w3.org/Graphics/SVG/1.1/DTD/svg11.dtd">
<svg xmlns="http://www.w3.org/2000/svg" version="1.1" width="256px" height="256px" style="shape-rendering:geometricPrecision; text-rendering:geometricPrecision; image-rendering:optimizeQuality; fill-rule:evenodd; clip-rule:evenodd" xmlns:xlink="http://www.w3.org/1999/xlink">
<g><path style="opacity:0.989" fill="#326565" d="M 111.5,-0.5 C 122.167,-0.5 132.833,-0.5 143.5,-0.5C 206.281,11.9479 243.615,49.6146 255.5,112.5C 255.5,122.5 255.5,132.5 255.5,142.5C 243.615,205.385 206.281,243.052 143.5,255.5C 132.833,255.5 122.167,255.5 111.5,255.5C 48.7187,243.052 11.3854,205.385 -0.5,142.5C -0.5,132.5 -0.5,122.5 -0.5,112.5C 11.3854,49.6146 48.7187,11.9479 111.5,-0.5 Z"/></g>
<g><path style="opacity:1" fill="#fdfdfd" d="M 155.5,219.5 C 136.167,220.833 116.833,220.833 97.5,219.5C 104.654,211.185 109.154,201.518 111,190.5C 112.845,180.565 113.512,170.565 113,160.5C 110.045,156.756 107.211,152.922 104.5,149C 112.952,137.289 116.952,124.122 116.5,109.5C 117.451,108.081 117.784,106.415 117.5,104.5C 113.5,104.5 109.5,104.5 105.5,104.5C 85.2758,104.643 65.6091,101.476 46.5,95C 43.5438,94.0382 41.2105,92.3716 39.5,90C 52.2795,57.2478 76.2795,38.9144 111.5,35C 136.254,32.0256 159.587,36.359 181.5,48C 197.037,57.2525 207.704,70.4192 213.5,87.5C 212.62,90.4576 210.62,92.2909 207.5,93C 184.627,101.424 160.96,105.257 136.5,104.5C 137.337,114.533 138.504,124.533 140,134.5C 142.849,139.343 145.683,144.177 148.5,149C 146.067,153.104 143.233,156.937 140,160.5C 139.518,176.274 141.851,191.607 147,206.5C 149.269,211.256 152.103,215.59 155.5,219.5 Z"/></g>
<g><path style="opacity:1" fill="#90acac" d="M 105.5,104.5 C 109.5,104.5 113.5,104.5 117.5,104.5C 117.784,106.415 117.451,108.081 116.5,109.5C 116.5,108.167 116.5,106.833 116.5,105.5C 112.629,105.815 108.962,105.482 105.5,104.5 Z"/></g>
<g><path style="opacity:1" fill="#a9bfbf" d="M 97.5,219.5 C 116.833,220.833 136.167,220.833 155.5,219.5C 156.289,219.783 156.956,220.283 157.5,221C 136.833,221.667 116.167,221.667 95.5,221C 96.0442,220.283 96.7109,219.783 97.5,219.5 Z"/></g>
</svg>
