<?xml version="1.0" standalone="no"?>
<!DOCTYPE svg PUBLIC "-//W3C//DTD SVG 20010904//EN"
 "http://www.w3.org/TR/2001/REC-SVG-20010904/DTD/svg10.dtd">
<svg version="1.0" xmlns="http://www.w3.org/2000/svg"
 width="1088.000000pt" height="687.000000pt" viewBox="0 0 1088.000000 687.000000"
 preserveAspectRatio="xMidYMid meet">

<g transform="translate(0.000000,687.000000) scale(0.100000,-0.100000)"
fill="#000000" stroke="none">
<path d="M5230 6521 c-44 -9 -85 -39 -130 -94 -45 -57 -93 -73 -146 -51 -31
13 -50 14 -108 5 -82 -12 -133 -43 -186 -114 -20 -26 -56 -60 -81 -76 -48 -30
-59 -46 -59 -86 0 -12 -10 -29 -22 -38 -35 -23 -18 -27 27 -7 22 9 52 22 68
28 36 15 34 39 -4 47 -33 8 -34 21 -1 43 20 13 22 13 22 -2 0 -26 17 -18 23
12 10 46 78 123 132 151 97 48 237 34 219 -22 -13 -39 -4 -81 24 -110 25 -26
32 -28 82 -24 30 3 64 6 74 8 30 6 54 -61 38 -105 -17 -47 -15 -79 8 -104 17
-18 18 -22 5 -22 -18 0 -21 -20 -2 -21 6 0 -1 -7 -18 -14 l-30 -14 30 -2 c29
-1 29 -1 5 -8 -14 -4 -38 -4 -54 0 -38 11 -55 0 -30 -19 18 -13 17 -14 -9 -9
-15 2 -30 0 -33 -4 -7 -12 -56 -11 -87 0 -13 5 -38 23 -55 40 -23 23 -40 31
-66 31 -42 0 -44 -5 -13 -31 42 -37 64 -43 33 -10 -37 38 -18 41 24 4 31 -28
35 -45 32 -115 -2 -43 -14 -49 -30 -15 -10 21 -11 21 -11 1 -1 -11 8 -29 19
-39 30 -27 42 -8 44 68 l1 65 27 -14 c34 -18 204 -22 221 -5 8 8 4 11 -15 11
-15 0 -30 5 -33 10 -4 6 6 10 22 10 31 0 76 26 68 40 -7 12 22 39 51 46 48 12
44 -5 -27 -128 l-40 -68 -69 0 c-72 0 -120 -12 -120 -30 0 -6 5 -8 10 -5 19
12 10 -14 -12 -35 -17 -16 -35 -20 -84 -20 -58 0 -62 1 -73 29 -7 16 -16 55
-20 87 l-8 58 23 -30 c18 -22 24 -25 24 -12 0 10 -22 39 -50 65 -27 26 -50 53
-50 60 0 7 -4 13 -10 13 -15 0 -13 -6 22 -68 21 -38 34 -76 38 -114 3 -32 4
-58 2 -58 -1 0 -15 12 -29 28 -27 27 -23 12 5 -20 9 -10 10 -18 4 -18 -14 0
-52 49 -52 67 0 8 4 12 9 9 4 -3 1 19 -8 48 -9 30 -18 54 -21 53 -21 -5 -86
31 -114 65 l-34 40 -21 -21 c-26 -26 -29 -103 -6 -156 13 -34 13 -35 -5 -25
-29 16 -69 73 -96 137 -28 68 -32 55 -5 -16 26 -69 65 -116 116 -140 63 -30
72 -26 36 14 -17 20 -33 46 -36 58 -9 35 -2 120 11 124 5 2 32 -30 58 -70 26
-41 58 -80 71 -87 14 -7 29 -28 35 -46 11 -32 61 -84 81 -84 6 0 17 -7 25 -15
18 -17 50 -20 59 -5 3 6 25 10 48 10 48 0 84 21 97 55 7 17 21 26 52 33 24 5
47 7 51 5 13 -8 -4 -75 -41 -156 l-35 -78 -36 5 c-20 3 -72 8 -116 10 -91 6
-59 -5 63 -22 41 -6 76 -13 79 -15 3 -4 -41 -103 -53 -116 -2 -2 -27 6 -56 17
-29 11 -75 27 -103 35 l-50 15 48 1 c27 1 46 5 43 9 -9 15 -78 13 -122 -4 -25
-9 -47 -14 -50 -11 -3 3 -26 -4 -50 -14 -44 -20 -44 -20 -71 0 -14 12 -35 21
-47 22 -19 0 -19 1 4 10 14 6 33 8 42 5 10 -2 18 0 18 5 0 17 -29 21 -65 9
-20 -7 -39 -9 -43 -5 -10 10 68 75 89 75 10 0 21 5 24 10 3 6 1 10 -6 10 -7 0
-9 3 -5 7 17 17 94 11 154 -13 86 -34 89 -25 4 11 -47 20 -87 29 -133 30 -91
3 -231 27 -234 39 -1 6 -8 65 -14 131 -17 170 -32 274 -42 280 -4 3 -64 -14
-133 -37 -69 -23 -128 -40 -131 -36 -11 11 -14 82 -4 100 11 21 -25 65 -61 73
-64 14 -129 -79 -94 -133 14 -22 14 -25 -1 -36 -9 -7 -18 -24 -18 -39 -2 -23
-9 -29 -47 -42 -159 -53 -211 -73 -210 -81 1 -31 18 -96 55 -219 62 -205 61
-195 25 -249 -17 -25 -38 -46 -45 -46 -20 0 -98 -41 -108 -57 -4 -7 -21 -13
-37 -13 -29 0 -30 1 -30 49 0 48 1 49 35 55 33 7 75 49 75 76 0 6 -21 20 -46
32 -44 19 -46 21 -41 54 3 19 13 49 21 66 17 33 14 48 -10 48 -9 0 -14 -7 -13
-17 3 -19 -8 -74 -22 -110 -7 -20 -11 -21 -44 -10 -30 9 -38 8 -52 -6 -14 -14
-15 -22 -4 -56 6 -22 23 -49 36 -59 21 -17 25 -28 25 -75 0 -31 4 -59 10 -62
5 -3 48 -8 95 -9 77 -4 88 -7 105 -29 11 -13 23 -42 28 -63 5 -22 22 -66 38
-99 25 -50 39 -66 85 -93 l55 -32 27 -113 c15 -61 49 -204 76 -317 27 -113 57
-241 66 -286 l18 -81 -53 -74 c-28 -41 -68 -100 -89 -131 -25 -41 -45 -61 -69
-69 -37 -12 -52 -35 -52 -78 0 -28 -25 -72 -111 -200 -17 -24 -27 -46 -23 -50
4 -3 8 -1 10 4 2 6 31 50 64 98 l60 89 1 -79 c1 -43 2 -136 3 -208 4 -248 4
-249 32 -291 25 -36 26 -44 21 -119 -4 -44 -9 -96 -12 -115 -19 -105 18 -280
59 -280 8 0 16 -9 19 -21 3 -12 10 -18 16 -14 6 3 16 -5 23 -19 14 -31 28 -33
35 -5 3 11 11 18 18 15 7 -2 20 3 28 12 21 24 49 116 41 136 -4 9 0 24 9 34
19 21 35 80 31 109 l-4 23 37 -20 c46 -24 62 -25 70 -4 4 11 -11 32 -49 68
-30 28 -62 69 -72 91 -9 22 -23 52 -31 67 -12 24 -11 39 6 120 11 51 25 163
31 248 l11 155 41 33 c23 19 80 72 129 119 l87 86 0 -42 c0 -25 13 -73 31
-116 l30 -73 -15 -88 c-20 -115 -80 -244 -113 -244 -17 0 -29 -12 -47 -48 -34
-66 -39 -108 -26 -182 14 -76 43 -135 103 -211 76 -96 154 -120 313 -100 149
20 289 98 334 188 33 67 39 147 12 176 -19 21 -19 26 -7 91 12 64 17 71 65
114 28 25 56 57 62 71 10 26 10 25 23 -18 20 -64 57 -96 178 -157 96 -48 197
-109 197 -118 0 -2 -20 -52 -45 -110 -40 -93 -68 -181 -53 -166 12 12 88 192
88 208 0 23 26 59 36 50 3 -4 0 -18 -8 -30 -8 -13 -27 -57 -42 -98 -72 -193
-89 -238 -110 -285 -25 -54 -45 -106 -101 -260 -66 -180 -137 -360 -146 -369
-23 -25 -17 29 11 99 41 103 32 108 -11 6 -38 -89 -46 -94 -116 -66 -21 8 -49
16 -63 18 -14 2 -32 7 -40 10 -13 5 -74 23 -195 57 -43 12 -239 64 -455 121
-102 27 -219 59 -260 70 -41 12 -104 27 -140 35 -36 7 -96 23 -135 34 -38 11
-106 29 -150 41 -44 12 -127 34 -185 51 -58 16 -145 41 -194 54 -48 13 -94 28
-101 32 -10 5 10 41 71 135 46 70 84 130 84 133 0 3 27 45 60 95 33 49 60 91
60 93 0 7 112 186 223 358 32 49 56 92 54 95 -3 2 -26 -28 -52 -69 -26 -40
-67 -102 -90 -138 -23 -36 -93 -144 -155 -240 -62 -96 -147 -227 -189 -290
-42 -63 -85 -134 -95 -157 l-19 -43 84 -125 c84 -125 84 -125 139 -141 l55
-15 67 -127 c37 -70 83 -154 102 -187 l33 -59 -34 -77 -35 -77 56 -76 c31 -42
67 -82 80 -87 13 -6 28 -25 34 -43 9 -27 10 -20 12 49 1 44 5 89 9 100 5 12 7
-8 5 -48 -3 -54 2 -81 22 -135 47 -123 50 -156 21 -257 -33 -113 -87 -230
-179 -384 -27 -46 -56 -97 -63 -113 -7 -17 -15 -27 -18 -22 -2 5 24 70 60 144
138 288 171 356 183 388 17 43 8 133 -19 197 -24 56 -22 33 5 -67 18 -65 18
-69 0 -120 -10 -29 -62 -141 -115 -248 -95 -191 -97 -195 -126 -192 -33 3 -43
-8 -75 -84 -14 -33 -16 -45 -7 -50 7 -4 9 -4 5 1 -9 9 38 105 51 105 18 0 23
-40 7 -56 -9 -8 -16 -24 -16 -35 0 -10 -6 -19 -12 -19 -7 0 0 -7 16 -15 15 -8
34 -15 40 -15 28 0 372 -119 520 -179 55 -23 100 -40 101 -39 10 18 65 141 63
142 -26 13 -142 58 -253 98 -77 27 -141 51 -144 53 -9 10 70 35 108 35 52 0
126 15 231 47 78 25 90 32 163 102 56 54 89 96 115 146 52 99 70 147 76 195 3
24 7 44 8 46 2 2 62 -16 132 -39 l129 -43 3 -74 c7 -138 55 -243 158 -346 96
-96 155 -125 268 -132 74 -4 97 -1 150 18 108 39 186 110 257 235 l23 40 -38
-45 c-153 -181 -226 -225 -384 -225 -123 0 -168 21 -268 124 -75 77 -114 144
-138 236 -16 57 -17 160 -3 190 7 15 8 10 4 -21 -6 -50 16 -138 55 -222 64
-137 226 -255 343 -251 111 4 223 55 296 134 76 83 178 331 336 820 102 316
100 312 107 299 14 -25 -264 -928 -304 -986 -19 -27 -23 -48 -10 -48 15 0 60
120 150 395 76 234 110 346 188 617 3 9 18 19 34 23 33 7 137 72 190 118 55
48 189 202 278 320 45 60 82 110 82 112 0 3 19 33 42 67 92 139 109 169 182
308 80 155 149 333 163 421 4 30 8 99 8 154 0 95 -2 104 -37 177 -41 83 -119
184 -195 251 -106 95 -258 181 -351 199 -91 17 -92 19 -86 167 3 69 12 146 19
171 8 25 16 117 19 210 3 91 5 166 6 167 0 2 33 38 73 82 54 59 86 107 130
192 51 102 58 121 59 179 5 220 -106 382 -397 581 -49 34 -110 76 -135 94 -50
36 -112 69 -150 79 -14 4 -4 -4 22 -18 51 -27 196 -123 293 -194 87 -63 238
-204 255 -238 8 -16 25 -45 37 -65 13 -19 30 -67 38 -105 15 -73 20 -214 7
-214 -4 0 -15 -22 -24 -48 -25 -69 -87 -161 -165 -243 l-69 -72 -99 17 c-55 9
-113 19 -130 22 -64 10 -85 16 -85 25 0 18 80 169 134 252 31 46 61 104 67
129 12 44 12 45 -30 100 -63 84 -153 159 -189 156 -26 -2 -122 44 -122 58 0 3
9 17 20 31 11 14 20 35 20 45 0 18 -5 19 -35 14 l-36 -7 7 50 c8 59 1 64 -21
17 -9 -18 -29 -46 -45 -61 l-28 -27 -21 41 c-22 42 -76 85 -123 96 -40 10
-176 -14 -237 -41 -30 -13 -56 -22 -58 -20 -9 8 86 77 141 102 40 18 83 28
140 33 145 11 190 60 119 130 -60 60 -150 64 -233 12 -25 -15 -25 -15 -7 6 27
32 147 67 202 60 25 -4 45 -3 45 2 0 21 -95 22 -152 2 -31 -11 -59 -17 -62
-14 -7 7 -87 -40 -110 -66 -21 -23 -46 -28 -46 -9 0 6 -10 2 -23 -10 -29 -28
-41 -28 -55 1 -9 16 -9 32 -2 57 17 59 12 106 -14 137 -21 25 -23 33 -13 53
31 60 69 47 138 -46 41 -56 87 -85 131 -83 16 1 11 4 -15 11 -48 13 -105 66
-113 107 -4 17 -10 29 -14 26 -4 -2 -18 7 -30 20 -27 29 -74 33 -88 9 -10 -17
-93 -37 -116 -28 -8 3 -18 19 -21 35 -5 24 1 40 32 86 74 108 153 144 247 113
48 -15 116 -84 116 -116 0 -13 5 -24 10 -24 39 0 -52 130 -104 149 -37 14 -90
19 -126 12z m-196 -190 c-6 -28 9 -69 30 -83 6 -4 28 -8 49 -8 35 0 37 -1 27
-21 -10 -18 -17 -20 -53 -14 -74 12 -101 58 -71 120 20 43 25 44 18 6z m-953
-211 c27 -15 24 -30 -6 -30 -33 0 -79 -45 -71 -68 4 -12 1 -11 -13 5 -46 55
24 128 90 93z m519 -11 c0 -5 -13 -9 -30 -9 -28 0 -38 9 -25 22 8 8 55 -3 55
-13z m-542 -56 c-9 -10 -18 -25 -21 -33 -4 -11 -6 -10 -6 4 -1 10 7 25 17 32
24 19 28 17 10 -3z m1580 -47 c30 -30 35 -39 26 -54 -18 -28 -64 -45 -124 -43
-65 1 -150 -25 -206 -63 -21 -14 -39 -24 -41 -22 -2 2 12 29 32 61 19 33 35
67 35 77 0 10 8 21 18 25 9 3 28 14 42 23 42 29 83 40 133 36 41 -3 55 -10 85
-40z m-1247 17 c0 -10 2 -27 4 -38 8 -50 25 -266 25 -320 0 -58 -1 -61 -32
-77 -35 -18 -163 -65 -213 -78 -16 -4 -75 -22 -130 -41 -55 -18 -103 -32 -107
-31 -4 1 -27 -7 -51 -18 -25 -11 -52 -18 -60 -14 -8 3 -24 38 -35 82 -11 42
-37 133 -57 200 -20 68 -34 126 -31 129 14 15 271 93 274 84 2 -5 39 6 85 26
88 39 294 113 315 113 6 0 12 -8 13 -17z m989 -3 c-10 -18 -48 -41 -68 -40 -9
1 61 59 71 60 4 0 3 -9 -3 -20z m-1280 -45 c0 -13 -33 -32 -88 -49 -16 -5 -22
-3 -22 7 0 9 18 20 45 27 25 7 48 17 51 21 8 13 14 11 14 -6z m1170 0 c-7 -8
-17 -15 -23 -15 -6 0 -2 7 9 15 25 19 30 19 14 0z m-493 -142 c26 -62 9 -59
-59 11 -38 38 -35 46 9 31 25 -9 42 -23 50 -42z m816 -59 c49 -37 70 -79 63
-126 -4 -24 -14 -52 -24 -64 -23 -28 -89 -67 -101 -59 -6 3 -28 -5 -49 -19
-44 -28 -146 -139 -132 -144 6 -2 4 -15 -4 -30 -10 -19 -31 -33 -64 -45 -49
-18 -52 -18 -94 1 -40 17 -108 81 -108 101 0 5 27 69 61 142 72 158 113 207
198 237 71 26 102 31 173 27 36 -2 66 -10 81 -21z m-367 -61 c-11 -11 -19 6
-11 24 8 17 8 17 12 0 3 -10 2 -21 -1 -24z m-751 -120 c-24 -17 -35 -17 -35 0
0 20 9 25 32 19 20 -5 20 -6 3 -19z m99 -9 c20 -19 15 -28 -23 -44 -26 -11
-33 -10 -56 8 l-25 20 38 15 c47 20 47 20 66 1z m1269 -16 c13 -10 17 -21 12
-40 -6 -23 -12 -26 -72 -32 -92 -10 -100 3 -38 58 51 45 56 45 98 14z m-1428
3 c-3 -6 -14 -11 -23 -11 -15 1 -15 2 2 15 21 16 32 13 21 -4z m33 -19 c-2 -5
25 -32 60 -61 34 -28 69 -63 78 -76 9 -14 21 -25 27 -25 5 0 25 -11 43 -25 18
-14 65 -37 106 -51 40 -15 99 -40 132 -56 32 -16 62 -26 65 -21 21 32 105 133
110 133 3 0 16 -15 29 -34 13 -19 36 -40 53 -46 16 -7 29 -18 29 -24 0 -7 -18
-30 -41 -51 -22 -22 -59 -65 -81 -96 -38 -55 -41 -57 -71 -49 -18 5 -57 14
-88 20 -48 9 -69 22 -145 86 -130 110 -153 124 -205 118 -24 -3 -49 -6 -56 -9
-6 -2 -26 8 -45 21 -38 29 -102 64 -117 64 -6 0 -18 -17 -27 -37 l-17 -38 -10
38 c-8 34 -7 41 14 63 12 13 23 34 24 46 1 12 14 32 29 45 15 13 25 27 22 32
-8 13 15 29 49 34 17 2 31 5 33 6 1 0 1 -3 0 -7z m1549 -41 c43 -31 103 -100
126 -145 23 -44 -3 -108 -114 -281 -58 -91 -69 -104 -64 -74 4 20 8 54 9 75 6
102 51 184 102 184 l27 0 -27 33 c-15 17 -33 46 -41 64 -8 17 -19 35 -25 38
-20 12 -90 107 -90 121 0 24 54 16 97 -15z m-1657 5 c0 -14 -12 -19 -220 -96
-130 -49 -220 -87 -220 -93 0 -13 135 -236 153 -255 11 -10 54 4 228 73 117
47 223 89 234 94 57 25 87 33 95 25 13 -13 -552 -239 -575 -230 -7 2 -26 28
-42 58 -17 29 -53 94 -82 143 -55 96 -60 115 -35 115 9 0 33 9 53 20 45 24
220 94 326 130 44 15 81 28 83 29 1 0 2 -5 2 -13z m1221 -96 c38 -39 86 -79
111 -90 88 -40 176 -18 220 56 l21 36 23 -43 c15 -30 19 -48 12 -56 -5 -7 -7
-16 -4 -22 4 -5 -2 -24 -13 -43 -10 -18 -31 -71 -46 -118 -15 -47 -38 -112
-50 -145 -21 -55 -25 -60 -52 -57 -74 6 -89 12 -99 39 -8 24 -17 28 -79 39
-68 11 -70 11 -88 -12 -11 -14 -24 -21 -35 -18 -13 5 -14 4 -4 -4 14 -9 12
-16 -16 -61 -1 -3 -12 5 -25 16 -12 11 -40 30 -62 42 -22 12 -31 19 -20 16 10
-3 40 -8 65 -10 85 -9 -5 13 -165 40 -201 34 -205 35 -205 50 0 7 34 51 75 99
65 74 80 86 108 86 17 0 50 7 73 16 34 13 44 24 63 67 19 44 104 147 120 147
3 0 36 -32 72 -70z m-2023 35 c2 -2 2 -11 -1 -20 -5 -12 -11 -13 -31 -4 -14 7
-27 18 -31 27 -4 12 1 13 27 8 17 -3 34 -8 36 -11z m522 -10 c-14 -8 -29 -14
-35 -14 -5 0 1 6 15 14 14 8 30 14 35 14 6 0 -1 -6 -15 -14z m230 11 c0 -2 -7
-6 -15 -10 -8 -3 -15 -1 -15 4 0 6 7 10 15 10 8 0 15 -2 15 -4z m-678 -22 c38
-20 24 -39 -21 -29 -22 5 -31 12 -31 26 0 23 12 24 52 3z m-49 -45 l52 -12
-34 -9 c-45 -12 -87 6 -108 45 l-15 30 26 -20 c14 -12 50 -27 79 -34z m664 45
c-3 -3 -12 -4 -19 -1 -8 3 -5 6 6 6 11 1 17 -2 13 -5z m445 -43 c15 -8 29 -20
33 -28 4 -12 -2 -11 -23 3 -48 32 -68 48 -77 64 -5 9 2 7 16 -5 13 -12 36 -27
51 -34z m-663 34 c-9 -9 -79 -35 -79 -30 0 3 15 12 33 20 32 14 55 19 46 10z
m171 -5 c0 -5 -8 -10 -17 -10 -15 0 -16 2 -3 10 19 12 20 12 20 0z m100 -5
c-7 -8 -16 -12 -21 -9 -13 8 -1 24 18 24 13 0 13 -3 3 -15z m592 -69 c21 -33
38 -63 38 -67 0 -4 -19 0 -42 11 -37 16 -43 24 -54 67 -25 95 -9 92 58 -11z
m-17 74 c4 -6 10 -8 14 -5 5 2 43 -7 85 -21 59 -20 76 -30 72 -41 -8 -20 -49
-72 -58 -72 -3 -1 -20 23 -37 53 -17 29 -39 60 -48 67 -22 19 -15 5 31 -63 21
-31 36 -63 34 -70 -3 -7 -21 17 -42 52 -21 36 -47 75 -59 88 -11 12 -15 22 -9
22 6 0 14 -5 17 -10z m-78 -45 c12 -51 3 -58 -34 -23 -34 32 -30 68 7 68 12 0
20 -14 27 -45z m-642 25 c-3 -5 -11 -10 -16 -10 -6 0 -7 5 -4 10 3 6 11 10 16
10 6 0 7 -4 4 -10z m105 0 c0 -5 -6 -10 -14 -10 -8 0 -18 5 -21 10 -3 6 3 10
14 10 12 0 21 -4 21 -10z m-330 -10 c0 -16 -51 -33 -63 -21 -7 7 -2 14 14 20
32 13 49 13 49 1z m180 -4 c0 -3 -4 -8 -10 -11 -5 -3 -10 -1 -10 4 0 6 5 11
10 11 6 0 10 -2 10 -4z m100 -6 c0 -5 -6 -10 -14 -10 -8 0 -18 5 -21 10 -3 6
3 10 14 10 12 0 21 -4 21 -10z m-380 -25 c0 -8 -7 -15 -16 -15 -14 0 -14 3 -4
15 7 8 14 15 16 15 2 0 4 -7 4 -15z m330 11 c0 -11 -19 -15 -25 -6 -3 5 1 10
9 10 9 0 16 -2 16 -4z m105 -6 c3 -5 -3 -10 -14 -10 -12 0 -21 5 -21 10 0 6 6
10 14 10 8 0 18 -4 21 -10z m-235 -10 c0 -5 -7 -10 -16 -10 -8 0 -12 5 -9 10
3 6 10 10 16 10 5 0 9 -4 9 -10z m90 1 c0 -12 -28 -22 -34 -12 -3 5 -3 11 1
15 9 9 33 7 33 -3z m88 -12 c-2 -6 -8 -10 -13 -10 -5 0 -11 4 -13 10 -2 6 4
11 13 11 9 0 15 -5 13 -11z m-238 -19 c-8 -5 -17 -7 -19 -4 -3 3 1 9 9 14 8 5
17 7 19 4 3 -3 -1 -9 -9 -14z m100 10 c0 -5 -7 -10 -15 -10 -8 0 -15 5 -15 10
0 6 7 10 15 10 8 0 15 -4 15 -10z m95 -18 c-8 -8 -25 10 -19 20 4 6 9 5 15 -3
4 -7 6 -15 4 -17z m125 -3 c0 -6 -4 -7 -10 -4 -5 3 -10 11 -10 16 0 6 5 7 10
4 6 -3 10 -11 10 -16z m120 11 c8 -5 11 -12 8 -16 -10 -9 -38 3 -38 16 0 12
10 13 30 0z m-390 -9 c0 -5 -7 -11 -15 -15 -15 -5 -20 5 -8 17 9 10 23 9 23
-2z m99 0 c9 -6 10 -10 2 -16 -16 -9 -44 2 -36 15 8 12 16 12 34 1z m134 -5
c7 -18 -24 -31 -34 -14 -4 6 -5 16 -3 20 8 13 31 9 37 -6z m108 -9 c-1 -12
-15 -9 -19 4 -3 6 1 10 8 8 6 -3 11 -8 11 -12z m-491 -2 c0 -6 -57 -35 -70
-35 -20 0 -9 19 18 28 30 12 52 14 52 7z m190 -25 c-9 -6 -19 -5 -25 1 -6 6
-5 13 5 19 9 6 19 5 25 -1 6 -6 5 -13 -5 -19z m139 17 c8 -11 5 -17 -16 -26
-21 -10 -28 -9 -34 1 -15 23 -10 29 32 37 4 0 12 -5 18 -12z m-439 -10 c0 -8
9 -22 19 -31 18 -16 21 -16 60 4 23 11 41 17 41 12 0 -7 -102 -55 -105 -49 -1
1 -11 16 -23 34 -26 37 -27 43 -7 43 8 0 15 -6 15 -13z m685 4 c3 -6 -3 -15
-14 -21 -24 -12 -42 7 -20 21 18 11 26 11 34 0z m-425 -21 c0 -14 -33 -21 -41
-8 -5 8 -2 15 9 19 19 7 32 3 32 -11z m305 10 c-7 -12 -45 -14 -45 -2 0 4 11
9 26 10 14 1 23 -2 19 -8z m-196 -14 c9 -10 8 -15 -3 -19 -14 -5 -36 10 -36
25 0 13 27 9 39 -6z m138 -3 c2 -6 -6 -14 -18 -18 -27 -9 -47 16 -21 27 21 8
35 5 39 -9z m117 2 c3 -10 -3 -17 -19 -21 -36 -9 -53 6 -24 22 31 17 36 17 43
-1z m132 -2 c-34 -18 -247 -103 -258 -103 -16 0 -8 22 10 27 10 2 63 24 118
47 54 23 112 43 127 43 l29 0 -26 -14z m-826 3 c0 -2 -7 -7 -16 -10 -8 -3 -12
-2 -9 4 6 10 25 14 25 6z m393 -20 c8 -20 -33 -33 -44 -15 -5 8 -3 17 4 21 19
12 34 9 40 -6z m582 5 c-24 -21 -533 -227 -541 -218 -3 3 52 28 123 55 175 69
371 150 391 162 22 12 40 13 27 1z m-465 -11 c12 -7 10 -11 -10 -18 -29 -11
-61 5 -38 19 17 11 30 11 48 -1z m78 -31 c-48 -20 -78 -24 -78 -10 0 13 30 22
51 16 13 -4 19 -1 19 8 0 20 21 27 38 14 11 -8 4 -15 -30 -28z m-254 -1 c-4
-6 -10 -5 -15 3 -14 22 -10 33 6 19 8 -7 12 -17 9 -22z m686 1 c0 -17 -64
-114 -99 -152 -83 -89 -252 -162 -397 -172 -101 -7 -202 13 -293 60 -55 27
-111 93 -111 129 0 12 -9 40 -20 61 l-21 40 63 28 c34 15 66 26 72 24 6 -3 36
-56 66 -120 31 -65 62 -117 72 -120 18 -5 260 81 373 133 127 58 225 98 225
92 0 -4 -15 -26 -33 -49 -66 -87 -218 -178 -342 -203 -59 -12 -241 -8 -281 6
-11 4 -16 4 -12 -1 11 -12 136 -34 195 -35 74 0 175 26 254 66 83 41 202 142
238 200 19 31 29 39 39 32 6 -6 12 -14 12 -19z m-580 7 c0 -18 -27 -29 -36
-14 -4 5 0 14 7 19 20 13 29 11 29 -5z m-50 -26 c0 -5 -10 -14 -21 -21 -17 -9
-23 -8 -30 2 -5 9 -1 18 14 26 22 12 37 9 37 -7z m107 -7 c4 -12 -36 -25 -50
-16 -12 7 23 35 37 30 5 -2 11 -8 13 -14z m593 -29 c25 -25 38 -42 29 -39 -11
4 -19 0 -23 -12 -5 -14 -4 -15 4 -7 8 8 23 9 43 3 18 -4 50 -11 72 -14 106
-15 345 -64 310 -63 -94 2 -115 -2 -137 -27 -11 -13 -36 -29 -54 -35 -50 -17
-76 -55 -73 -108 2 -25 -2 -46 -9 -50 -30 -19 -76 -167 -61 -195 6 -9 5 -18
-1 -22 -16 -10 -12 -55 9 -89 17 -27 18 -37 8 -86 -6 -30 -15 -58 -20 -61 -5
-4 -52 -12 -104 -19 -76 -10 -101 -18 -125 -39 -17 -14 -39 -27 -50 -28 -29
-5 -114 -50 -206 -110 -73 -46 -83 -57 -78 -76 5 -20 -2 -27 -49 -50 -30 -15
-55 -31 -55 -36 0 -15 22 -26 46 -23 11 2 27 -4 34 -13 11 -13 9 -19 -10 -40
-13 -14 -33 -27 -44 -31 -12 -3 -67 -51 -122 -106 -98 -96 -124 -111 -124 -68
0 10 -3 21 -8 24 -4 2 -7 28 -6 58 1 55 2 56 109 223 89 138 225 345 380 580
231 350 285 434 292 453 3 10 -8 0 -23 -22 l-29 -39 -8 71 c-8 65 -7 75 13
107 12 19 23 35 24 35 1 0 22 -21 46 -46z m-656 7 c3 -5 0 -11 -8 -14 -15 -6
-26 1 -26 15 0 11 27 10 34 -1z m101 -1 c9 -15 -53 -42 -73 -31 -15 9 -14 11
8 19 27 10 54 20 57 21 1 1 4 -3 8 -9z m-152 -33 c-3 -5 8 -6 26 -2 24 5 31 3
31 -8 0 -14 -20 -27 -40 -27 -13 0 -41 50 -34 61 4 8 9 7 15 -2 4 -7 5 -17 2
-22z m610 -170 c-7 -12 -21 10 -33 56 -9 31 -8 41 7 61 l18 24 7 -66 c4 -36 4
-70 1 -75z m-613 60 c10 -4 8 -6 -7 -6 -13 -1 -27 8 -34 22 -11 21 -11 21 7 6
10 -9 26 -19 34 -22z m560 3 c0 -5 -4 -10 -10 -10 -5 0 -10 5 -10 10 0 6 5 10
10 10 6 0 10 -4 10 -10z m918 -37 c-27 -48 -27 -47 -33 -41 -7 7 34 78 46 78
4 0 -1 -17 -13 -37z m31 -17 c-11 -20 -25 -36 -30 -36 -14 0 -11 7 18 53 32
50 43 35 12 -17z m332 4 l18 -40 -27 0 c-48 0 -56 12 -38 55 18 43 22 42 47
-15z m-301 -5 c-29 -47 -37 -39 -9 9 12 20 24 35 26 32 3 -3 -5 -21 -17 -41z
m-208 -12 c84 -45 127 -98 139 -170 11 -72 -6 -73 -22 -1 -17 80 -55 122 -119
133 -24 4 -59 16 -77 26 -19 11 -50 21 -69 24 -19 2 -38 6 -43 9 -4 3 -23 1
-42 -4 -18 -6 -43 -7 -54 -3 -18 6 -17 7 10 20 21 10 55 12 118 8 78 -4 97
-10 159 -42z m262 35 c-21 -36 -46 -68 -55 -68 -5 0 3 18 17 40 15 22 31 40
36 40 5 0 6 -6 2 -12z m-1091 -27 c28 -11 67 -49 67 -66 0 -14 -128 -209 -140
-213 -5 -2 -11 18 -15 45 -3 26 -11 75 -16 108 -6 33 -11 66 -12 74 -1 8 16
25 38 38 46 26 46 26 78 14z m1217 -26 c99 -16 182 -33 168 -34 -24 -1 -120
-93 -143 -135 -16 -30 -18 -40 -7 -56 17 -28 15 -31 -13 -24 -18 4 -32 1 -45
-11 -24 -22 -25 -43 -4 -66 15 -17 15 -20 -10 -49 -41 -50 -10 -72 34 -25 19
20 33 25 71 25 44 0 47 2 51 30 3 18 -2 35 -11 46 -15 15 -13 15 28 9 41 -7
45 -5 72 28 25 31 34 35 62 30 24 -4 37 0 51 16 11 12 31 21 46 21 31 0 75 42
67 63 -3 8 -31 29 -62 47 -31 18 -55 34 -53 36 2 2 20 -1 39 -6 61 -16 154
-34 163 -31 5 1 5 -6 1 -16 -5 -10 -9 -28 -9 -40 -1 -11 -4 -19 -7 -17 -3 2
-14 -16 -24 -39 -10 -23 -29 -65 -41 -93 -12 -28 -29 -73 -38 -100 -20 -65
-83 -230 -102 -266 -8 -15 -12 -28 -8 -28 4 0 1 -6 -5 -13 -6 -8 -12 -22 -14
-33 -1 -10 -21 -57 -44 -104 -86 -177 -125 -281 -116 -307 3 -7 -1 -13 -7 -13
-7 0 -9 -8 -5 -20 4 -14 2 -20 -7 -18 -8 2 -13 -7 -14 -22 -3 -63 -4 -66 -14
-50 -5 8 -10 12 -10 8 0 -3 -3 -14 -7 -24 -4 -12 -3 -15 5 -10 7 4 12 6 12 4
0 -11 -59 -151 -59 -141 -1 7 8 36 19 64 24 60 21 78 -3 22 -21 -50 -116 -278
-154 -372 -17 -40 -33 -69 -37 -63 -9 16 -176 109 -208 117 -15 4 -47 24 -70
44 -40 36 -42 41 -42 94 -1 55 0 57 50 104 46 43 86 96 121 162 111 205 127
266 103 383 -16 76 -41 115 -86 134 -34 14 -42 28 -25 38 5 3 15 29 21 58 12
50 12 52 -12 73 -27 24 -24 43 13 75 10 8 38 54 63 101 l46 86 -6 77 c-7 75
-6 77 30 135 20 32 36 63 36 68 0 5 7 18 15 30 13 18 19 20 62 11 26 -5 59
-11 73 -13z m-683 9 c-3 -3 -12 -4 -19 -1 -8 3 -5 6 6 6 11 1 17 -2 13 -5z
m153 -26 c0 -13 -32 -6 -37 9 -3 7 3 9 16 6 12 -3 21 -10 21 -15z m-140 -6
l23 -19 -21 -21 c-32 -32 -84 -29 -117 5 -19 21 -25 24 -25 11 0 -21 46 -58
73 -58 11 0 18 -3 15 -6 -12 -12 -79 9 -89 28 -14 25 -2 79 12 57 7 -11 11
-11 17 -1 5 8 16 10 27 6 13 -5 16 -4 11 4 -12 20 49 14 74 -6z m164 -17 c-29
-22 -94 -17 -94 6 0 6 8 5 19 -1 28 -14 57 -12 71 5 7 9 15 13 18 10 3 -3 -3
-12 -14 -20z m-835 -62 c6 -43 14 -94 16 -113 3 -19 7 -44 9 -55 5 -19 -19
-63 -28 -54 -3 2 -7 16 -10 29 -30 147 -45 219 -51 237 -7 21 3 28 41 32 6 0
16 -32 23 -76z m1156 67 c13 -5 14 -9 5 -9 -8 0 -24 4 -35 9 -13 5 -14 9 -5 9
8 0 24 -4 35 -9z m-1571 -92 c27 -126 87 -402 96 -438 40 -178 45 -220 22
-220 -11 0 -61 197 -124 485 -10 50 -21 97 -23 105 -38 160 -38 168 -5 150 13
-7 24 -33 34 -82z m335 45 c15 -59 49 -205 56 -240 7 -34 -1 -73 -14 -73 -4 0
-22 69 -40 153 -17 83 -34 162 -37 175 -5 16 -2 22 9 22 10 0 20 -14 26 -37z
m941 18 c-18 -34 -12 -68 18 -91 15 -12 20 -18 12 -14 -47 23 -68 82 -38 112
17 17 20 15 8 -7z m626 -26 c-36 -44 -36 -44 -15 -55 19 -11 27 -6 75 41 42
42 56 51 66 41 7 -7 19 -12 28 -12 18 0 91 -59 73 -60 -21 0 -62 19 -82 39
l-20 20 -57 -64 -57 -64 -29 24 c-16 14 -38 25 -49 25 -18 0 -18 3 8 37 23 30
77 73 92 73 2 0 -13 -20 -33 -45z m84 37 c0 -16 -39 -44 -50 -37 -8 5 -6 13 6
26 17 19 44 26 44 11z m-860 -12 c0 -5 -5 -10 -11 -10 -5 0 -7 5 -4 10 3 6 8
10 11 10 2 0 4 -4 4 -10z m282 -12 c21 -34 12 -56 -26 -64 -44 -8 -82 -1 -78
14 1 6 -2 12 -8 12 -15 0 -12 47 3 53 6 3 31 6 53 6 33 1 45 -4 56 -21z
m-1182 -8 c0 -12 7 -49 15 -83 8 -34 23 -102 33 -151 l20 -88 -45 6 c-58 8
-152 54 -175 86 -31 43 -47 132 -32 175 21 62 37 72 114 74 64 1 70 0 70 -19z
m978 14 c15 -4 22 -14 22 -30 l0 -24 -21 21 c-11 11 -27 18 -36 15 -18 -7 -35
2 -28 15 7 10 30 11 63 3z m-108 -24 c-8 -5 -24 -9 -35 -9 -16 1 -16 2 5 9 35
11 48 11 30 0z m-7 -38 c-17 -15 -38 -43 -48 -62 -22 -42 -56 -161 -49 -172 8
-13 32 -9 38 7 10 26 109 13 128 -18 11 -18 18 -4 29 59 27 152 23 174 -34
197 l-32 14 33 1 c24 0 37 -6 49 -24 12 -20 18 -22 25 -12 7 9 8 7 3 -7 -7
-19 -25 -126 -41 -237 -4 -27 -9 -48 -12 -48 -3 0 -17 11 -31 24 -33 30 -99
39 -137 20 -37 -19 -43 -7 -32 66 10 75 46 147 93 188 44 39 58 42 18 4z m837
21 c0 -5 -5 -15 -10 -23 -7 -11 -12 -12 -21 -3 -6 6 -8 16 -5 22 8 12 36 15
36 4z m155 -23 c44 -21 55 -31 43 -35 -10 -4 -24 0 -33 9 -22 21 -64 31 -84
19 -9 -5 -24 -25 -33 -43 -9 -18 -24 -40 -33 -49 -13 -14 -15 -14 -15 2 0 16
78 125 90 126 3 0 32 -13 65 -29z m-1088 -22 c-3 -7 -5 -2 -5 12 0 14 2 19 5
13 2 -7 2 -19 0 -25z m133 15 c-8 -3 -23 -12 -32 -21 -22 -19 -24 -9 -2 12 8
9 23 16 32 15 14 0 14 -2 2 -6z m-210 -33 c-6 -11 -13 -20 -16 -20 -2 0 0 9 6
20 6 11 13 20 16 20 2 0 0 -9 -6 -20z m1138 8 c-5 -15 -48 -24 -48 -10 0 14
12 22 33 22 10 0 17 -5 15 -12z m-878 -13 c15 -18 8 -51 -11 -46 -8 2 -31 6
-51 9 -37 4 -37 4 -21 28 18 27 63 33 83 9z m183 -129 l57 -28 -27 -48 -26
-47 -49 19 c-26 10 -60 18 -74 18 -26 0 -26 1 -21 58 3 31 9 83 13 115 l7 58
31 -58 c27 -49 41 -62 89 -87z m27 134 c-8 -5 -24 -9 -35 -9 -16 1 -16 2 5 9
35 11 48 11 30 0z m481 -13 c26 -17 34 -30 34 -52 0 -25 -4 -31 -27 -33 -26
-3 -27 -1 -22 27 7 33 -10 43 -34 19 -20 -20 -35 4 -23 35 13 33 28 34 72 4z
m-451 -2 c-14 -8 -38 -14 -55 -13 -27 0 -27 1 8 8 20 4 40 10 44 13 3 4 11 7
17 7 6 -1 0 -7 -14 -15z m835 -22 c-3 -21 -7 -79 -9 -128 -2 -55 -10 -106 -21
-130 -25 -58 -112 -287 -144 -380 -16 -44 -39 -109 -53 -145 -14 -36 -37 -99
-52 -140 -15 -41 -32 -84 -37 -95 -5 -11 -36 -94 -69 -185 -34 -91 -67 -181
-75 -200 -7 -19 -26 -69 -40 -110 -15 -41 -34 -95 -42 -118 l-15 -44 -39 38
c-36 36 -37 38 -25 68 52 126 272 691 396 1021 40 105 96 251 125 325 29 74
63 163 76 198 13 34 25 62 27 62 1 0 0 -17 -3 -37z m-1247 19 c-13 -29 -38
-102 -42 -124 -6 -26 -7 -27 -26 -11 -21 18 -27 67 -11 91 15 24 89 65 79 44z
m327 -32 c8 -13 -5 -13 -25 0 -13 8 -13 10 2 10 9 0 20 -4 23 -10z m57 -12
c-6 -6 -15 -8 -19 -4 -4 4 -1 11 7 16 8 5 17 7 19 4 3 -2 -1 -10 -7 -16z
m-239 -13 c19 -12 22 -22 19 -55 -3 -34 -7 -40 -21 -34 -9 3 -37 9 -63 11 -27
3 -48 9 -48 13 0 4 7 24 15 44 13 30 20 36 45 36 17 0 41 -7 53 -15z m367 8
c0 -5 -23 -48 -50 -97 -28 -49 -50 -93 -50 -98 0 -12 24 -10 39 5 8 6 3 -3
-10 -21 l-23 -33 -18 23 c-22 29 -22 30 1 72 11 19 34 61 51 95 18 34 38 61
46 61 8 0 14 -3 14 -7z m278 -63 c49 -30 58 -65 14 -53 -15 3 -22 13 -22 29 0
25 -18 32 -37 13 -13 -13 -33 -4 -33 17 0 20 39 17 78 -6z m-313 -57 c-15 -27
-32 -52 -38 -58 -6 -5 2 13 18 40 15 28 30 53 32 58 2 4 7 7 10 7 2 0 -7 -21
-22 -47z m-1298 -44 c38 -14 78 -22 116 -21 l58 1 -21 -29 c-20 -27 -25 -29
-63 -24 -94 14 -207 85 -207 131 0 11 8 8 30 -10 16 -14 56 -35 87 -48z m743
62 c0 -5 -7 -14 -16 -22 -11 -9 -14 -22 -10 -42 5 -25 4 -28 -9 -17 -15 13
-20 47 -9 74 6 17 44 23 44 7z m820 -15 c0 -2 -8 -10 -17 -17 -16 -13 -17 -12
-4 4 13 16 21 21 21 13z m-800 -31 c0 -8 -4 -15 -9 -15 -13 0 -22 16 -14 24
11 11 23 6 23 -9z m194 -48 c53 -40 109 -114 102 -133 -7 -18 -26 -9 -26 12 0
17 -44 80 -75 106 -11 10 -36 23 -55 29 -63 19 -162 -39 -144 -85 4 -12 2 -15
-9 -10 -8 3 -14 11 -13 17 7 36 19 57 39 63 12 4 33 15 47 26 32 26 79 17 134
-25z m207 -7 c47 -25 57 -49 28 -73 -35 -28 -63 -30 -107 -8 -52 27 -56 34
-40 77 12 33 14 35 47 29 19 -4 52 -15 72 -25z m-1235 9 c9 -15 101 -55 147
-63 23 -4 37 -12 35 -20 -4 -16 -131 -205 -139 -206 -5 0 -50 182 -65 263 -6
36 6 51 22 26z m964 -14 c0 -2 -7 -22 -16 -44 -14 -35 -18 -39 -34 -29 -16 10
-17 24 -4 66 3 11 54 18 54 7z m-87 -52 c-3 -18 -9 -33 -14 -33 -13 0 -11 44
3 58 15 15 17 13 11 -25z m144 26 c17 -17 -21 -91 -42 -83 -18 7 -18 5 1 54
17 43 23 47 41 29z m25 -85 c-24 -31 -34 -19 -14 16 10 17 19 24 23 18 4 -6 0
-21 -9 -34z m-112 -10 c0 -2 -9 0 -20 6 -11 6 -20 13 -20 16 0 2 9 0 20 -6 11
-6 20 -13 20 -16z m255 -4 c3 -6 -1 -7 -9 -4 -18 7 -21 14 -7 14 6 0 13 -4 16
-10z m-231 -50 c-15 -22 -28 -40 -31 -40 -2 0 6 18 17 40 11 22 25 40 30 40 6
0 -2 -18 -16 -40z m-34 23 c0 -10 -25 -53 -31 -53 -5 0 -6 -7 -3 -15 4 -8 1
-15 -4 -15 -16 0 -24 18 -12 25 5 3 10 19 10 35 0 23 4 28 20 27 11 -1 20 -2
20 -4z m-99 -43 c4 -19 13 -36 20 -39 8 -2 -18 -13 -55 -23 -38 -10 -82 -28
-98 -40 -18 -13 -61 -25 -116 -33 -48 -8 -107 -18 -132 -24 -24 -5 -46 -9 -47
-7 -2 2 6 14 17 29 11 14 20 29 20 34 0 4 22 32 48 62 l47 53 95 12 c52 7 117
12 145 12 48 -1 49 -2 56 -36z m1276 23 c-6 -9 -17 -208 -18 -303 -1 -67 -6
-84 -84 -305 -26 -71 -50 -143 -55 -160 -4 -16 -36 -109 -70 -205 -34 -96 -68
-193 -75 -215 -116 -339 -135 -385 -135 -320 0 13 -14 65 -30 116 l-31 94 51
135 c28 74 65 173 81 220 16 47 37 100 45 118 9 19 26 64 39 100 13 37 39 110
59 162 30 83 54 146 157 420 12 30 28 76 37 102 10 26 21 48 25 48 5 0 6 -3 4
-7z m-1129 -43 c-20 -35 -38 -51 -38 -34 0 7 51 74 56 74 3 0 -6 -18 -18 -40z
m70 10 c-12 -16 -26 -30 -31 -30 -4 0 1 14 13 30 12 17 26 30 31 30 5 0 0 -13
-13 -30z m177 -51 l123 -61 -40 -71 c-21 -40 -48 -91 -59 -114 l-19 -42 -28
26 c-15 14 -60 47 -99 74 -44 30 -79 62 -89 82 -9 17 -27 44 -41 58 l-24 26
45 12 c30 7 51 20 66 41 12 16 26 30 32 30 5 0 66 -27 133 -61z m-783 -11 c-7
-7 -12 -8 -12 -2 0 6 3 14 7 17 3 4 9 5 12 2 2 -3 -1 -11 -7 -17z m-25 5 c-9
-9 -87 -43 -87 -38 0 6 72 44 84 45 5 0 6 -3 3 -7z m364 -24 c-29 -10 -60 -24
-67 -30 -8 -7 -14 -7 -14 -1 0 12 88 51 115 51 11 0 -4 -9 -34 -20z m129 9 c0
-7 14 -24 30 -38 17 -14 37 -43 44 -65 11 -32 27 -50 82 -88 38 -26 86 -64
106 -84 36 -35 38 -36 57 -19 10 10 22 29 25 42 8 29 98 193 107 194 8 0 29
-47 29 -65 0 -8 -6 -15 -14 -15 -19 0 -70 -79 -97 -149 -23 -59 -28 -107 -16
-154 7 -25 12 -28 32 -23 14 4 25 4 25 1 0 -12 -45 -95 -52 -95 -4 0 -8 -6 -8
-13 0 -7 -22 -38 -50 -68 l-50 -54 3 42 c1 24 6 43 10 43 5 0 5 -15 2 -32 l-7
-33 34 37 c18 21 48 65 66 98 32 57 32 60 12 60 -14 0 -22 -8 -26 -27 -3 -16
-11 -35 -17 -43 -15 -19 -63 -50 -78 -50 -6 0 -34 20 -62 45 -28 25 -75 57
-104 72 l-53 28 6 51 c12 100 -38 172 -136 193 -93 20 -116 16 -181 -36 -33
-25 -68 -60 -79 -77 -32 -53 -62 -74 -114 -81 -27 -3 -53 -8 -57 -11 -17 -10
-19 61 -4 131 10 42 15 78 12 81 -9 9 -31 -107 -32 -163 0 -36 -4 -53 -12 -53
-7 0 -13 4 -13 9 0 18 30 156 47 218 l18 62 49 11 c66 14 179 30 227 32 21 1
39 5 39 9 0 12 30 39 43 39 7 -1 5 -6 -4 -13 -30 -23 -40 -53 -28 -81 19 -40
56 -58 130 -64 63 -4 69 -3 94 22 22 22 26 33 21 59 -8 39 -30 64 -71 79 -29
10 -32 14 -22 30 13 21 37 24 37 6z m-490 -16 c0 -7 -190 -100 -224 -110 -6
-2 36 24 94 57 101 58 130 70 130 53z m488 -42 c28 -17 33 -25 30 -53 -3 -28
-8 -33 -40 -41 -49 -12 -113 7 -134 40 -16 23 -16 26 6 49 30 32 91 34 138 5z
m-558 -25 c-25 -13 -49 -24 -55 -24 -5 0 10 11 35 24 25 13 50 24 55 24 6 0
-10 -11 -35 -24z m315 15 c-16 -4 -50 -8 -75 -7 l-45 0 40 7 c22 4 56 7 75 7
l35 1 -30 -8z m1545 -57 c39 -37 77 -81 85 -99 27 -64 22 -147 -20 -334 -13
-58 -31 -141 -40 -185 -9 -44 -21 -93 -26 -109 -12 -38 -5 -45 10 -9 16 41 92
356 105 438 6 39 9 100 6 136 -5 61 -9 71 -48 118 -24 28 -41 51 -39 51 20 0
125 -58 182 -100 162 -120 270 -269 315 -432 22 -82 -10 -237 -85 -417 -52
-124 -113 -230 -311 -536 -120 -187 -335 -430 -415 -470 -55 -28 -84 -32 -76
-11 3 8 26 88 51 178 25 89 75 258 111 373 79 249 185 612 184 629 -2 46 -317
-961 -366 -1171 -3 -13 -10 -23 -15 -23 -5 0 -7 8 -4 18 3 9 8 31 12 47 11 50
72 257 92 315 10 30 22 73 26 95 7 40 36 143 80 285 13 41 31 102 41 135 9 33
30 101 46 150 15 50 42 144 59 210 18 66 40 152 51 190 68 245 82 359 53 421
-21 44 -93 125 -128 143 -26 14 -35 31 -16 31 5 0 41 -30 80 -67z m-1673 41
c-3 -3 -12 -4 -19 -1 -8 3 -5 6 6 6 11 1 17 -2 13 -5z m1719 -10 c209 -83 400
-252 483 -427 42 -88 51 -150 40 -269 -21 -219 -183 -546 -471 -949 -64 -89
-259 -306 -305 -340 -101 -73 -156 -101 -185 -95 -75 15 -142 108 -153 211 -3
33 -10 143 -15 245 -13 243 -19 278 -66 422 -33 101 -72 156 -141 205 -64 44
-248 143 -267 143 -7 0 -24 13 -39 28 -41 43 -62 172 -27 172 5 0 10 -17 10
-39 0 -69 16 -94 84 -134 34 -20 65 -37 69 -37 12 0 164 -94 204 -126 54 -44
110 -122 134 -185 35 -92 60 -297 60 -484 -1 -184 9 -238 54 -307 35 -52 76
-72 134 -63 69 10 96 28 200 134 103 103 203 231 296 376 32 50 86 133 120
185 231 354 326 655 264 839 -61 179 -299 414 -483 477 -25 9 -48 20 -52 25
-8 13 8 11 52 -7z m-1882 -6 c-2 -7 -20 -24 -38 -38 -19 -14 -59 -47 -90 -73
l-55 -49 -25 19 c-14 10 -26 20 -26 23 0 4 228 129 237 130 1 0 0 -6 -3 -12z
m81 2 c-11 -5 -29 -8 -40 -8 -16 0 -15 2 5 8 34 11 60 11 35 0z m310 -40 c10
-11 16 -20 13 -20 -3 0 -13 9 -23 20 -10 11 -16 20 -13 20 3 0 13 -9 23 -20z
m427 -118 c16 -18 10 -15 -22 10 -25 20 -71 52 -102 72 -32 20 -58 41 -58 46
0 12 151 -94 182 -128z m1041 62 c16 -24 32 -58 38 -76 9 -32 -1 -127 -21
-198 -9 -33 -21 -78 -84 -315 -15 -55 -52 -183 -82 -285 -31 -102 -68 -228
-84 -280 -16 -52 -41 -142 -55 -200 -15 -58 -39 -139 -52 -180 -14 -41 -42
-135 -63 -209 -22 -74 -43 -138 -49 -144 -12 -12 -67 63 -83 115 -13 46 -38
-36 272 892 207 621 220 662 219 730 0 39 -4 91 -7 116 -6 39 -11 45 -40 54
-39 11 -40 37 -2 46 31 8 56 -10 93 -66z m-1899 -50 c-4 -16 -92 -69 -101 -61
-1 2 21 21 50 44 28 23 52 41 54 40 1 -2 0 -12 -3 -23z m361 14 c-11 -6 -29
-18 -40 -27 -14 -11 -12 -7 4 12 14 15 32 27 40 27 12 -1 11 -3 -4 -12z m-477
-55 c-15 -15 -30 -24 -34 -20 -7 7 35 46 51 47 5 0 -3 -12 -17 -27z m365 -40
c-16 -21 -35 -53 -42 -70 -12 -31 -17 -33 -60 -33 -26 0 -70 -6 -100 -14 -29
-7 -48 -9 -43 -4 5 5 47 16 92 24 46 8 84 15 85 17 6 13 87 117 91 117 3 0 -7
-17 -23 -37z m767 27 c0 -5 -5 -10 -11 -10 -5 0 -7 5 -4 10 3 6 8 10 11 10 2
0 4 -4 4 -10z m780 -222 c-23 -68 -45 -132 -50 -143 -4 -11 -20 -56 -34 -100
-33 -104 -97 -294 -156 -470 -27 -77 -53 -156 -59 -175 -26 -86 -129 -381
-135 -387 -9 -10 -7 107 3 147 9 35 197 587 351 1030 45 129 89 258 98 285
l17 50 3 -57 c2 -45 -5 -82 -38 -180z m-838 190 c-7 -7 -12 -8 -12 -2 0 14 12
26 19 19 2 -3 -1 -11 -7 -17z m-1147 -18 c-10 -11 -23 -20 -28 -20 -6 0 0 11
13 25 27 29 42 25 15 -5z m557 20 c57 -16 59 -33 4 -25 -30 5 -46 4 -46 -3 0
-13 15 -18 118 -36 46 -8 86 -16 88 -19 3 -3 0 -23 -6 -46 -13 -49 -17 -50
-158 -20 l-99 21 9 40 c10 45 35 98 46 98 4 0 24 -5 44 -10z m659 -17 c-12
-20 -14 -14 -5 12 4 9 9 14 11 11 3 -2 0 -13 -6 -23z m-772 -40 c-10 -21 -19
-49 -19 -64 0 -25 5 -28 53 -38 28 -6 77 -16 107 -22 120 -24 129 -24 141 8 6
15 11 36 12 46 2 26 16 21 23 -9 8 -32 -12 -104 -29 -104 -7 0 -39 10 -72 21
-57 19 -192 45 -263 51 -26 2 -32 7 -32 25 0 16 6 23 20 23 11 0 23 8 26 18
10 30 38 82 45 82 4 0 -2 -17 -12 -37z m727 18 c-4 -6 -14 -7 -23 -4 -15 6
-14 7 3 13 22 9 29 6 20 -9z m-1218 -12 c12 -18 9 -24 -30 -59 -47 -42 -58
-46 -76 -28 -10 10 -2 23 35 60 26 26 50 48 53 48 3 0 11 -9 18 -21z m1252 2
c0 -5 -9 -19 -20 -32 l-20 -24 17 32 c19 34 23 39 23 24z m-1557 -299 c-2
-301 -7 -372 -26 -353 -6 6 -12 126 -15 311 -4 278 -3 302 13 320 10 11 21 20
24 20 3 0 5 -134 4 -298z m27 241 c-1 -36 -3 -44 -10 -31 -9 14 -3 78 6 78 2
0 4 -21 4 -47z m571 -50 c-8 -15 -10 -15 -11 -2 0 17 10 32 18 25 2 -3 -1 -13
-7 -23z m-26 -19 c15 -37 19 -51 10 -43 -8 9 -35 79 -30 79 2 0 12 -16 20 -36z
m135 -59 c18 -22 5 -30 -26 -16 -20 9 -25 17 -20 34 3 12 6 33 6 47 1 21 3 19
14 -13 8 -20 19 -44 26 -52z m523 40 c77 -52 104 -77 112 -105 6 -21 3 -20
-19 10 -15 19 -59 56 -98 83 -40 26 -66 47 -59 47 7 0 36 -16 64 -35z m-250
-37 c37 -11 69 -24 72 -28 3 -4 -11 -11 -30 -14 -38 -7 -125 23 -125 43 0 6
-12 11 -27 11 -16 0 -35 5 -43 11 -22 16 71 2 153 -23z m-932 1 c-3 -8 -4 -27
-3 -44 5 -61 1 -348 -4 -356 -3 -5 0 -9 5 -9 6 0 11 -11 11 -25 0 -33 -26 -33
-34 0 -4 14 -4 30 -2 34 3 4 6 101 6 215 1 154 4 206 13 203 7 -3 10 -11 8
-18z m-34 -11 c-3 -8 -6 -5 -6 6 -1 11 2 17 5 13 3 -3 4 -12 1 -19z m1270 -40
c6 -7 13 -28 15 -46 4 -26 0 -35 -15 -44 -18 -9 -102 -7 -112 4 -3 2 7 34 22
71 l26 66 27 -19 c15 -10 31 -25 37 -32z m-673 -67 c-4 -44 -11 -81 -16 -81
-8 0 -1 129 8 159 11 33 14 -2 8 -78z m-469 -56 l-15 -40 4 66 c4 80 20 114
24 54 1 -22 -4 -58 -13 -80z m1018 109 c11 -11 -3 -24 -18 -18 -8 4 -12 10 -9
15 6 11 18 12 27 3z m-336 -40 c2 -7 -6 -10 -22 -6 -35 6 -44 24 -9 20 15 -2
29 -8 31 -14z m268 -4 c-3 -5 -12 -10 -18 -10 -7 0 -6 4 3 10 19 12 23 12 15
0z m45 -10 c0 -5 -18 -48 -41 -96 -25 -53 -44 -83 -50 -77 -11 11 71 194 83
187 5 -3 8 -9 8 -14z m-1042 -155 c-1 -91 -6 -165 -10 -165 -12 0 -14 302 -1
323 12 20 14 -6 11 -158z m1239 135 c-6 -16 -15 -30 -19 -30 -5 0 -2 14 7 30
9 17 17 30 19 30 3 0 -1 -13 -7 -30z m-527 0 c16 -8 17 -15 8 -44 -10 -33 -12
-34 -52 -28 -22 2 -42 6 -44 7 -2 1 5 19 14 39 18 37 39 45 74 26z m1026 -57
c-8 -15 -15 -22 -16 -15 0 17 20 55 27 49 2 -3 -2 -18 -11 -34z m-906 -23 c0
-5 -5 -10 -11 -10 -5 0 -7 5 -4 10 3 6 8 10 11 10 2 0 4 -4 4 -10z m-318 -61
c1 -28 0 -53 -4 -56 -5 -2 -8 7 -8 20 0 14 -3 39 -6 56 -4 19 -2 31 4 31 5 0
12 -23 14 -51z m178 41 c13 -9 13 -10 0 -9 -8 1 -26 5 -40 9 l-25 8 25 1 c14
0 32 -4 40 -9z m-26 -26 c21 -8 0 -54 -26 -54 -20 0 -21 4 -12 38 7 23 13 26
38 16z m149 -9 c-6 -17 -25 -15 -31 3 -2 7 5 12 17 12 14 0 19 -5 14 -15z
m868 -56 c-11 -24 -20 -41 -20 -37 -1 12 31 89 35 85 3 -2 -4 -24 -15 -48z
m-1635 -11 c-3 -24 -10 -63 -15 -88 -9 -42 -10 -40 -6 25 3 67 11 105 22 105
3 0 2 -19 -1 -42z m738 26 c22 -9 10 -23 -14 -17 -11 3 -17 9 -14 14 6 11 8
11 28 3z m135 -54 c-17 -27 -35 -50 -40 -50 -5 0 2 23 16 50 14 28 32 50 40
50 11 0 7 -13 -16 -50z m-167 -12 c40 -19 94 -51 121 -71 26 -21 50 -37 53
-37 15 0 114 -77 114 -88 0 -8 -3 -12 -7 -10 -116 55 -156 77 -194 105 -25 18
-77 47 -115 64 -75 35 -129 40 -309 26 -69 -5 -73 -5 -27 3 29 6 78 19 110 30
82 29 161 22 254 -22z m892 -47 c-9 -23 -18 -40 -20 -38 -2 2 4 22 13 45 9 23
18 40 20 38 2 -2 -4 -22 -13 -45z m-1034 24 c0 -3 -8 -22 -19 -43 -37 -73 -73
-208 -83 -312 -5 -58 -12 -107 -15 -110 -7 -7 -90 85 -120 133 -13 21 -21 43
-17 49 4 6 3 8 -3 5 -12 -8 -26 20 -17 34 3 5 1 9 -5 9 -6 0 -7 7 -4 17 5 12
3 14 -7 8 -10 -6 -12 -4 -7 8 3 10 2 17 -3 17 -5 0 -7 17 -5 38 4 31 3 33 -4
12 -13 -36 -13 -10 0 50 12 59 28 70 96 70 26 0 55 5 63 10 16 10 150 14 150
5z m95 -26 c33 -11 87 -39 120 -61 32 -23 80 -50 105 -61 65 -29 109 -65 105
-86 -12 -61 -32 -104 -64 -133 -34 -31 -34 -31 -8 -2 51 57 28 90 -57 81 -73
-7 -142 -39 -193 -90 -50 -48 -54 -69 -17 -86 32 -14 29 -21 -8 -14 -20 4 -27
12 -31 36 -2 18 0 38 6 45 14 18 4 24 -16 9 -11 -7 -18 -27 -19 -50 -1 -37 -2
-37 -44 -37 -53 0 -55 7 -53 130 1 80 7 113 34 194 33 95 58 146 73 146 4 0
35 -9 67 -21z m-707 -55 c34 -10 26 -19 -17 -19 -30 0 -37 3 -29 13 12 14 14
14 46 6z m1613 -17 c-10 -9 -11 -8 -5 6 3 10 9 15 12 12 3 -3 0 -11 -7 -18z
m-1598 -29 c15 -11 10 -13 -28 -13 -40 -1 -44 1 -29 12 22 16 36 16 57 1z m17
-43 c7 -8 18 -39 25 -68 l12 -52 -66 0 -67 0 7 56 c4 32 10 62 13 68 10 16 62
13 76 -4z m99 -101 c-17 -21 -26 -17 -32 14 -3 15 -9 36 -13 47 -5 13 3 9 24
-14 25 -26 30 -36 21 -47z m1505 35 c33 -47 32 -53 -29 -209 -18 -47 -56 -148
-85 -225 -28 -77 -55 -149 -60 -160 -5 -11 -19 -49 -31 -85 -12 -36 -25 -69
-29 -75 -4 -5 -14 -32 -23 -60 -8 -27 -26 -79 -40 -115 -13 -36 -37 -100 -53
-144 l-29 -78 -21 93 c-22 92 -22 95 -4 139 20 48 61 159 105 280 14 41 31 84
36 95 4 11 38 97 74 190 36 94 70 179 75 190 5 11 24 62 42 112 18 51 35 93
38 93 3 0 18 -19 34 -41z m-1557 -31 c-3 -8 -6 -5 -6 6 -1 11 2 17 5 13 3 -3
4 -12 1 -19z m21 -67 c-3 -18 -6 -18 -50 -3 -42 13 -52 13 -93 0 -56 -19 -58
-9 -4 21 36 21 46 22 79 12 48 -14 50 -14 50 7 1 16 1 16 11 -1 6 -10 9 -26 7
-36z m62 27 c0 -19 -2 -20 -10 -8 -13 19 -13 30 0 30 6 0 10 -10 10 -22z m810
-19 c0 -6 -4 -7 -10 -4 -5 3 -10 11 -10 16 0 6 5 7 10 4 6 -3 10 -11 10 -16z
m-896 -36 c8 -5 -17 -8 -64 -8 -65 0 -76 2 -67 14 12 14 102 11 131 -6z m834
-5 c-2 -12 -8 -23 -14 -25 -7 -2 -10 6 -7 22 6 30 26 34 21 3z m792 -43 c43
-186 42 -207 -30 -421 -54 -159 -96 -278 -120 -339 -12 -28 -145 -417 -170
-495 -34 -106 -82 -230 -89 -230 -4 0 -18 60 -30 133 -13 72 -29 166 -36 207
-19 102 -19 103 4 90 11 -5 22 -7 24 -3 3 5 33 82 67 173 34 91 68 179 76 197
8 17 14 36 14 42 0 6 4 19 10 29 11 20 201 527 232 620 12 35 24 59 28 55 5
-4 13 -30 20 -58z m-890 0 c0 -5 5 -3 10 5 8 13 10 13 10 -2 0 -17 -51 -35
-70 -23 -21 13 -9 30 20 30 17 0 30 -4 30 -10z m-103 -27 c-3 -8 -6 -5 -6 6
-1 11 2 17 5 13 3 -3 4 -12 1 -19z m-737 -38 c0 -11 -4 -20 -10 -20 -5 0 -10
9 -10 20 0 11 5 20 10 20 6 0 10 -9 10 -20z m-46 -6 c9 -24 7 -28 -9 -14 -17
14 -20 30 -6 30 5 0 12 -7 15 -16z m106 -4 c0 -11 -4 -20 -10 -20 -5 0 -10 9
-10 20 0 11 5 20 10 20 6 0 10 -9 10 -20z m66 -2 c-3 -13 -6 -29 -6 -36 0 -7
-4 -10 -10 -7 -17 11 -12 65 6 65 12 0 15 -6 10 -22z m-910 -234 c16 -4 41 -7
57 -8 15 0 27 -4 27 -8 0 -5 3 -7 8 -6 4 1 31 -6 59 -16 32 -10 66 -15 85 -12
20 4 26 3 15 -2 -13 -6 10 -15 85 -35 162 -44 212 -56 228 -56 13 -1 13 0 0 9
-9 6 -10 10 -3 10 7 0 16 -7 20 -15 5 -8 33 -21 63 -29 30 -8 89 -24 130 -35
41 -11 183 -47 315 -81 345 -88 539 -139 625 -162 41 -11 91 -23 110 -28 19
-4 60 -15 91 -24 55 -16 57 -18 68 -62 6 -25 15 -42 20 -39 5 3 4 20 -2 40 -8
26 -7 39 1 47 8 8 12 0 17 -28 4 -22 13 -64 21 -95 17 -68 17 -79 4 -79 -5 0
-10 10 -10 23 -1 26 -28 89 -29 67 -1 -8 3 -29 8 -46 l9 -31 -67 17 c-205 55
-350 94 -461 125 -69 19 -145 40 -170 45 -25 6 -67 17 -95 24 -89 25 -238 65
-305 82 -76 19 -313 81 -455 119 -198 52 -330 87 -353 92 -16 4 -46 40 -94
111 -38 57 -66 102 -61 99 5 -3 23 -9 39 -13z m391 -80 c-3 -3 -12 -4 -19 -1
-8 3 -5 6 6 6 11 1 17 -2 13 -5z m38 -14 c3 -6 -1 -7 -9 -4 -18 7 -21 14 -7
14 6 0 13 -4 16 -10z m2065 -403 c-218 -657 -319 -952 -327 -954 -5 -2 -14 15
-20 38 -12 46 -19 22 142 484 92 263 244 712 258 760 12 40 12 39 15 -38 3
-74 -1 -90 -68 -290z m-1435 235 c-3 -3 -11 0 -18 7 -9 10 -8 11 6 5 10 -3 15
-9 12 -12z m-790 -12 c3 -5 -3 -10 -15 -10 -12 0 -18 5 -15 10 3 6 10 10 15
10 5 0 12 -4 15 -10z m2341 -121 c14 -28 37 -62 50 -74 l25 -23 -16 -59 c-33
-117 -188 -581 -216 -648 -5 -11 -22 -56 -38 -100 -92 -254 -172 -359 -313
-410 -137 -50 -217 -35 -334 63 -33 27 -75 73 -93 101 -37 57 -71 156 -71 206
l0 33 83 -28 c45 -16 150 -49 232 -75 83 -25 176 -54 208 -64 l58 -18 18 36
c10 20 35 90 56 156 21 66 69 210 106 320 37 110 100 298 140 418 40 119 74
217 76 217 1 0 14 -23 29 -51z m-2060 -131 c41 -11 72 -23 70 -26 -7 -6 -156
32 -156 41 0 10 3 10 86 -15z m59 -43 c42 -12 55 -22 79 -60 31 -51 30 -61 -9
-51 -19 5 -25 12 -21 22 9 22 -10 51 -44 69 -33 17 -54 20 -45 5 3 -5 15 -10
25 -10 25 0 54 -43 46 -67 -4 -10 -16 -29 -26 -42 -19 -22 -22 -23 -38 -7 -10
9 -31 16 -45 16 -15 0 -27 2 -27 4 0 2 11 24 25 47 27 48 34 82 13 61 -17 -17
-24 -15 -43 14 l-17 27 38 -6 c22 -4 62 -13 89 -22z m87 -25 l20 -35 -28 31
c-16 18 -36 34 -44 38 -8 3 -5 4 8 3 14 -1 31 -15 44 -37z m-131 -127 c13 -16
12 -17 -3 -4 -10 7 -18 15 -18 17 0 8 8 3 21 -13z m1399 3 c0 -8 50 -240 56
-258 3 -10 2 -18 -3 -18 -4 0 -16 34 -26 76 -10 41 -27 103 -38 136 -23 73
-23 68 -4 68 8 0 15 -2 15 -4z m-1410 -28 c0 -22 -17 -41 -29 -34 -8 5 -8 13
-1 27 12 21 30 26 30 7z m1447 -30 c-3 -7 -5 -2 -5 12 0 14 2 19 5 13 2 -7 2
-19 0 -25z m-328 -55 c67 -19 89 -29 75 -34 -17 -6 -16 -8 9 -14 24 -6 27 -12
27 -51 0 -46 -1 -47 -38 -38 -15 4 -21 12 -18 23 7 21 -10 41 -58 71 -33 20
-43 22 -67 13 -32 -12 -36 -9 -43 30 -6 33 -5 33 113 0z m-59 -83 c0 -37 2
-40 29 -40 26 0 60 -24 49 -35 -8 -8 -78 8 -78 18 0 5 -6 15 -14 21 -9 7 -12
22 -9 44 7 45 23 40 23 -8z m32 5 c-6 -34 -12 -32 -12 6 0 16 4 28 9 25 4 -3
6 -17 3 -31z m-118 6 c3 -5 -16 -14 -42 -22 -33 -9 -62 -28 -98 -64 -64 -64
-101 -135 -119 -228 -17 -89 -35 -141 -77 -220 -41 -78 -162 -201 -222 -227
-61 -26 -187 -58 -271 -69 -77 -10 -164 -45 -172 -70 -9 -25 -25 -41 -34 -35
-15 9 22 54 65 79 23 13 79 31 126 40 116 22 247 62 295 90 76 44 189 183 233
285 10 25 25 77 32 115 20 107 64 187 142 260 59 56 80 68 125 74 6 0 14 -3
17 -8z m56 -1 c0 -5 -9 -10 -20 -10 -11 0 -20 5 -20 10 0 6 9 10 20 10 11 0
20 -4 20 -10z m115 -4 c25 -18 13 -48 -15 -38 -12 4 -21 11 -21 15 1 4 1 14 1
22 0 19 11 19 35 1z m-816 -166 c185 -61 342 -114 348 -118 10 -6 9 -20 -2
-61 -38 -146 -164 -314 -277 -372 -52 -27 -215 -75 -295 -88 -34 -5 -75 -17
-92 -25 -16 -9 -38 -16 -49 -16 -19 0 -142 39 -142 45 0 2 16 32 36 66 62 105
141 281 163 360 27 95 26 154 0 221 -37 94 -39 98 -32 98 4 0 158 -50 342
-110z m1151 25 c0 -5 -5 -3 -10 5 -5 8 -10 20 -10 25 0 6 5 3 10 -5 5 -8 10
-19 10 -25z m-388 -5 c-2 -16 -8 -30 -13 -30 -10 0 -12 21 -3 44 10 27 21 18
16 -14z m-38 -125 c-16 -61 -32 -94 -20 -40 16 69 28 107 31 103 2 -2 -3 -31
-11 -63z m-1304 -541 c0 -8 -4 -12 -10 -9 -5 3 -10 10 -10 16 0 5 5 9 10 9 6
0 10 -7 10 -16z m133 -26 l70 -21 -22 -18 c-26 -21 -57 -18 -108 13 -20 12
-30 24 -26 34 7 18 2 18 86 -8z m-85 -49 c-6 -45 -63 -51 -77 -8 -4 12 -2 12
12 0 20 -16 47 -8 47 14 0 8 5 15 11 15 6 0 9 -10 7 -21z m467 -86 c131 -51
144 -58 130 -72 -10 -10 -165 36 -330 96 -85 31 -96 40 -72 58 20 15 22 14
272 -82z m-387 73 c1 -2 -5 -17 -13 -33 -12 -24 -20 -30 -36 -26 -12 4 -18 11
-15 20 3 8 6 24 6 35 0 17 4 19 27 13 16 -4 29 -8 31 -9z m65 -46 c7 0 18 5
25 12 7 7 12 8 12 2 0 -14 -21 -34 -36 -34 -21 0 -44 29 -37 47 5 14 8 13 14
-5 5 -12 14 -22 22 -22z m-143 15 c-7 -8 -17 -15 -22 -15 -6 0 -5 7 2 15 7 8
17 15 22 15 6 0 5 -7 -2 -15z m151 -43 c20 3 29 0 29 -9 0 -17 -29 -17 -74 2
-39 17 -39 16 -30 39 5 13 10 11 27 -10 15 -20 27 -25 48 -22z m242 -31 c98
-33 181 -62 184 -65 9 -9 -18 -66 -32 -66 -8 0 -76 24 -152 54 -76 29 -151 58
-168 63 -16 5 -30 15 -29 21 1 7 2 21 3 32 0 11 4 20 9 20 4 0 87 -27 185 -59z"/>
<path d="M4280 5984 c-113 -38 -520 -184 -528 -189 -7 -5 81 -352 93 -363 2
-3 44 10 92 27 48 18 167 60 263 93 96 33 181 67 189 74 12 11 13 34 2 156
-14 175 -21 228 -30 227 -3 0 -40 -12 -81 -25z m54 -111 c3 -38 10 -101 14
-142 l8 -73 -36 -16 c-54 -23 -68 -28 -165 -61 -49 -17 -135 -46 -189 -66 -54
-19 -101 -33 -104 -31 -8 8 -40 159 -47 221 l-6 61 68 24 c169 60 429 148 439
149 7 1 14 -27 18 -66z"/>
<path d="M4268 5908 c-16 -5 -28 -16 -28 -24 0 -17 0 -17 44 1 59 25 45 46
-16 23z"/>
<path d="M4017 5823 c-148 -48 -197 -69 -193 -79 3 -8 8 -37 11 -66 9 -75 17
-90 26 -48 5 25 6 13 6 -42 -1 -42 1 -79 4 -83 4 -3 71 19 150 48 79 30 161
60 182 66 35 12 37 15 37 57 0 32 -4 44 -15 44 -8 0 -15 6 -15 14 0 8 -5 18
-11 22 -8 4 -9 -3 -4 -24 7 -36 -12 -54 -31 -28 -11 15 -13 14 -22 -11 l-10
-28 -15 35 -16 35 -1 -41 c0 -41 -15 -51 -48 -30 -8 5 -12 -1 -12 -21 -1 -25
-3 -22 -24 22 -13 28 -26 57 -29 65 -4 10 -6 8 -6 -7 -1 -12 -6 -25 -12 -29
-7 -4 -9 8 -7 37 2 24 8 44 13 44 5 0 19 -25 30 -55 17 -48 20 -51 23 -27 3
25 22 40 22 17 0 -7 6 -7 20 0 14 8 20 21 20 46 0 41 15 37 25 -6 4 -17 11
-30 17 -30 6 0 8 9 5 19 -7 26 10 52 19 28 12 -33 26 -18 19 23 -5 28 -3 40 5
40 7 0 14 -9 17 -20 9 -35 18 -22 21 30 2 28 2 50 0 50 -2 -1 -92 -30 -201
-67z m-116 -153 c7 -22 16 -37 20 -34 5 3 9 -1 9 -10 0 -8 3 -23 7 -33 6 -16
5 -16 -10 -4 -9 7 -17 17 -17 21 0 4 -7 25 -16 45 -12 29 -18 35 -25 24 -10
-16 -12 1 -3 25 9 23 22 11 35 -34z m45 -12 l8 -23 7 25 c6 22 7 20 8 -13 1
-23 -3 -36 -9 -32 -15 10 -42 65 -31 65 5 0 13 -10 17 -22z"/>
<path d="M4280 5866 c-19 -7 -36 -20 -38 -29 -3 -15 0 -15 37 1 23 9 41 23 41
30 0 6 -1 12 -2 11 -2 0 -19 -6 -38 -13z"/>
<path d="M4273 5814 c-34 -14 -44 -34 -19 -34 27 0 73 25 69 38 -6 15 -9 14
-50 -4z"/>
<path d="M4283 5767 c-18 -7 -32 -16 -30 -22 1 -5 4 -9 7 -8 36 12 60 13 60 4
0 -6 -14 -14 -32 -19 -17 -4 -33 -13 -36 -20 -2 -8 7 -8 35 2 32 11 38 18 41
44 4 35 2 36 -45 19z"/>
<path d="M4293 5687 c-32 -12 -38 -18 -31 -37 5 -17 68 12 68 32 0 10 -1 18
-2 17 -2 0 -18 -6 -35 -12z"/>
<path d="M3800 5053 c0 -23 124 -103 137 -89 3 2 -13 14 -35 25 -21 11 -53 32
-71 46 -17 15 -31 23 -31 18z"/>
<path d="M5018 4883 c6 -2 18 -2 25 0 6 3 1 5 -13 5 -14 0 -19 -2 -12 -5z"/>
<path d="M5008 4863 c6 -2 18 -2 25 0 6 3 1 5 -13 5 -14 0 -19 -2 -12 -5z"/>
<path d="M5370 4820 c34 -11 60 -11 35 0 -11 5 -29 8 -40 8 -16 0 -15 -2 5 -8z"/>
<path d="M5040 4438 c1 -31 1 -32 15 -14 19 25 19 46 0 46 -10 0 -15 -10 -15
-32z"/>
<path d="M5021 4304 c0 -11 3 -14 6 -6 3 7 2 16 -1 19 -3 4 -6 -2 -5 -13z"/>
<path d="M4765 3812 c-19 -19 24 -35 128 -46 47 -5 57 -3 57 9 0 10 -10 15
-27 15 -16 1 -56 7 -90 14 -34 7 -65 11 -68 8z"/>
<path d="M4752 3758 c4 -12 177 -50 191 -41 19 12 0 21 -81 36 -105 20 -115
21 -110 5z"/>
<path d="M4586 3645 c-3 -9 0 -15 9 -15 9 0 12 6 9 15 -4 8 -7 15 -9 15 -2 0
-5 -7 -9 -15z"/>
<path d="M5118 3568 c-29 -61 -22 -71 40 -66 33 3 37 6 40 33 2 23 -4 37 -26
59 l-30 28 -24 -54z"/>
<path d="M4450 2833 c0 -13 29 -38 35 -31 3 3 -4 13 -15 23 -11 10 -20 13 -20
8z"/>
<path d="M4781 2944 c-39 -19 -76 -44 -82 -55 -9 -19 -9 -19 10 -10 11 6 23
16 27 22 3 6 32 22 62 36 67 29 166 38 200 17 12 -8 22 -10 22 -5 0 19 -39 31
-103 31 -54 0 -76 -6 -136 -36z"/>
<path d="M4585 2780 c-30 -8 -30 -8 8 -9 23 -1 36 3 32 9 -3 6 -7 9 -8 9 -1
-1 -15 -5 -32 -9z"/>
<path d="M4788 2813 c7 -3 16 -2 19 1 4 3 -2 6 -13 5 -11 0 -14 -3 -6 -6z"/>
<path d="M4840 1670 c8 -5 22 -9 30 -9 10 0 8 3 -5 9 -27 12 -43 12 -25 0z"/>
<path d="M4898 1653 c7 -3 16 -2 19 1 4 3 -2 6 -13 5 -11 0 -14 -3 -6 -6z"/>
<path d="M3795 609 c-4 -6 -5 -13 -2 -16 7 -7 27 6 27 18 0 12 -17 12 -25 -2z"/>
<path d="M3850 590 c0 -5 5 -10 10 -10 6 0 10 5 10 10 0 6 -4 10 -10 10 -5 0
-10 -4 -10 -10z"/>
<path d="M3956 561 c-4 -7 -5 -15 -2 -18 9 -9 19 4 14 18 -4 11 -6 11 -12 0z"/>
<path d="M4010 534 c0 -8 5 -12 10 -9 6 3 10 10 10 16 0 5 -4 9 -10 9 -5 0
-10 -7 -10 -16z"/>
<path d="M5446 6303 c-16 -50 -33 -142 -24 -133 8 7 49 173 44 177 -2 3 -11
-17 -20 -44z"/>
<path d="M5670 6097 c6 -6 42 -14 100 -23 24 -4 30 -2 20 4 -16 11 -128 28
-120 19z"/>
<path d="M5818 6063 c7 -3 16 -2 19 1 4 3 -2 6 -13 5 -11 0 -14 -3 -6 -6z"/>
<path d="M3743 3370 c-17 -7 -23 -20 -28 -65 -5 -33 -4 -60 2 -66 6 -6 8 -52
5 -111 -4 -82 -8 -104 -24 -120 -18 -18 -18 -21 -4 -37 15 -16 15 -20 2 -30
-13 -11 -15 -44 -13 -198 l2 -185 28 -24 c34 -29 80 -31 107 -4 18 18 20 33
19 128 0 59 -5 134 -10 167 -5 33 -9 72 -9 87 0 15 -7 31 -17 36 -14 9 -15 14
-5 36 10 22 8 27 -10 40 -20 14 -21 21 -15 111 3 53 10 101 15 108 12 15 1
129 -13 133 -5 1 -20 -1 -32 -6z m27 -70 c0 -27 -4 -50 -10 -50 -5 0 -10 -10
-11 -22 0 -17 -3 -14 -12 12 -18 51 -10 110 14 110 16 0 19 -8 19 -50z m-23
-217 c-2 -16 -4 -5 -4 22 0 28 2 40 4 28 2 -13 2 -35 0 -50z m20 -79 c-3 -3
-12 -4 -19 -1 -8 3 -5 6 6 6 11 1 17 -2 13 -5z m17 -70 c30 -12 16 -22 -34
-26 -34 -2 -50 1 -50 9 0 10 18 17 57 22 6 0 18 -2 27 -5z m6 -54 c13 -8 12
-10 -4 -10 -18 0 -18 -8 -14 -125 3 -69 2 -125 -3 -125 -4 0 -10 44 -14 98 -3
53 -7 108 -8 121 -1 14 -8 26 -16 29 -11 4 -13 -19 -10 -128 3 -92 1 -134 -7
-137 -7 -2 -13 36 -18 118 -7 117 -7 122 15 145 24 25 54 30 79 14z m7 -197
c-3 -10 -5 -2 -5 17 0 19 2 27 5 18 2 -10 2 -26 0 -35z m16 -100 c4 -2 7 -9 7
-15 0 -7 -5 -6 -15 2 -8 7 -30 10 -49 8 -28 -3 -33 -1 -24 10 10 12 57 9 81
-5z m-23 -40 c0 -10 -6 -13 -16 -9 -9 3 -20 6 -25 6 -5 0 -9 6 -9 14 0 9 8 12
25 8 14 -2 25 -11 25 -19z"/>
<path d="M5192 2883 c-7 -25 -9 -94 -5 -203 7 -191 16 -217 63 -170 l21 21 -3
-35 c-2 -42 18 -72 38 -55 8 6 3 -16 -12 -51 -30 -74 -26 -106 4 -36 12 27 22
53 22 58 0 5 7 23 16 39 15 30 11 56 -5 30 -10 -16 -4 60 16 204 19 138 21
187 7 192 -18 6 -33 -43 -57 -192 -14 -82 -26 -134 -31 -127 -4 7 -10 77 -13
155 -5 148 -16 207 -37 207 -7 0 -18 -17 -24 -37z m25 -15 c-3 -8 -6 -5 -6 6
-1 11 2 17 5 13 3 -3 4 -12 1 -19z m17 -175 c5 -108 4 -133 -7 -133 -11 0 -15
32 -20 137 -3 75 -4 140 0 146 13 21 21 -23 27 -150z m113 125 c-3 -8 -6 -5
-6 6 -1 11 2 17 5 13 3 -3 4 -12 1 -19z m-18 -160 c-10 -73 -19 -140 -19 -148
0 -10 -3 -11 -11 -3 -9 9 -2 93 16 183 2 8 7 36 10 62 4 26 11 46 15 43 4 -2
-1 -64 -11 -137z m-89 -128 c0 -5 -4 -10 -10 -10 -5 0 -10 5 -10 10 0 6 5 10
10 10 6 0 10 -4 10 -10z m57 -72 c-3 -7 -5 -2 -5 12 0 14 2 19 5 13 2 -7 2
-19 0 -25z"/>
<path d="M5456 2782 c-13 -21 -25 -62 -18 -62 9 0 34 62 28 68 -2 2 -7 -1 -10
-6z"/>
<path d="M5399 2645 c-38 -85 -59 -145 -49 -145 7 0 24 39 81 188 19 48 -4 18
-32 -43z"/>
<path d="M4927 2635 c-55 -18 -100 -35 -102 -37 -2 -2 1 -23 6 -48 4 -25 13
-72 19 -104 6 -33 19 -91 30 -131 10 -39 22 -86 25 -105 11 -66 21 -67 142
-20 149 58 182 76 187 103 14 69 13 78 -23 136 -90 146 -157 240 -171 240 -8
0 -59 -15 -113 -34z m126 1 c5 -11 -18 -22 -93 -45 -114 -36 -110 -35 -110
-17 0 13 103 53 175 69 11 3 21 5 21 6 1 0 4 -5 7 -13z m73 -114 c22 -31 53
-78 67 -103 l27 -46 -82 -36 c-108 -46 -191 -78 -193 -75 -5 8 -86 280 -83
282 2 1 48 16 103 33 86 27 101 29 110 16 6 -8 28 -40 51 -71z m-228 -154 c23
-70 39 -147 27 -136 -3 3 -17 48 -31 100 -27 105 -25 98 -20 98 2 0 13 -28 24
-62z m322 -47 c0 -22 -8 -34 -33 -50 -42 -26 -238 -104 -244 -97 -3 2 29 20
71 40 42 19 76 37 76 40 0 5 -58 -17 -104 -41 -24 -12 -30 -13 -37 -1 -14 22
-11 26 38 48 80 35 102 32 28 -4 -38 -19 -65 -35 -58 -35 20 -2 146 59 139 67
-6 6 94 59 117 61 4 1 7 -12 7 -28z"/>
<path d="M5010 2553 c-8 -3 -26 -10 -39 -15 -48 -18 -14 -16 39 2 30 10 46 19
35 19 -11 -1 -27 -3 -35 -6z"/>
<path d="M4900 2540 c-18 -12 -2 -12 25 0 13 6 15 9 5 9 -8 0 -22 -4 -30 -9z"/>
<path d="M5003 2520 c-13 -5 -23 -12 -23 -15 0 -8 53 6 65 16 12 12 -13 11
-42 -1z"/>
<path d="M4890 2510 c0 -5 4 -10 9 -10 6 0 13 5 16 10 3 6 -1 10 -9 10 -9 0
-16 -4 -16 -10z"/>
<path d="M5060 2510 c-13 -8 -13 -10 2 -10 9 0 20 5 23 10 8 13 -5 13 -25 0z"/>
<path d="M4935 2500 c-3 -5 -1 -10 4 -10 6 0 11 5 11 10 0 6 -2 10 -4 10 -3 0
-8 -4 -11 -10z"/>
<path d="M4994 2485 c-24 -18 -7 -19 26 0 16 9 19 14 9 15 -8 0 -24 -7 -35
-15z"/>
<path d="M5033 2476 c-72 -29 -67 -37 7 -13 33 11 60 24 60 28 0 12 -5 10 -67
-15z"/>
<path d="M5055 2445 c-16 -7 -23 -14 -15 -14 8 0 29 6 45 14 17 7 23 14 15 14
-8 0 -28 -6 -45 -14z"/>
<path d="M5020 2404 c-36 -13 -71 -27 -79 -29 -8 -3 -11 -8 -8 -11 6 -7 146
43 162 57 15 14 -5 10 -75 -17z"/>
<path d="M4925 2400 c-8 -13 15 -13 35 0 12 8 11 10 -7 10 -12 0 -25 -4 -28
-10z"/>
<path d="M5036 2379 c-44 -15 -84 -34 -90 -40 -8 -8 -7 -10 4 -6 8 3 54 18
102 34 49 15 88 31 88 36 0 11 -20 7 -104 -24z"/>
<path d="M5085 2366 c-115 -44 -149 -60 -136 -64 15 -5 210 70 211 81 0 10 -8
9 -75 -17z"/>
<path d="M5256 2283 c-6 -14 -5 -15 5 -6 7 7 10 15 7 18 -3 3 -9 -2 -12 -12z"/>
<path d="M5230 2219 c0 -5 5 -7 10 -4 6 3 10 8 10 11 0 2 -4 4 -10 4 -5 0 -10
-5 -10 -11z"/>
</g>
</svg>
